Giphurs-Regular.ufo
<glyph name="parenleft" format="2">
  <advance width="818"/>
  <unicode hex="0028"/>
  <outline>
    <contour>
      <point x="100" y="660" type="curve" smooth="yes"/>
      <point x="100" y="1260"/>
      <point x="534" y="1605"/>
      <point x="684" y="1660" type="curve"/>
      <point x="768" y="1515" type="line"/>
      <point x="655" y="1474"/>
      <point x="280" y="1200"/>
      <point x="280" y="660" type="curve" smooth="yes"/>
      <point x="280" y="120"/>
      <point x="655" y="-154"/>
      <point x="768" y="-195" type="curve"/>
      <point x="684" y="-340" type="line"/>
      <point x="534" y="-285"/>
      <point x="100" y="60"/>
    </contour>
  </outline>
</glyph>
<glyph name="semicolon" format="2">
  <advance width="500"/>
  <unicode hex="003B"/>
  <outline>
    <contour>
      <point x="104" y="108" type="curve" smooth="yes"/>
      <point x="104" y="180"/>
      <point x="160" y="236"/>
      <point x="232" y="236" type="curve" smooth="yes"/>
      <point x="304" y="236"/>
      <point x="360" y="180"/>
      <point x="360" y="108" type="curve" smooth="yes"/>
      <point x="360" y="36"/>
      <point x="304" y="-20"/>
      <point x="232" y="-20" type="curve" smooth="yes"/>
      <point x="160" y="-20"/>
      <point x="104" y="36"/>
    </contour>
    <contour>
      <point x="122" y="-161" type="line"/>
      <point x="179" y="-148"/>
      <point x="269" y="-100"/>
      <point x="269" y="20" type="curve" smooth="yes"/>
      <point x="269" y="48"/>
      <point x="233" y="108"/>
      <point x="233" y="108" type="curve"/>
      <point x="232" y="236" type="line"/>
      <point x="302" y="236"/>
      <point x="396" y="190"/>
      <point x="396" y="20" type="curve" smooth="yes"/>
      <point x="396" y="-160"/>
      <point x="229" y="-256"/>
      <point x="152" y="-276" type="curve"/>
    </contour>
    <contour>
      <point x="122" y="931" type="curve" smooth="yes"/>
      <point x="122" y="1003"/>
      <point x="178" y="1059"/>
      <point x="250" y="1059" type="curve" smooth="yes"/>
      <point x="322" y="1059"/>
      <point x="378" y="1003"/>
      <point x="378" y="931" type="curve" smooth="yes"/>
      <point x="378" y="859"/>
      <point x="322" y="803"/>
      <point x="250" y="803" type="curve" smooth="yes"/>
      <point x="178" y="803"/>
      <point x="122" y="859"/>
    </contour>
  </outline>
</glyph>
<glyph name="equal" format="2">
  <advance width="1232"/>
  <unicode hex="003D"/>
  <outline>
    <contour>
      <point x="1092" y="920" type="line"/>
      <point x="1092" y="760" type="line"/>
      <point x="140" y="760" type="line"/>
      <point x="140" y="920" type="line"/>
    </contour>
    <contour>
      <point x="140" y="400" type="line"/>
      <point x="140" y="560" type="line"/>
      <point x="1092" y="560" type="line"/>
      <point x="1092" y="400" type="line"/>
    </contour>
  </outline>
</glyph>
<glyph name="D" format="2">
  <advance width="1378"/>
  <unicode hex="0044"/>
  <anchor x="662" y="1380" name="top_center"/>
  <anchor x="662" y="0" name="bottom_center"/>
  <anchor x="567" y="-20" name="bottom_cedilla"/>
  <outline>
    <contour>
      <point x="330" y="1312" type="line"/>
      <point x="330" y="168" type="line"/>
      <point x="612" y="168" type="line"/>
      <point x="882" y="168"/>
      <point x="1088" y="407"/>
      <point x="1088" y="740" type="curve" smooth="yes"/>
      <point x="1088" y="1073"/>
      <point x="882" y="1312"/>
      <point x="612" y="1312" type="curve"/>
    </contour>
    <contour>
      <point x="612" y="0" type="curve"/>
      <point x="330" y="0" type="line"/>
      <point x="140" y="0" type="line"/>
      <point x="140" y="1480" type="line"/>
      <point x="612" y="1480" type="line"/>
      <point x="992" y="1480"/>
      <point x="1278" y="1190"/>
      <point x="1278" y="740" type="curve" smooth="yes"/>
      <point x="1278" y="290"/>
      <point x="992" y="0"/>
    </contour>
  </outline>
</glyph>
<glyph name="L" format="2">
  <advance width="1208"/>
  <unicode hex="004C"/>
  <anchor x="235" y="1380" name="top_center"/>
  <anchor x="604" y="0" name="bottom_center"/>
  <outline>
    <contour>
      <point x="330" y="1480" type="line"/>
      <point x="330" y="168" type="line"/>
      <point x="1068" y="168" type="line"/>
      <point x="1068" y="0" type="line"/>
      <point x="140" y="0" type="line"/>
      <point x="140" y="1480" type="line"/>
    </contour>
  </outline>
</glyph>
<glyph name="S" format="2">
  <advance width="1220"/>
  <unicode hex="0053"/>
  <anchor x="610" y="-20" name="bottom_cedilla"/>
  <anchor x="610" y="1380" name="top_center"/>
  <anchor x="610" y="0" name="bottom_center"/>
  <outline>
    <contour>
      <point x="610" y="1332" type="curve" smooth="yes"/>
      <point x="400" y="1332"/>
      <point x="335" y="1212"/>
      <point x="335" y="1084" type="curve" smooth="yes"/>
      <point x="335" y="956"/>
      <point x="465" y="876"/>
      <point x="610" y="837" type="curve" smooth="yes"/>
      <point x="900" y="759"/>
      <point x="1120" y="656"/>
      <point x="1120" y="396" type="curve" smooth="yes"/>
      <point x="1120" y="136"/>
      <point x="916" y="-20"/>
      <point x="610" y="-20" type="curve" smooth="yes"/>
      <point x="329" y="-20"/>
      <point x="127" y="158"/>
      <point x="100" y="396" type="curve"/>
      <point x="286" y="446" type="line"/>
      <point x="286" y="289"/>
      <point x="409" y="148"/>
      <point x="610" y="148" type="curve" smooth="yes"/>
      <point x="830" y="148"/>
      <point x="930" y="255"/>
      <point x="930" y="396" type="curve" smooth="yes"/>
      <point x="930" y="537"/>
      <point x="803" y="601"/>
      <point x="610" y="653" type="curve" smooth="yes"/>
      <point x="320" y="731"/>
      <point x="145" y="854"/>
      <point x="145" y="1084" type="curve" smooth="yes"/>
      <point x="145" y="1314"/>
      <point x="319" y="1500"/>
      <point x="610" y="1500" type="curve" smooth="yes"/>
      <point x="891" y="1500"/>
      <point x="1073" y="1332"/>
      <point x="1100" y="1094" type="curve"/>
      <point x="913" y="1044" type="line"/>
      <point x="913" y="1201"/>
      <point x="811" y="1332"/>
    </contour>
  </outline>
</glyph>
<glyph name="U" format="2">
  <advance width="1398"/>
  <unicode hex="0055"/>
  <anchor x="699" y="-20" name="bottom_cedilla"/>
  <anchor x="861" y="0" name="bottom_right"/>
  <anchor x="699" y="0" name="bottom_center"/>
  <anchor x="1258" y="1480" name="top_right"/>
  <anchor x="699" y="1380" name="top_center"/>
  <outline>
    <contour>
      <point x="330" y="1480" type="line"/>
      <point x="330" y="600" type="line"/>
      <point x="330" y="350"/>
      <point x="449" y="148"/>
      <point x="699" y="148" type="curve" smooth="yes"/>
      <point x="949" y="148"/>
      <point x="1068" y="350"/>
      <point x="1068" y="600" type="curve"/>
      <point x="1068" y="1480" type="line"/>
      <point x="1258" y="1480" type="line"/>
      <point x="1258" y="600" type="line"/>
      <point x="1258" y="240"/>
      <point x="1059" y="-20"/>
      <point x="699" y="-20" type="curve" smooth="yes"/>
      <point x="339" y="-20"/>
      <point x="140" y="240"/>
      <point x="140" y="600" type="curve"/>
      <point x="140" y="1480" type="line"/>
    </contour>
  </outline>
</glyph>
<glyph name="V" format="2">
  <advance width="1356"/>
  <unicode hex="0056"/>
  <anchor x="678" y="1380" name="top_center"/>
  <anchor x="678" y="-0" name="bottom_center"/>
  <outline>
    <contour>
      <point x="678" y="250" type="line"/>
      <point x="1090" y="1480" type="line"/>
      <point x="1286" y="1480" type="line"/>
      <point x="776" y="0" type="line"/>
      <point x="580" y="0" type="line"/>
      <point x="70" y="1480" type="line"/>
      <point x="266" y="1480" type="line"/>
    </contour>
  </outline>
</glyph>
<glyph name="W" format="2">
  <advance width="1984"/>
  <unicode hex="0057"/>
  <anchor x="992" y="1380" name="top_center"/>
  <anchor x="992" y="0" name="bottom_center"/>
  <outline>
    <contour>
      <point x="1404" y="280" type="line"/>
      <point x="1718" y="1480" type="line"/>
      <point x="1914" y="1480" type="line"/>
      <point x="1502" y="0" type="line"/>
      <point x="1306" y="0" type="line"/>
      <point x="992" y="1150" type="line"/>
      <point x="678" y="0" type="line"/>
      <point x="482" y="0" type="line"/>
      <point x="70" y="1480" type="line"/>
      <point x="266" y="1480" type="line"/>
      <point x="580" y="280" type="line"/>
      <point x="906" y="1480" type="line"/>
      <point x="1078" y="1480" type="line"/>
    </contour>
  </outline>
</glyph>
<glyph name="Z" format="2">
  <advance width="1300"/>
  <unicode hex="005A"/>
  <anchor x="649" y="1380" name="top_center"/>
  <anchor x="646" y="0" name="bottom_center"/>
  <outline>
    <contour>
      <point x="242" y="0" type="line"/>
      <point x="140" y="152" type="line"/>
      <point x="1038" y="1480" type="line"/>
      <point x="1140" y="1328" type="line"/>
    </contour>
    <contour>
      <point x="292" y="168" type="line"/>
      <point x="1160" y="168" type="line"/>
      <point x="1160" y="0" type="line"/>
      <point x="790" y="0"/>
      <point x="510" y="0"/>
      <point x="140" y="0" type="curve"/>
      <point x="140" y="152" type="line"/>
    </contour>
    <contour>
      <point x="160" y="1480" type="line"/>
      <point x="530" y="1480"/>
      <point x="770" y="1480"/>
      <point x="1140" y="1480" type="curve"/>
      <point x="1140" y="1328" type="line"/>
      <point x="986" y="1312" type="line"/>
      <point x="160" y="1312" type="line"/>
    </contour>
  </outline>
</glyph>
<glyph name="d" format="2">
  <advance width="1184"/>
  <unicode hex="0064"/>
  <anchor x="1044" y="1480" name="top_right"/>
  <anchor x="954" y="1380" name="top_center"/>
  <anchor x="578" y="0" name="bottom_center"/>
  <anchor x="578" y="-20" name="bottom_cedilla"/>
  <outline>
    <contour>
      <point x="876" y="520" type="curve" smooth="yes"/>
      <point x="876" y="750"/>
      <point x="758" y="900"/>
      <point x="578" y="900" type="curve" smooth="yes"/>
      <point x="398" y="900"/>
      <point x="280" y="750"/>
      <point x="280" y="520" type="curve" smooth="yes"/>
      <point x="280" y="290"/>
      <point x="398" y="140"/>
      <point x="578" y="140" type="curve" smooth="yes"/>
      <point x="758" y="140"/>
      <point x="876" y="290"/>
    </contour>
    <contour>
      <point x="1044" y="168" type="line"/>
      <point x="1044" y="66"/>
      <point x="1064" y="0"/>
      <point x="1064" y="0" type="curve"/>
      <point x="892" y="0" type="line"/>
      <point x="892" y="0"/>
      <point x="876" y="60"/>
      <point x="876" y="120" type="curve"/>
      <point x="791" y="35"/>
      <point x="703" y="-20"/>
      <point x="578" y="-20" type="curve" smooth="yes"/>
      <point x="297" y="-20"/>
      <point x="100" y="208"/>
      <point x="100" y="520" type="curve" smooth="yes"/>
      <point x="100" y="832"/>
      <point x="297" y="1060"/>
      <point x="578" y="1060" type="curve" smooth="yes"/>
      <point x="703" y="1060"/>
      <point x="779" y="1005"/>
      <point x="864" y="920" type="curve"/>
      <point x="864" y="1480" type="line"/>
      <point x="1044" y="1480" type="line"/>
    </contour>
  </outline>
</glyph>
<glyph name="k" format="2">
  <advance width="1059"/>
  <unicode hex="006B"/>
  <anchor x="230" y="1380" name="top_center"/>
  <anchor x="568" y="-0" name="bottom_center"/>
  <outline>
    <contour>
      <point x="417" y="562" type="line"/>
      <point x="526" y="702" type="line"/>
      <point x="1024" y="0" type="line"/>
      <point x="816" y="0" type="line"/>
    </contour>
    <contour>
      <point x="320" y="340" type="line"/>
      <point x="320" y="0" type="line"/>
      <point x="140" y="0" type="line"/>
      <point x="140" y="1480" type="line"/>
      <point x="320" y="1480" type="line"/>
      <point x="320" y="572" type="line"/>
      <point x="788" y="1040" type="line"/>
      <point x="848" y="1040"/>
      <point x="960" y="1040"/>
      <point x="1020" y="1040" type="curve"/>
    </contour>
  </outline>
</glyph>
<glyph name="n" format="2">
  <advance width="1156"/>
  <unicode hex="006E"/>
  <anchor x="578" y="1040" name="top_center"/>
  <anchor x="578" y="0" name="bottom_center"/>
  <outline>
    <contour>
      <point x="836" y="0" type="line"/>
      <point x="836" y="572" type="line" smooth="yes"/>
      <point x="836" y="791"/>
      <point x="758" y="900"/>
      <point x="578" y="900" type="curve" smooth="yes"/>
      <point x="398" y="900"/>
      <point x="320" y="791"/>
      <point x="320" y="572" type="curve" smooth="yes"/>
      <point x="320" y="0" type="line"/>
      <point x="140" y="0" type="line"/>
      <point x="140" y="1040" type="line"/>
      <point x="308" y="1040" type="line"/>
      <point x="308" y="920" type="line"/>
      <point x="393" y="1005"/>
      <point x="493" y="1060"/>
      <point x="618" y="1060" type="curve" smooth="yes"/>
      <point x="888" y="1060"/>
      <point x="1016" y="892"/>
      <point x="1016" y="572" type="curve"/>
      <point x="1016" y="0" type="line"/>
    </contour>
  </outline>
</glyph>
<glyph name="q" format="2">
  <advance width="1184"/>
  <unicode hex="0071"/>
  <anchor x="578" y="1040" name="top_center"/>
  <anchor x="954" y="-360" name="bottom_center"/>
  <outline>
    <contour>
      <point x="876" y="520" type="curve" smooth="yes"/>
      <point x="876" y="750"/>
      <point x="758" y="900"/>
      <point x="578" y="900" type="curve" smooth="yes"/>
      <point x="398" y="900"/>
      <point x="280" y="750"/>
      <point x="280" y="520" type="curve" smooth="yes"/>
      <point x="280" y="290"/>
      <point x="398" y="140"/>
      <point x="578" y="140" type="curve" smooth="yes"/>
      <point x="758" y="140"/>
      <point x="876" y="290"/>
    </contour>
    <contour>
      <point x="1044" y="872" type="curve"/>
      <point x="1044" y="-440" type="line"/>
      <point x="864" y="-440" type="line"/>
      <point x="864" y="120" type="line"/>
      <point x="779" y="35"/>
      <point x="703" y="-20"/>
      <point x="578" y="-20" type="curve" smooth="yes"/>
      <point x="297" y="-20"/>
      <point x="100" y="208"/>
      <point x="100" y="520" type="curve" smooth="yes"/>
      <point x="100" y="832"/>
      <point x="297" y="1060"/>
      <point x="578" y="1060" type="curve" smooth="yes"/>
      <point x="703" y="1060"/>
      <point x="787" y="1005"/>
      <point x="872" y="920" type="curve"/>
      <point x="872" y="1040" type="line"/>
      <point x="1044" y="1040" type="line"/>
      <point x="1044" y="1040"/>
      <point x="1044" y="974"/>
    </contour>
  </outline>
</glyph>
<glyph name="w" format="2">
  <advance width="1594"/>
  <unicode hex="0077"/>
  <anchor x="796" y="1040" name="top_center"/>
  <anchor x="796" y="0" name="bottom_center"/>
  <outline>
    <contour>
      <point x="391" y="0" type="line"/>
      <point x="70" y="1040" type="line"/>
      <point x="260" y="1040" type="line"/>
      <point x="483" y="250" type="line"/>
      <point x="706" y="1040" type="line"/>
      <point x="886" y="1040" type="line"/>
      <point x="1109" y="250" type="line"/>
      <point x="1332" y="1040" type="line"/>
      <point x="1524" y="1040" type="line"/>
      <point x="1201" y="0" type="line"/>
      <point x="1017" y="0" type="line"/>
      <point x="800" y="770" type="line"/>
      <point x="575" y="0" type="line"/>
    </contour>
  </outline>
</glyph>
<glyph name="braceleft" format="2">
  <advance width="770"/>
  <unicode hex="007B"/>
  <outline>
    <contour>
      <point x="480" y="60" type="line" smooth="yes"/>
      <point x="480" y="-98"/>
      <point x="542" y="-160"/>
      <point x="700" y="-160" type="curve"/>
      <point x="700" y="-320" type="line"/>
      <point x="445" y="-320"/>
      <point x="300" y="-195"/>
      <point x="300" y="60" type="curve" smooth="yes"/>
      <point x="300" y="410" type="line" smooth="yes"/>
      <point x="300" y="520"/>
      <point x="210" y="580"/>
      <point x="100" y="580" type="curve"/>
      <point x="100" y="740" type="line"/>
      <point x="320" y="740"/>
      <point x="480" y="630"/>
      <point x="480" y="410" type="curve" smooth="yes"/>
    </contour>
    <contour>
      <point x="480" y="1260" type="curve" smooth="yes"/>
      <point x="480" y="910" type="line" smooth="yes"/>
      <point x="480" y="690"/>
      <point x="320" y="580"/>
      <point x="100" y="580" type="curve"/>
      <point x="100" y="740" type="line"/>
      <point x="210" y="740"/>
      <point x="300" y="800"/>
      <point x="300" y="910" type="curve" smooth="yes"/>
      <point x="300" y="1260" type="line" smooth="yes"/>
      <point x="300" y="1515"/>
      <point x="445" y="1640"/>
      <point x="700" y="1640" type="curve"/>
      <point x="700" y="1480" type="line"/>
      <point x="542" y="1480"/>
      <point x="480" y="1418"/>
    </contour>
  </outline>
</glyph>
<glyph name="exclamdown" format="2">
  <advance width="532"/>
  <unicode hex="00A1"/>
  <outline>
    <contour>
      <point x="139" y="932" type="curve" smooth="yes"/>
      <point x="139" y="1004"/>
      <point x="195" y="1060"/>
      <point x="267" y="1060" type="curve" smooth="yes"/>
      <point x="339" y="1060"/>
      <point x="395" y="1004"/>
      <point x="395" y="932" type="curve" smooth="yes"/>
      <point x="395" y="860"/>
      <point x="339" y="804"/>
      <point x="267" y="804" type="curve" smooth="yes"/>
      <point x="195" y="804"/>
      <point x="139" y="860"/>
    </contour>
    <contour>
      <point x="373" y="-440" type="line"/>
      <point x="161" y="-440" type="line"/>
      <point x="177" y="588" type="line"/>
      <point x="357" y="588" type="line"/>
    </contour>
  </outline>
</glyph>
<glyph name="sterling" format="2">
  <advance width="1300"/>
  <unicode hex="00A3"/>
  <outline>
    <contour>
      <point x="320" y="660" type="line"/>
      <point x="738" y="660" type="line"/>
      <point x="738" y="820" type="line"/>
      <point x="320" y="820" type="line"/>
      <point x="68" y="820" type="line"/>
      <point x="68" y="774"/>
      <point x="68" y="706"/>
      <point x="68" y="660" type="curve"/>
    </contour>
    <contour>
      <point x="352" y="1040" type="curve" smooth="yes"/>
      <point x="352" y="1220"/>
      <point x="480" y="1340"/>
      <point x="660" y="1340" type="curve" smooth="yes"/>
      <point x="840" y="1340"/>
      <point x="977" y="1200"/>
      <point x="977" y="1000" type="curve" smooth="yes"/>
      <point x="977" y="982"/>
      <point x="976" y="966"/>
      <point x="974" y="949" type="curve"/>
      <point x="1148" y="1000" type="line"/>
      <point x="1148" y="1300"/>
      <point x="940" y="1500"/>
      <point x="660" y="1500" type="curve" smooth="yes"/>
      <point x="380" y="1500"/>
      <point x="172" y="1320"/>
      <point x="172" y="1040" type="curve" smooth="yes"/>
      <point x="172" y="768"/>
      <point x="300" y="654"/>
      <point x="300" y="474" type="curve" smooth="yes"/>
      <point x="300" y="354"/>
      <point x="193" y="216"/>
      <point x="100" y="141" type="curve"/>
      <point x="277" y="81" type="line"/>
      <point x="320" y="141"/>
      <point x="480" y="290"/>
      <point x="480" y="490" type="curve" smooth="yes"/>
      <point x="480" y="690"/>
      <point x="352" y="800"/>
    </contour>
    <contour>
      <point x="1160" y="211" type="line"/>
      <point x="1130" y="191"/>
      <point x="1013" y="140"/>
      <point x="933" y="140" type="curve" smooth="yes"/>
      <point x="777" y="140"/>
      <point x="698" y="248"/>
      <point x="498" y="248" type="curve" smooth="yes"/>
      <point x="358" y="248"/>
      <point x="190" y="176"/>
      <point x="100" y="141" type="curve"/>
      <point x="139" y="-20" type="line"/>
      <point x="250" y="34"/>
      <point x="380" y="88"/>
      <point x="498" y="88" type="curve" smooth="yes"/>
      <point x="654" y="88"/>
      <point x="733" y="-20"/>
      <point x="933" y="-20" type="curve" smooth="yes"/>
      <point x="1053" y="-20"/>
      <point x="1154" y="23"/>
      <point x="1200" y="50" type="curve"/>
    </contour>
  </outline>
</glyph>
<glyph name="brokenbar" format="2">
  <advance width="460"/>
  <unicode hex="00A6"/>
  <outline>
    <contour>
      <point x="140" y="570" type="line"/>
      <point x="320" y="570" type="line"/>
      <point x="320" y="-320" type="line"/>
      <point x="140" y="-320" type="line"/>
    </contour>
    <contour>
      <point x="320" y="750" type="line"/>
      <point x="140" y="750" type="line"/>
      <point x="140" y="1640" type="line"/>
      <point x="320" y="1640" type="line"/>
    </contour>
  </outline>
</glyph>
<glyph name="macron" format="2">
  <advance width="790"/>
  <unicode hex="00AF"/>
  <outline>
    <contour>
      <point x="90" y="1340" type="line"/>
      <point x="90" y="1480" type="line"/>
      <point x="700" y="1480" type="line"/>
      <point x="700" y="1340" type="line"/>
    </contour>
  </outline>
</glyph>
<glyph name="periodcentered" format="2">
  <advance width="500"/>
  <unicode hex="00B7"/>
  <outline>
    <contour>
      <point x="122" y="660" type="curve" smooth="yes"/>
      <point x="122" y="732"/>
      <point x="178" y="788"/>
      <point x="250" y="788" type="curve" smooth="yes"/>
      <point x="322" y="788"/>
      <point x="378" y="732"/>
      <point x="378" y="660" type="curve" smooth="yes"/>
      <point x="378" y="588"/>
      <point x="322" y="532"/>
      <point x="250" y="532" type="curve" smooth="yes"/>
      <point x="178" y="532"/>
      <point x="122" y="588"/>
    </contour>
  </outline>
</glyph>
<glyph name="cedilla" format="2">
  <advance width="552"/>
  <unicode hex="00B8"/>
  <outline>
    <contour>
      <point x="100" y="-291" type="curve"/>
      <point x="208" y="-229" type="line"/>
      <point x="226" y="-258"/>
      <point x="251" y="-263"/>
      <point x="272" y="-263" type="curve" smooth="yes"/>
      <point x="304" y="-263"/>
      <point x="325" y="-240"/>
      <point x="325" y="-216" type="curve" smooth="yes"/>
      <point x="325" y="-192"/>
      <point x="304" y="-169"/>
      <point x="272" y="-169" type="curve" smooth="yes"/>
      <point x="250" y="-169"/>
      <point x="232" y="-178"/>
      <point x="224" y="-192" type="curve"/>
      <point x="116" y="-130" type="line"/>
      <point x="148" y="-84"/>
      <point x="207" y="-52"/>
      <point x="272" y="-52" type="curve" smooth="yes"/>
      <point x="372" y="-52"/>
      <point x="452" y="-126"/>
      <point x="452" y="-216" type="curve" smooth="yes"/>
      <point x="452" y="-306"/>
      <point x="372" y="-380"/>
      <point x="272" y="-380" type="curve" smooth="yes"/>
      <point x="206" y="-380"/>
      <point x="138" y="-352"/>
    </contour>
    <contour>
      <point x="193" y="0" type="line"/>
      <point x="321" y="0" type="line"/>
      <point x="225" y="-165" type="line"/>
      <point x="224" y="-192" type="line"/>
      <point x="117" y="-131" type="line"/>
    </contour>
  </outline>
</glyph>
<glyph name="guillemotright" format="2">
  <advance width="1122"/>
  <unicode hex="00BB"/>
  <outline>
    <contour>
      <point x="274" y="196" type="line"/>
      <point x="624" y="660" type="line"/>
      <point x="274" y="1126" type="line"/>
      <point x="70" y="1126" type="line"/>
      <point x="424" y="660" type="line"/>
      <point x="70" y="196" type="line"/>
    </contour>
    <contour>
      <point x="702" y="196" type="line"/>
      <point x="1052" y="660" type="line"/>
      <point x="702" y="1126" type="line"/>
      <point x="498" y="1126" type="line"/>
      <point x="852" y="660" type="line"/>
      <point x="498" y="196" type="line"/>
    </contour>
  </outline>
</glyph>
<glyph name="multiply" format="2">
  <advance width="1232"/>
  <unicode hex="00D7"/>
  <outline>
    <contour>
      <point x="140" y="1016" type="line"/>
      <point x="972" y="184" type="line"/>
      <point x="1092" y="304" type="line"/>
      <point x="260" y="1136" type="line"/>
    </contour>
    <contour>
      <point x="260" y="184" type="line"/>
      <point x="1092" y="1016" type="line"/>
      <point x="972" y="1136" type="line"/>
      <point x="140" y="304" type="line"/>
    </contour>
  </outline>
</glyph>
<glyph name="oslash" format="2">
  <advance width="1196"/>
  <unicode hex="00F8"/>
  <anchor x="598" y="1040" name="top_center"/>
  <anchor x="598" y="0" name="bottom_center"/>
  <outline>
    <contour>
      <point x="992" y="1156" type="line"/>
      <point x="1120" y="1060" type="line"/>
      <point x="204" y="-116" type="line"/>
      <point x="76" y="-20" type="line"/>
    </contour>
    <contour>
      <point x="280" y="520" type="curve" smooth="yes"/>
      <point x="280" y="300"/>
      <point x="407" y="140"/>
      <point x="598" y="140" type="curve" smooth="yes"/>
      <point x="789" y="140"/>
      <point x="916" y="300"/>
      <point x="916" y="520" type="curve" smooth="yes"/>
      <point x="916" y="740"/>
      <point x="789" y="900"/>
      <point x="598" y="900" type="curve" smooth="yes"/>
      <point x="407" y="900"/>
      <point x="280" y="740"/>
    </contour>
    <contour>
      <point x="100" y="520" type="curve" smooth="yes"/>
      <point x="100" y="832"/>
      <point x="317" y="1060"/>
      <point x="598" y="1060" type="curve" smooth="yes"/>
      <point x="879" y="1060"/>
      <point x="1096" y="832"/>
      <point x="1096" y="520" type="curve" smooth="yes"/>
      <point x="1096" y="208"/>
      <point x="879" y="-20"/>
      <point x="598" y="-20" type="curve" smooth="yes"/>
      <point x="317" y="-20"/>
      <point x="100" y="208"/>
    </contour>
  </outline>
</glyph>
<glyph name="Hbar" format="2">
  <advance width="1398"/>
  <unicode hex="0126"/>
  <outline>
    <contour>
      <point x="1398" y="1004" type="line"/>
      <point x="0" y="1004" type="line"/>
      <point x="0" y="1050"/>
      <point x="0" y="1110"/>
      <point x="0" y="1156" type="curve"/>
      <point x="1398" y="1156" type="line"/>
    </contour>
    <contour>
      <point x="140" y="1480" type="line"/>
      <point x="330" y="1480" type="line"/>
      <point x="330" y="824" type="line"/>
      <point x="1068" y="824" type="line"/>
      <point x="1068" y="1480" type="line"/>
      <point x="1258" y="1480" type="line"/>
      <point x="1258" y="0" type="line"/>
      <point x="1068" y="0" type="line"/>
      <point x="1068" y="656" type="line"/>
      <point x="330" y="656" type="line"/>
      <point x="330" y="0" type="line"/>
      <point x="140" y="0" type="line"/>
    </contour>
  </outline>
</glyph>
<glyph name="dotlessi" format="2">
  <advance width="460"/>
  <unicode hex="0131"/>
  <anchor x="231" y="-20" name="bottom_cedilla"/>
  <anchor x="230" y="1040" name="top_center"/>
  <anchor x="230" y="0" name="bottom_center"/>
  <anchor x="320" y="0" name="bottom_right"/>
  <outline>
    <contour>
      <point x="140" y="0" type="line"/>
      <point x="140" y="1040" type="line"/>
      <point x="320" y="1040" type="line"/>
      <point x="320" y="0" type="line"/>
    </contour>
  </outline>
</glyph>
<glyph name="Lcaron" format="2">
  <advance width="1208"/>
  <unicode hex="013D"/>
  <outline>
    <contour>
      <point x="648" y="1120" type="line"/>
      <point x="490" y="1120" type="line"/>
      <point x="554" y="1480" type="line"/>
      <point x="744" y="1480" type="line"/>
    </contour>
    <contour>
      <point x="330" y="1480" type="line"/>
      <point x="330" y="168" type="line"/>
      <point x="1068" y="168" type="line"/>
      <point x="1068" y="0" type="line"/>
      <point x="140" y="0" type="line"/>
      <point x="140" y="1480" type="line"/>
    </contour>
  </outline>
</glyph>
<glyph name="lcaron" format="2">
  <advance width="752"/>
  <unicode hex="013E"/>
  <outline>
    <contour>
      <point x="460" y="1373" type="curve" smooth="yes"/>
      <point x="460" y="1445"/>
      <point x="516" y="1501"/>
      <point x="588" y="1501" type="curve" smooth="yes"/>
      <point x="660" y="1501"/>
      <point x="716" y="1445"/>
      <point x="716" y="1373" type="curve" smooth="yes"/>
      <point x="716" y="1301"/>
      <point x="660" y="1245"/>
      <point x="588" y="1245" type="curve" smooth="yes"/>
      <point x="516" y="1245"/>
      <point x="460" y="1301"/>
    </contour>
    <contour>
      <point x="478" y="1104" type="line"/>
      <point x="535" y="1117"/>
      <point x="625" y="1165"/>
      <point x="625" y="1285" type="curve" smooth="yes"/>
      <point x="625" y="1313"/>
      <point x="589" y="1373"/>
      <point x="589" y="1373" type="curve"/>
      <point x="588" y="1501" type="line"/>
      <point x="658" y="1501"/>
      <point x="752" y="1455"/>
      <point x="752" y="1285" type="curve" smooth="yes"/>
      <point x="752" y="1105"/>
      <point x="585" y="1009"/>
      <point x="508" y="989" type="curve"/>
    </contour>
    <contour>
      <point x="462" y="156" type="curve"/>
      <point x="504" y="4" type="line"/>
      <point x="482" y="-9"/>
      <point x="442" y="-20"/>
      <point x="410" y="-20" type="curve" smooth="yes"/>
      <point x="240" y="-20"/>
      <point x="140" y="60"/>
      <point x="140" y="230" type="curve" smooth="yes"/>
      <point x="140" y="440" type="line"/>
      <point x="140" y="578" type="line"/>
      <point x="140" y="1480" type="line"/>
      <point x="320" y="1480" type="line"/>
      <point x="320" y="578" type="line"/>
      <point x="320" y="440" type="line"/>
      <point x="320" y="230" type="line" smooth="yes"/>
      <point x="320" y="170"/>
      <point x="350" y="140"/>
      <point x="410" y="140" type="curve" smooth="yes"/>
      <point x="426" y="140"/>
      <point x="450" y="149"/>
    </contour>
  </outline>
</glyph>
<glyph name="tcaron" format="2">
  <advance width="1152"/>
  <unicode hex="0165"/>
  <outline>
    <contour>
      <point x="758" y="1200" type="line"/>
      <point x="600" y="1200" type="line"/>
      <point x="664" y="1560" type="line"/>
      <point x="854" y="1560" type="line"/>
    </contour>
    <contour>
      <point x="122" y="1028" type="line"/>
      <point x="212" y="1028"/>
      <point x="272" y="1092"/>
      <point x="272" y="1182" type="curve"/>
      <point x="272" y="1320" type="line"/>
      <point x="440" y="1320" type="line"/>
      <point x="440" y="1040" type="line"/>
      <point x="720" y="1040" type="line"/>
      <point x="720" y="880" type="line"/>
      <point x="440" y="880" type="line"/>
      <point x="440" y="300" type="line" smooth="yes"/>
      <point x="440" y="198"/>
      <point x="498" y="140"/>
      <point x="600" y="140" type="curve" smooth="yes"/>
      <point x="643" y="140"/>
      <point x="694" y="156"/>
      <point x="720" y="175" type="curve"/>
      <point x="765" y="12" type="line"/>
      <point x="720" y="-6"/>
      <point x="656" y="-20"/>
      <point x="600" y="-20" type="curve" smooth="yes"/>
      <point x="400" y="-20"/>
      <point x="260" y="101"/>
      <point x="260" y="300" type="curve" smooth="yes"/>
      <point x="260" y="880" type="line"/>
      <point x="50" y="880" type="line"/>
      <point x="50" y="926"/>
      <point x="50" y="982"/>
      <point x="50" y="1028" type="curve"/>
    </contour>
  </outline>
</glyph>
<glyph name="uni0181" format="2">
  <advance width="1518"/>
  <unicode hex="0181"/>
  <outline>
    <contour>
      <point x="902" y="1480" type="line"/>
      <point x="1177" y="1480"/>
      <point x="1375" y="1311"/>
      <point x="1375" y="1080" type="curve" smooth="yes"/>
      <point x="1375" y="857"/>
      <point x="1183" y="706"/>
      <point x="908" y="706" type="curve"/>
      <point x="908" y="856" type="line"/>
      <point x="1083" y="856"/>
      <point x="1185" y="947"/>
      <point x="1185" y="1084" type="curve" smooth="yes"/>
      <point x="1185" y="1221"/>
      <point x="1077" y="1312"/>
      <point x="902" y="1312" type="curve"/>
      <point x="520" y="1312" type="line"/>
      <point x="520" y="856" type="line"/>
      <point x="908" y="856" type="line"/>
      <point x="908" y="696" type="line"/>
      <point x="520" y="696" type="line"/>
      <point x="520" y="168" type="line"/>
      <point x="908" y="168" type="line"/>
      <point x="1108" y="168"/>
      <point x="1228" y="279"/>
      <point x="1228" y="432" type="curve" smooth="yes"/>
      <point x="1228" y="585"/>
      <point x="1108" y="696"/>
      <point x="908" y="696" type="curve"/>
      <point x="908" y="846" type="line"/>
      <point x="1228" y="846"/>
      <point x="1418" y="671"/>
      <point x="1418" y="428" type="curve" smooth="yes"/>
      <point x="1418" y="185"/>
      <point x="1208" y="0"/>
      <point x="908" y="0" type="curve"/>
      <point x="330" y="0" type="line"/>
      <point x="330" y="1480" type="line"/>
    </contour>
    <contour>
      <point x="196" y="1110" type="curve"/>
      <point x="4" y="1110" type="line"/>
      <point x="1" y="1126"/>
      <point x="0" y="1143"/>
      <point x="0" y="1160" type="curve" smooth="yes"/>
      <point x="0" y="1338"/>
      <point x="152" y="1480"/>
      <point x="330" y="1480" type="curve" smooth="yes"/>
      <point x="345" y="1480"/>
      <point x="360" y="1479"/>
      <point x="374" y="1477" type="curve"/>
      <point x="374" y="1306" type="line"/>
      <point x="361" y="1310"/>
      <point x="346" y="1312"/>
      <point x="330" y="1312" type="curve" smooth="yes"/>
      <point x="240" y="1312"/>
      <point x="190" y="1250"/>
      <point x="190" y="1160" type="curve" smooth="yes"/>
      <point x="190" y="1142"/>
      <point x="191" y="1125"/>
    </contour>
  </outline>
</glyph>
<glyph name="uni0187" format="2">
  <advance width="1586"/>
  <unicode hex="0187"/>
  <outline>
    <contour>
      <point x="1542" y="1500" type="curve" smooth="yes"/>
      <point x="1557" y="1500"/>
      <point x="1572" y="1499"/>
      <point x="1586" y="1497" type="curve"/>
      <point x="1586" y="1326" type="line"/>
      <point x="1573" y="1330"/>
      <point x="1558" y="1332"/>
      <point x="1542" y="1332" type="curve" smooth="yes"/>
      <point x="1452" y="1332"/>
      <point x="1402" y="1270"/>
      <point x="1402" y="1180" type="curve" smooth="yes"/>
      <point x="1402" y="1162"/>
      <point x="1403" y="1145"/>
      <point x="1408" y="1130" type="curve"/>
      <point x="1216" y="1130" type="line"/>
      <point x="1213" y="1146"/>
      <point x="1212" y="1163"/>
      <point x="1212" y="1180" type="curve" smooth="yes"/>
      <point x="1212" y="1358"/>
      <point x="1364" y="1500"/>
    </contour>
    <contour>
      <point x="1253" y="1028" type="line"/>
      <point x="1170" y="1215"/>
      <point x="1002" y="1332"/>
      <point x="801" y="1332" type="curve" smooth="yes"/>
      <point x="511" y="1332"/>
      <point x="290" y="1090"/>
      <point x="290" y="740" type="curve" smooth="yes"/>
      <point x="290" y="390"/>
      <point x="511" y="148"/>
      <point x="801" y="148" type="curve" smooth="yes"/>
      <point x="1002" y="148"/>
      <point x="1170" y="265"/>
      <point x="1253" y="452" type="curve"/>
      <point x="1414" y="360" type="line"/>
      <point x="1296" y="128"/>
      <point x="1069" y="-20"/>
      <point x="801" y="-20" type="curve" smooth="yes"/>
      <point x="406" y="-20"/>
      <point x="100" y="301"/>
      <point x="100" y="740" type="curve" smooth="yes"/>
      <point x="100" y="1179"/>
      <point x="406" y="1500"/>
      <point x="801" y="1500" type="curve" smooth="yes"/>
      <point x="1069" y="1500"/>
      <point x="1296" y="1352"/>
      <point x="1414" y="1120" type="curve"/>
    </contour>
  </outline>
</glyph>
<glyph name="uni0188" format="2">
  <advance width="1228"/>
  <unicode hex="0188"/>
  <outline>
    <contour>
      <point x="1184" y="1160" type="curve" smooth="yes"/>
      <point x="1199" y="1160"/>
      <point x="1214" y="1159"/>
      <point x="1228" y="1157" type="curve"/>
      <point x="1228" y="994" type="line"/>
      <point x="1215" y="998"/>
      <point x="1200" y="1000"/>
      <point x="1184" y="1000" type="curve" smooth="yes"/>
      <point x="1094" y="1000"/>
      <point x="1034" y="930"/>
      <point x="1034" y="840" type="curve" smooth="yes"/>
      <point x="1034" y="822"/>
      <point x="1035" y="805"/>
      <point x="1040" y="790" type="curve"/>
      <point x="858" y="790" type="line"/>
      <point x="855" y="806"/>
      <point x="854" y="823"/>
      <point x="854" y="840" type="curve" smooth="yes"/>
      <point x="854" y="1018"/>
      <point x="1006" y="1160"/>
    </contour>
    <contour>
      <point x="280" y="520" type="curve" smooth="yes"/>
      <point x="280" y="300"/>
      <point x="407" y="140"/>
      <point x="598" y="140" type="curve" smooth="yes"/>
      <point x="739" y="140"/>
      <point x="840" y="207"/>
      <point x="889" y="340" type="curve"/>
      <point x="1042" y="252" type="line"/>
      <point x="959" y="74"/>
      <point x="797" y="-20"/>
      <point x="598" y="-20" type="curve" smooth="yes"/>
      <point x="317" y="-20"/>
      <point x="100" y="208"/>
      <point x="100" y="520" type="curve" smooth="yes"/>
      <point x="100" y="832"/>
      <point x="317" y="1060"/>
      <point x="598" y="1060" type="curve" smooth="yes"/>
      <point x="797" y="1060"/>
      <point x="959" y="966"/>
      <point x="1042" y="788" type="curve"/>
      <point x="889" y="700" type="line"/>
      <point x="840" y="833"/>
      <point x="739" y="900"/>
      <point x="598" y="900" type="curve" smooth="yes"/>
      <point x="407" y="900"/>
      <point x="280" y="740"/>
    </contour>
  </outline>
</glyph>
<glyph name="uni0196" format="2">
  <advance width="695"/>
  <unicode hex="0196"/>
  <anchor x="230" y="1380" name="top_center"/>
  <anchor x="480" y="0" name="bottom_center"/>
  <outline>
    <contour>
      <point x="480" y="-20" type="curve" smooth="yes"/>
      <point x="280" y="-20"/>
      <point x="140" y="100"/>
      <point x="140" y="300" type="curve" smooth="yes"/>
      <point x="140" y="440" type="line"/>
      <point x="140" y="1480" type="line"/>
      <point x="320" y="1480" type="line"/>
      <point x="320" y="440" type="line"/>
      <point x="320" y="300" type="line" smooth="yes"/>
      <point x="320" y="198"/>
      <point x="378" y="140"/>
      <point x="480" y="140" type="curve" smooth="yes"/>
      <point x="523" y="140"/>
      <point x="574" y="156"/>
      <point x="600" y="175" type="curve"/>
      <point x="645" y="12" type="line"/>
      <point x="600" y="-6"/>
      <point x="536" y="-20"/>
    </contour>
  </outline>
</glyph>
<glyph name="uni0198" format="2">
  <advance width="1366"/>
  <unicode hex="0198"/>
  <outline>
    <contour>
      <point x="549" y="794" type="line"/>
      <point x="679" y="917" type="line"/>
      <point x="1296" y="0" type="line"/>
      <point x="1082" y="0" type="line"/>
    </contour>
    <contour>
      <point x="140" y="1180" type="line"/>
      <point x="140" y="1358"/>
      <point x="292" y="1500"/>
      <point x="470" y="1500" type="curve" smooth="yes"/>
      <point x="485" y="1500"/>
      <point x="500" y="1499"/>
      <point x="514" y="1497" type="curve"/>
      <point x="514" y="1326" type="line"/>
      <point x="501" y="1330"/>
      <point x="486" y="1332"/>
      <point x="470" y="1332" type="curve" smooth="yes"/>
      <point x="380" y="1332"/>
      <point x="330" y="1270"/>
      <point x="330" y="1180" type="curve"/>
      <point x="330" y="730" type="line"/>
      <point x="1056" y="1480" type="line"/>
      <point x="1116" y="1480"/>
      <point x="1236" y="1480"/>
      <point x="1296" y="1480" type="curve"/>
      <point x="330" y="490" type="line"/>
      <point x="330" y="0" type="line"/>
      <point x="140" y="0" type="line"/>
    </contour>
  </outline>
</glyph>
<glyph name="uni0199" format="2">
  <advance width="1094"/>
  <unicode hex="0199"/>
  <outline>
    <contour>
      <point x="417" y="562" type="line"/>
      <point x="526" y="702" type="line"/>
      <point x="1024" y="0" type="line"/>
      <point x="816" y="0" type="line"/>
    </contour>
    <contour>
      <point x="140" y="1177" type="line"/>
      <point x="140" y="1358"/>
      <point x="292" y="1500"/>
      <point x="470" y="1500" type="curve" smooth="yes"/>
      <point x="485" y="1500"/>
      <point x="500" y="1499"/>
      <point x="514" y="1497" type="curve"/>
      <point x="514" y="1334" type="line"/>
      <point x="501" y="1338"/>
      <point x="486" y="1340"/>
      <point x="470" y="1340" type="curve" smooth="yes"/>
      <point x="380" y="1340"/>
      <point x="320" y="1270"/>
      <point x="320" y="1177" type="curve"/>
      <point x="320" y="572" type="line"/>
      <point x="788" y="1040" type="line"/>
      <point x="848" y="1040"/>
      <point x="960" y="1040"/>
      <point x="1020" y="1040" type="curve"/>
      <point x="320" y="340" type="line"/>
      <point x="320" y="0" type="line"/>
      <point x="140" y="0" type="line"/>
    </contour>
  </outline>
</glyph>
<glyph name="uni01A2" format="2">
  <advance width="1869"/>
  <unicode hex="01A2"/>
  <outline>
    <contour>
      <point x="1235" y="1338" type="curve"/>
      <point x="1235" y="1170" type="line"/>
      <point x="1398" y="1170"/>
      <point x="1518" y="1226"/>
      <point x="1635" y="1321" type="curve"/>
      <point x="1539" y="1470" type="line"/>
      <point x="1451" y="1386"/>
      <point x="1364" y="1338"/>
    </contour>
    <contour>
      <point x="1539" y="-410" type="line"/>
      <point x="1729" y="-410" type="line"/>
      <point x="1729" y="1470" type="line"/>
      <point x="1539" y="1470" type="line"/>
    </contour>
    <contour>
      <point x="1159" y="253" type="line"/>
      <point x="1349" y="253" type="line"/>
      <point x="1349" y="1227" type="line"/>
      <point x="1159" y="1227" type="line"/>
    </contour>
    <contour>
      <point x="1253" y="452" type="line"/>
      <point x="1170" y="265"/>
      <point x="1002" y="148"/>
      <point x="801" y="148" type="curve" smooth="yes"/>
      <point x="511" y="148"/>
      <point x="290" y="390"/>
      <point x="290" y="740" type="curve" smooth="yes"/>
      <point x="290" y="1090"/>
      <point x="511" y="1332"/>
      <point x="801" y="1332" type="curve" smooth="yes"/>
      <point x="1002" y="1332"/>
      <point x="1170" y="1215"/>
      <point x="1253" y="1028" type="curve"/>
      <point x="1349" y="1227" type="line"/>
      <point x="1222" y="1397"/>
      <point x="1025" y="1500"/>
      <point x="801" y="1500" type="curve" smooth="yes"/>
      <point x="406" y="1500"/>
      <point x="100" y="1179"/>
      <point x="100" y="740" type="curve" smooth="yes"/>
      <point x="100" y="301"/>
      <point x="406" y="-20"/>
      <point x="801" y="-20" type="curve" smooth="yes"/>
      <point x="1025" y="-20"/>
      <point x="1222" y="83"/>
      <point x="1349" y="253" type="curve"/>
    </contour>
  </outline>
</glyph>
<glyph name="uni01A5" format="2">
  <advance width="1184"/>
  <unicode hex="01A5"/>
  <outline>
    <contour>
      <point x="308" y="520" type="curve" smooth="yes"/>
      <point x="308" y="290"/>
      <point x="426" y="140"/>
      <point x="606" y="140" type="curve" smooth="yes"/>
      <point x="786" y="140"/>
      <point x="904" y="290"/>
      <point x="904" y="520" type="curve" smooth="yes"/>
      <point x="904" y="750"/>
      <point x="786" y="900"/>
      <point x="606" y="900" type="curve" smooth="yes"/>
      <point x="426" y="900"/>
      <point x="308" y="750"/>
    </contour>
    <contour>
      <point x="140" y="1177" type="line"/>
      <point x="140" y="1358"/>
      <point x="292" y="1500"/>
      <point x="470" y="1500" type="curve" smooth="yes"/>
      <point x="485" y="1500"/>
      <point x="500" y="1499"/>
      <point x="514" y="1497" type="curve"/>
      <point x="514" y="1334" type="line"/>
      <point x="501" y="1338"/>
      <point x="486" y="1340"/>
      <point x="470" y="1340" type="curve" smooth="yes"/>
      <point x="380" y="1340"/>
      <point x="320" y="1270"/>
      <point x="320" y="1177" type="curve"/>
      <point x="320" y="1177"/>
      <point x="320" y="980"/>
      <point x="320" y="920" type="curve"/>
      <point x="405" y="1005"/>
      <point x="481" y="1060"/>
      <point x="606" y="1060" type="curve" smooth="yes"/>
      <point x="887" y="1060"/>
      <point x="1084" y="832"/>
      <point x="1084" y="520" type="curve" smooth="yes"/>
      <point x="1084" y="208"/>
      <point x="887" y="-20"/>
      <point x="606" y="-20" type="curve" smooth="yes"/>
      <point x="481" y="-20"/>
      <point x="405" y="35"/>
      <point x="320" y="120" type="curve"/>
      <point x="320" y="-440" type="line"/>
      <point x="140" y="-440" type="line"/>
      <point x="140" y="872" type="line"/>
    </contour>
  </outline>
</glyph>
<glyph name="uni01AD" format="2">
  <advance width="770"/>
  <unicode hex="01AD"/>
  <outline>
    <contour>
      <point x="272" y="1320" type="line"/>
      <point x="272" y="1501"/>
      <point x="413" y="1653"/>
      <point x="591" y="1653" type="curve" smooth="yes"/>
      <point x="606" y="1653"/>
      <point x="621" y="1652"/>
      <point x="635" y="1650" type="curve"/>
      <point x="635" y="1487" type="line"/>
      <point x="622" y="1491"/>
      <point x="607" y="1493"/>
      <point x="591" y="1493" type="curve" smooth="yes"/>
      <point x="501" y="1493"/>
      <point x="440" y="1413"/>
      <point x="440" y="1320" type="curve"/>
      <point x="440" y="1040" type="line"/>
      <point x="720" y="1040" type="line"/>
      <point x="720" y="880" type="line"/>
      <point x="440" y="880" type="line"/>
      <point x="440" y="300" type="line" smooth="yes"/>
      <point x="440" y="198"/>
      <point x="498" y="140"/>
      <point x="600" y="140" type="curve" smooth="yes"/>
      <point x="643" y="140"/>
      <point x="694" y="156"/>
      <point x="720" y="175" type="curve"/>
      <point x="765" y="12" type="line"/>
      <point x="720" y="-6"/>
      <point x="656" y="-20"/>
      <point x="600" y="-20" type="curve" smooth="yes"/>
      <point x="400" y="-20"/>
      <point x="260" y="101"/>
      <point x="260" y="300" type="curve" smooth="yes"/>
      <point x="260" y="880" type="line"/>
      <point x="50" y="880" type="line"/>
      <point x="50" y="1028" type="line"/>
      <point x="122" y="1028" type="line"/>
      <point x="212" y="1028"/>
      <point x="272" y="1092"/>
      <point x="272" y="1182" type="curve"/>
    </contour>
  </outline>
</glyph>
<glyph name="uni01B6" format="2">
  <advance width="1020"/>
  <unicode hex="01B6"/>
  <outline>
    <contour>
      <point x="140" y="1040" type="line"/>
      <point x="140" y="880" type="line"/>
      <point x="766" y="880" type="line"/>
      <point x="880" y="896" type="line"/>
      <point x="880" y="1040" type="line"/>
    </contour>
    <contour>
      <point x="880" y="160" type="line"/>
      <point x="264" y="160" type="line"/>
      <point x="140" y="144" type="line"/>
      <point x="140" y="0" type="line"/>
      <point x="880" y="0" type="line"/>
    </contour>
    <contour>
      <point x="344" y="160" type="line"/>
      <point x="880" y="896" type="line"/>
      <point x="676" y="880" type="line"/>
      <point x="140" y="144" type="line"/>
    </contour>
    <contour>
      <point x="175" y="440" type="curve"/>
      <point x="845" y="440" type="line"/>
      <point x="845" y="600" type="line"/>
      <point x="175" y="600" type="line"/>
      <point x="175" y="554"/>
      <point x="175" y="486"/>
    </contour>
  </outline>
</glyph>
<glyph name="uni01C0" format="2">
  <advance width="460"/>
  <unicode hex="01C0"/>
  <outline>
    <contour>
      <point x="320" y="1480" type="line"/>
      <point x="320" y="0" type="line"/>
      <point x="140" y="0" type="line"/>
      <point x="140" y="1480" type="line"/>
    </contour>
  </outline>
</glyph>
<glyph name="uni01C2" format="2">
  <advance width="1208"/>
  <unicode hex="01C2"/>
  <outline>
    <contour>
      <point x="140" y="840" type="line"/>
      <point x="140" y="1000" type="line"/>
      <point x="1068" y="1000" type="line"/>
      <point x="1068" y="840" type="line"/>
    </contour>
    <contour>
      <point x="140" y="480" type="line"/>
      <point x="140" y="640" type="line"/>
      <point x="1068" y="640" type="line"/>
      <point x="1068" y="480" type="line"/>
    </contour>
    <contour>
      <point x="694" y="1480" type="line"/>
      <point x="694" y="0" type="line"/>
      <point x="514" y="0" type="line"/>
      <point x="514" y="1480" type="line"/>
    </contour>
  </outline>
</glyph>
<glyph name="uni0237" format="2">
  <advance width="460"/>
  <unicode hex="0237"/>
  <anchor x="230" y="1040" name="top_center"/>
  <anchor x="170" y="-360" name="bottom_center"/>
  <outline>
    <contour>
      <point x="-2" y="-284" type="line"/>
      <point x="10" y="-291"/>
      <point x="34" y="-300"/>
      <point x="50" y="-300" type="curve" smooth="yes"/>
      <point x="110" y="-300"/>
      <point x="140" y="-270"/>
      <point x="140" y="-210" type="curve" smooth="yes"/>
      <point x="140" y="0" type="line"/>
      <point x="140" y="138" type="line"/>
      <point x="140" y="1040" type="line"/>
      <point x="320" y="1040" type="line"/>
      <point x="320" y="138" type="line"/>
      <point x="320" y="0" type="line"/>
      <point x="320" y="-210" type="line" smooth="yes"/>
      <point x="320" y="-380"/>
      <point x="220" y="-460"/>
      <point x="50" y="-460" type="curve" smooth="yes"/>
      <point x="18" y="-460"/>
      <point x="-22" y="-449"/>
      <point x="-44" y="-436" type="curve"/>
    </contour>
  </outline>
</glyph>
<glyph name="uni0246" format="2">
  <advance width="1208"/>
  <unicode hex="0246"/>
  <outline>
    <contour>
      <point x="896" y="1660" type="line"/>
      <point x="1069" y="1660" type="line"/>
      <point x="312" y="-180" type="line"/>
      <point x="139" y="-180" type="line"/>
    </contour>
    <contour>
      <point x="973" y="824" type="line"/>
      <point x="973" y="656" type="line"/>
      <point x="330" y="656" type="line"/>
      <point x="330" y="168" type="line"/>
      <point x="1068" y="168" type="line"/>
      <point x="1068" y="0" type="line"/>
      <point x="140" y="0" type="line"/>
      <point x="140" y="1480" type="line"/>
      <point x="1068" y="1480" type="line"/>
      <point x="1068" y="1312" type="line"/>
      <point x="330" y="1312" type="line"/>
      <point x="330" y="824" type="line"/>
    </contour>
  </outline>
</glyph>
<glyph name="uni024C" format="2">
  <advance width="1258"/>
  <unicode hex="024C"/>
  <outline>
    <contour>
      <point x="320" y="572" type="line"/>
      <point x="320" y="740" type="line"/>
      <point x="0" y="740" type="line"/>
      <point x="0" y="694"/>
      <point x="0" y="618"/>
      <point x="0" y="572" type="curve"/>
    </contour>
    <contour>
      <point x="570" y="617" type="line"/>
      <point x="984" y="0" type="line"/>
      <point x="1198" y="0" type="line"/>
      <point x="700" y="740" type="line"/>
    </contour>
    <contour>
      <point x="400" y="1312" type="line"/>
      <point x="682" y="1312" type="line"/>
      <point x="847" y="1312"/>
      <point x="968" y="1191"/>
      <point x="968" y="1026" type="curve" smooth="yes"/>
      <point x="968" y="861"/>
      <point x="847" y="740"/>
      <point x="682" y="740" type="curve"/>
      <point x="400" y="740" type="line"/>
    </contour>
    <contour>
      <point x="210" y="0" type="line"/>
      <point x="400" y="0" type="line"/>
      <point x="400" y="572" type="line"/>
      <point x="682" y="572" type="line"/>
      <point x="937" y="572"/>
      <point x="1158" y="771"/>
      <point x="1158" y="1026" type="curve" smooth="yes"/>
      <point x="1158" y="1281"/>
      <point x="937" y="1480"/>
      <point x="682" y="1480" type="curve"/>
      <point x="210" y="1480" type="line"/>
    </contour>
  </outline>
</glyph>
<glyph name="uni0258" format="2">
  <advance width="1196"/>
  <unicode hex="0258"/>
  <outline>
    <contour>
      <point x="1022" y="600" type="line"/>
      <point x="216" y="600" type="line"/>
      <point x="286" y="440" type="line"/>
      <point x="1022" y="440" type="line"/>
    </contour>
    <contour>
      <point x="286" y="340" type="curve"/>
      <point x="133" y="252" type="line"/>
      <point x="216" y="74"/>
      <point x="399" y="-20"/>
      <point x="598" y="-20" type="curve" smooth="yes"/>
      <point x="879" y="-20"/>
      <point x="1096" y="208"/>
      <point x="1096" y="520" type="curve" smooth="yes"/>
      <point x="1096" y="832"/>
      <point x="879" y="1060"/>
      <point x="598" y="1060" type="curve" smooth="yes"/>
      <point x="317" y="1060"/>
      <point x="100" y="832"/>
      <point x="100" y="520" type="curve" smooth="yes"/>
      <point x="100" y="493"/>
      <point x="102" y="466"/>
      <point x="105" y="440" type="curve"/>
      <point x="286" y="440" type="line"/>
      <point x="282" y="466"/>
      <point x="280" y="492"/>
      <point x="280" y="520" type="curve" smooth="yes"/>
      <point x="280" y="740"/>
      <point x="407" y="900"/>
      <point x="598" y="900" type="curve" smooth="yes"/>
      <point x="789" y="900"/>
      <point x="916" y="740"/>
      <point x="916" y="520" type="curve" smooth="yes"/>
      <point x="916" y="300"/>
      <point x="789" y="140"/>
      <point x="598" y="140" type="curve" smooth="yes"/>
      <point x="457" y="140"/>
      <point x="335" y="207"/>
    </contour>
  </outline>
</glyph>
<glyph name="uni0260" format="2">
  <advance width="1238"/>
  <unicode hex="0260"/>
  <outline>
    <contour>
      <point x="1044" y="1040" type="curve"/>
      <point x="1044" y="1133"/>
      <point x="1104" y="1203"/>
      <point x="1194" y="1203" type="curve" smooth="yes"/>
      <point x="1210" y="1203"/>
      <point x="1225" y="1201"/>
      <point x="1238" y="1197" type="curve"/>
      <point x="1238" y="1360" type="line"/>
      <point x="1224" y="1362"/>
      <point x="1209" y="1363"/>
      <point x="1194" y="1363" type="curve" smooth="yes"/>
      <point x="1016" y="1363"/>
      <point x="872" y="1221"/>
      <point x="872" y="1040" type="curve"/>
      <point x="872" y="920" type="line"/>
      <point x="787" y="1005"/>
      <point x="703" y="1060"/>
      <point x="578" y="1060" type="curve" smooth="yes"/>
      <point x="297" y="1060"/>
      <point x="100" y="832"/>
      <point x="100" y="520" type="curve" smooth="yes"/>
      <point x="100" y="208"/>
      <point x="297" y="-20"/>
      <point x="578" y="-20" type="curve" smooth="yes"/>
      <point x="703" y="-20"/>
      <point x="779" y="35"/>
      <point x="864" y="120" type="curve"/>
      <point x="864" y="80" type="line" smooth="yes"/>
      <point x="864" y="-150"/>
      <point x="746" y="-300"/>
      <point x="566" y="-300" type="curve" smooth="yes"/>
      <point x="425" y="-300"/>
      <point x="324" y="-233"/>
      <point x="275" y="-100" type="curve"/>
      <point x="122" y="-188" type="line"/>
      <point x="205" y="-366"/>
      <point x="367" y="-460"/>
      <point x="566" y="-460" type="curve" smooth="yes"/>
      <point x="847" y="-460"/>
      <point x="1044" y="-250"/>
      <point x="1044" y="80" type="curve" smooth="yes"/>
      <point x="1044" y="872" type="line"/>
      <point x="1044" y="974"/>
      <point x="1044" y="1040"/>
    </contour>
    <contour>
      <point x="876" y="520" type="curve" smooth="yes"/>
      <point x="876" y="290"/>
      <point x="758" y="140"/>
      <point x="578" y="140" type="curve" smooth="yes"/>
      <point x="398" y="140"/>
      <point x="280" y="290"/>
      <point x="280" y="520" type="curve" smooth="yes"/>
      <point x="280" y="750"/>
      <point x="398" y="900"/>
      <point x="578" y="900" type="curve" smooth="yes"/>
      <point x="758" y="900"/>
      <point x="876" y="750"/>
    </contour>
  </outline>
</glyph>
<glyph name="uni0264" format="2">
  <advance width="1318"/>
  <unicode hex="0264"/>
  <anchor x="659" y="0" name="bottom_center"/>
  <anchor x="659" y="1040" name="top_center"/>
  <outline>
    <contour>
      <point x="403" y="806" type="line"/>
      <point x="370" y="863"/>
      <point x="315" y="899"/>
      <point x="257" y="899" type="curve" smooth="yes"/>
      <point x="233" y="899"/>
      <point x="209" y="893"/>
      <point x="186" y="880" type="curve" smooth="yes"/>
      <point x="172" y="872"/>
      <point x="160" y="863"/>
      <point x="151" y="853" type="curve"/>
      <point x="70" y="994" type="line"/>
      <point x="81" y="1003"/>
      <point x="93" y="1011"/>
      <point x="106" y="1019" type="curve" smooth="yes"/>
      <point x="154" y="1047"/>
      <point x="207" y="1060"/>
      <point x="260" y="1060" type="curve" smooth="yes"/>
      <point x="375" y="1060"/>
      <point x="487" y="998"/>
      <point x="549" y="890" type="curve"/>
      <point x="659" y="690" type="line"/>
      <point x="769" y="890" type="line"/>
      <point x="831" y="998"/>
      <point x="943" y="1060"/>
      <point x="1058" y="1060" type="curve" smooth="yes"/>
      <point x="1111" y="1060"/>
      <point x="1164" y="1047"/>
      <point x="1212" y="1019" type="curve" smooth="yes"/>
      <point x="1225" y="1011"/>
      <point x="1237" y="1003"/>
      <point x="1248" y="994" type="curve"/>
      <point x="1167" y="853" type="line"/>
      <point x="1158" y="863"/>
      <point x="1146" y="872"/>
      <point x="1132" y="880" type="curve" smooth="yes"/>
      <point x="1109" y="893"/>
      <point x="1085" y="899"/>
      <point x="1061" y="899" type="curve" smooth="yes"/>
      <point x="1003" y="899"/>
      <point x="948" y="863"/>
      <point x="915" y="806" type="curve"/>
      <point x="760" y="560" type="line"/>
      <point x="896" y="365" type="line"/>
      <point x="914" y="334"/>
      <point x="934" y="283"/>
      <point x="934" y="223" type="curve" smooth="yes"/>
      <point x="934" y="93"/>
      <point x="839" y="-20"/>
      <point x="659" y="-20" type="curve" smooth="yes"/>
      <point x="479" y="-20"/>
      <point x="384" y="93"/>
      <point x="384" y="223" type="curve" smooth="yes"/>
      <point x="384" y="283"/>
      <point x="411" y="334"/>
      <point x="429" y="365" type="curve"/>
      <point x="558" y="560" type="line"/>
    </contour>
    <contour>
      <point x="717" y="356" type="curve"/>
      <point x="659" y="426" type="line"/>
      <point x="607" y="356" type="line"/>
      <point x="588" y="327"/>
      <point x="564" y="292"/>
      <point x="564" y="252" type="curve" smooth="yes"/>
      <point x="564" y="191"/>
      <point x="596" y="140"/>
      <point x="659" y="140" type="curve" smooth="yes"/>
      <point x="722" y="140"/>
      <point x="754" y="191"/>
      <point x="754" y="252" type="curve" smooth="yes"/>
      <point x="754" y="292"/>
      <point x="736" y="326"/>
    </contour>
  </outline>
</glyph>
<glyph name="uni026B" format="2">
  <advance width="806"/>
  <unicode hex="026B"/>
  <outline>
    <contour>
      <point x="205" y="615" type="curve"/>
      <point x="66" y="652" type="line"/>
      <point x="82" y="788"/>
      <point x="172" y="878"/>
      <point x="280" y="878" type="curve" smooth="yes"/>
      <point x="412" y="878"/>
      <point x="446" y="742"/>
      <point x="526" y="742" type="curve" smooth="yes"/>
      <point x="574" y="742"/>
      <point x="596" y="805"/>
      <point x="601" y="865" type="curve"/>
      <point x="740" y="828" type="line"/>
      <point x="724" y="692"/>
      <point x="634" y="602"/>
      <point x="526" y="602" type="curve" smooth="yes"/>
      <point x="394" y="602"/>
      <point x="360" y="738"/>
      <point x="280" y="738" type="curve" smooth="yes"/>
      <point x="232" y="738"/>
      <point x="210" y="675"/>
    </contour>
    <contour>
      <point x="140" y="1480" type="line"/>
      <point x="666" y="1480" type="line"/>
      <point x="666" y="1312" type="line"/>
      <point x="498" y="1312" type="line"/>
      <point x="498" y="168" type="line"/>
      <point x="666" y="168" type="line"/>
      <point x="666" y="0" type="line"/>
      <point x="140" y="0" type="line"/>
      <point x="140" y="168" type="line"/>
      <point x="308" y="168" type="line"/>
      <point x="308" y="1312" type="line"/>
      <point x="140" y="1312" type="line"/>
    </contour>
  </outline>
</glyph>
<glyph name="uni0271" format="2">
  <advance width="1672"/>
  <unicode hex="0271"/>
  <outline>
    <contour>
      <point x="746" y="0" type="line"/>
      <point x="746" y="572" type="line" smooth="yes"/>
      <point x="746" y="791"/>
      <point x="693" y="900"/>
      <point x="533" y="900" type="curve" smooth="yes"/>
      <point x="373" y="900"/>
      <point x="320" y="791"/>
      <point x="320" y="572" type="curve" smooth="yes"/>
      <point x="320" y="0" type="line"/>
      <point x="140" y="0" type="line"/>
      <point x="140" y="1040" type="line"/>
      <point x="308" y="1040" type="line"/>
      <point x="308" y="920" type="line"/>
      <point x="393" y="1005"/>
      <point x="440" y="1060"/>
      <point x="565" y="1060" type="curve" smooth="yes"/>
      <point x="702" y="1060"/>
      <point x="804" y="1007"/>
      <point x="864" y="892" type="curve"/>
      <point x="930" y="1003"/>
      <point x="1037" y="1060"/>
      <point x="1171" y="1060" type="curve" smooth="yes"/>
      <point x="1401" y="1060"/>
      <point x="1532" y="912"/>
      <point x="1532" y="572" type="curve" smooth="yes"/>
      <point x="1532" y="0" type="line" smooth="yes"/>
      <point x="1532" y="-181"/>
      <point x="1380" y="-323"/>
      <point x="1202" y="-323" type="curve" smooth="yes"/>
      <point x="1187" y="-323"/>
      <point x="1172" y="-322"/>
      <point x="1158" y="-320" type="curve"/>
      <point x="1158" y="-157" type="line"/>
      <point x="1171" y="-161"/>
      <point x="1186" y="-163"/>
      <point x="1202" y="-163" type="curve" smooth="yes"/>
      <point x="1292" y="-163"/>
      <point x="1352" y="-93"/>
      <point x="1352" y="0" type="curve" smooth="yes"/>
      <point x="1352" y="572" type="line" smooth="yes"/>
      <point x="1352" y="791"/>
      <point x="1299" y="900"/>
      <point x="1139" y="900" type="curve" smooth="yes"/>
      <point x="979" y="900"/>
      <point x="926" y="791"/>
      <point x="926" y="572" type="curve" smooth="yes"/>
      <point x="926" y="0" type="line"/>
    </contour>
  </outline>
</glyph>
<glyph name="uni0274" format="2">
  <advance width="1159"/>
  <unicode hex="0274"/>
  <outline>
    <contour>
      <point x="320" y="1040" type="line"/>
      <point x="839" y="282" type="line"/>
      <point x="839" y="1040" type="line"/>
      <point x="1019" y="1040" type="line"/>
      <point x="1019" y="0" type="line"/>
      <point x="839" y="0" type="line"/>
      <point x="320" y="758" type="line"/>
      <point x="320" y="0" type="line"/>
      <point x="140" y="0" type="line"/>
      <point x="140" y="1040" type="line"/>
    </contour>
  </outline>
</glyph>
<glyph name="uni0276" format="2">
  <advance width="1837"/>
  <unicode hex="0276"/>
  <outline>
    <contour>
      <point x="1631" y="600" type="line"/>
      <point x="1631" y="440" type="line"/>
      <point x="1178" y="440" type="line"/>
      <point x="1178" y="160" type="line"/>
      <point x="1697" y="160" type="line"/>
      <point x="1697" y="0" type="line"/>
      <point x="998" y="0" type="line"/>
      <point x="998" y="1040" type="line"/>
      <point x="1697" y="1040" type="line"/>
      <point x="1697" y="880" type="line"/>
      <point x="1178" y="880" type="line"/>
      <point x="1178" y="600" type="line"/>
    </contour>
    <contour>
      <point x="140" y="520" type="curve" smooth="yes"/>
      <point x="140" y="816"/>
      <point x="363" y="1060"/>
      <point x="659" y="1060" type="curve" smooth="yes"/>
      <point x="955" y="1060"/>
      <point x="1178" y="816"/>
      <point x="1178" y="520" type="curve" smooth="yes"/>
      <point x="1178" y="224"/>
      <point x="955" y="-20"/>
      <point x="659" y="-20" type="curve" smooth="yes"/>
      <point x="363" y="-20"/>
      <point x="140" y="224"/>
    </contour>
    <contour>
      <point x="320" y="520" type="curve" smooth="yes"/>
      <point x="320" y="310"/>
      <point x="449" y="141"/>
      <point x="659" y="141" type="curve" smooth="yes"/>
      <point x="869" y="141"/>
      <point x="998" y="310"/>
      <point x="998" y="520" type="curve" smooth="yes"/>
      <point x="998" y="730"/>
      <point x="869" y="899"/>
      <point x="659" y="899" type="curve" smooth="yes"/>
      <point x="449" y="899"/>
      <point x="320" y="730"/>
    </contour>
  </outline>
</glyph>
<glyph name="uni027B" format="2">
  <advance width="851"/>
  <unicode hex="027B"/>
  <outline>
    <contour>
      <point x="489" y="0" type="curve"/>
      <point x="489" y="120" type="line"/>
      <point x="404" y="35"/>
      <point x="304" y="-20"/>
      <point x="179" y="-20" type="curve" smooth="yes"/>
      <point x="111" y="-20"/>
      <point x="56" y="-9"/>
      <point x="5" y="12" type="curve"/>
      <point x="53" y="191" type="line"/>
      <point x="96" y="157"/>
      <point x="148" y="140"/>
      <point x="219" y="140" type="curve" smooth="yes"/>
      <point x="399" y="140"/>
      <point x="477" y="249"/>
      <point x="477" y="468" type="curve" smooth="yes"/>
      <point x="477" y="1480" type="line"/>
      <point x="657" y="1480" type="line"/>
      <point x="657" y="0" type="line"/>
      <point x="657" y="-93"/>
      <point x="717" y="-163"/>
      <point x="807" y="-163" type="curve" smooth="yes"/>
      <point x="823" y="-163"/>
      <point x="838" y="-161"/>
      <point x="851" y="-157" type="curve"/>
      <point x="851" y="-320" type="line"/>
      <point x="837" y="-322"/>
      <point x="822" y="-323"/>
      <point x="807" y="-323" type="curve" smooth="yes"/>
      <point x="629" y="-323"/>
      <point x="489" y="-181"/>
    </contour>
  </outline>
</glyph>
<glyph name="uni027D" format="2">
  <advance width="797"/>
  <unicode hex="027D"/>
  <outline>
    <contour>
      <point x="320" y="-137" type="curve"/>
      <point x="320" y="572" type="line" smooth="yes"/>
      <point x="320" y="791"/>
      <point x="398" y="900"/>
      <point x="578" y="900" type="curve" smooth="yes"/>
      <point x="649" y="900"/>
      <point x="701" y="883"/>
      <point x="744" y="849" type="curve"/>
      <point x="792" y="1028" type="line"/>
      <point x="741" y="1049"/>
      <point x="686" y="1060"/>
      <point x="618" y="1060" type="curve" smooth="yes"/>
      <point x="493" y="1060"/>
      <point x="393" y="1005"/>
      <point x="308" y="920" type="curve"/>
      <point x="308" y="1040" type="line"/>
      <point x="140" y="1040" type="line"/>
      <point x="140" y="-137" type="line"/>
      <point x="140" y="-318"/>
      <point x="292" y="-460"/>
      <point x="470" y="-460" type="curve" smooth="yes"/>
      <point x="485" y="-460"/>
      <point x="500" y="-459"/>
      <point x="514" y="-457" type="curve"/>
      <point x="514" y="-294" type="line"/>
      <point x="501" y="-298"/>
      <point x="486" y="-300"/>
      <point x="470" y="-300" type="curve" smooth="yes"/>
      <point x="380" y="-300"/>
      <point x="320" y="-230"/>
    </contour>
  </outline>
</glyph>
<glyph name="uni027E" format="2">
  <advance width="509"/>
  <unicode hex="027E"/>
  <outline>
    <contour>
      <point x="462" y="884" type="curve"/>
      <point x="504" y="1036" type="line"/>
      <point x="482" y="1049"/>
      <point x="442" y="1060"/>
      <point x="410" y="1060" type="curve" smooth="yes"/>
      <point x="240" y="1060"/>
      <point x="140" y="980"/>
      <point x="140" y="810" type="curve" smooth="yes"/>
      <point x="140" y="600" type="line"/>
      <point x="140" y="462" type="line"/>
      <point x="140" y="0" type="line"/>
      <point x="320" y="0" type="line"/>
      <point x="320" y="462" type="line"/>
      <point x="320" y="600" type="line"/>
      <point x="320" y="810" type="line" smooth="yes"/>
      <point x="320" y="870"/>
      <point x="350" y="900"/>
      <point x="410" y="900" type="curve" smooth="yes"/>
      <point x="426" y="900"/>
      <point x="450" y="891"/>
    </contour>
  </outline>
</glyph>
<glyph name="uni0290" format="2">
  <advance width="1074"/>
  <unicode hex="0290"/>
  <outline>
    <contour>
      <point x="880" y="0" type="curve"/>
      <point x="880" y="160" type="line"/>
      <point x="264" y="160" type="line"/>
      <point x="140" y="144" type="line"/>
      <point x="140" y="0" type="line"/>
      <point x="700" y="0" type="line"/>
      <point x="700" y="-181"/>
      <point x="852" y="-323"/>
      <point x="1030" y="-323" type="curve" smooth="yes"/>
      <point x="1045" y="-323"/>
      <point x="1060" y="-322"/>
      <point x="1074" y="-320" type="curve"/>
      <point x="1074" y="-157" type="line"/>
      <point x="1061" y="-161"/>
      <point x="1046" y="-163"/>
      <point x="1030" y="-163" type="curve" smooth="yes"/>
      <point x="940" y="-163"/>
      <point x="880" y="-93"/>
    </contour>
    <contour>
      <point x="140" y="1040" type="line"/>
      <point x="140" y="880" type="line"/>
      <point x="786" y="880" type="line"/>
      <point x="880" y="896" type="line"/>
      <point x="880" y="1040" type="line"/>
    </contour>
    <contour>
      <point x="344" y="160" type="line"/>
      <point x="880" y="896" type="line"/>
      <point x="676" y="880" type="line"/>
      <point x="140" y="144" type="line"/>
    </contour>
  </outline>
</glyph>
<glyph name="uni0295" format="2">
  <advance width="1192"/>
  <unicode hex="0295"/>
  <outline>
    <contour>
      <point x="688" y="0" type="line"/>
      <point x="508" y="0" type="line"/>
      <point x="508" y="580" type="line"/>
      <point x="688" y="580" type="line"/>
    </contour>
    <contour>
      <point x="598" y="420" type="line"/>
      <point x="317" y="420"/>
      <point x="100" y="648"/>
      <point x="100" y="960" type="curve" smooth="yes"/>
      <point x="100" y="1272"/>
      <point x="298" y="1500"/>
      <point x="598" y="1500" type="curve" smooth="yes"/>
      <point x="868" y="1500"/>
      <point x="1061" y="1306"/>
      <point x="1092" y="1032" type="curve"/>
      <point x="916" y="978" type="line"/>
      <point x="910" y="1189"/>
      <point x="796" y="1340"/>
      <point x="598" y="1340" type="curve" smooth="yes"/>
      <point x="396" y="1340"/>
      <point x="280" y="1180"/>
      <point x="280" y="960" type="curve" smooth="yes"/>
      <point x="280" y="740"/>
      <point x="407" y="580"/>
      <point x="598" y="580" type="curve"/>
    </contour>
  </outline>
</glyph>
<glyph name="uni0296" format="2">
  <advance width="1192"/>
  <unicode hex="0296"/>
  <outline>
    <contour>
      <point x="504" y="1500" type="line"/>
      <point x="684" y="1500" type="line"/>
      <point x="684" y="920" type="line"/>
      <point x="504" y="920" type="line"/>
    </contour>
    <contour>
      <point x="594" y="1080" type="line"/>
      <point x="875" y="1080"/>
      <point x="1092" y="852"/>
      <point x="1092" y="540" type="curve" smooth="yes"/>
      <point x="1092" y="228"/>
      <point x="894" y="0"/>
      <point x="594" y="0" type="curve" smooth="yes"/>
      <point x="324" y="0"/>
      <point x="131" y="194"/>
      <point x="100" y="468" type="curve"/>
      <point x="276" y="522" type="line"/>
      <point x="282" y="311"/>
      <point x="396" y="160"/>
      <point x="594" y="160" type="curve" smooth="yes"/>
      <point x="796" y="160"/>
      <point x="912" y="320"/>
      <point x="912" y="540" type="curve" smooth="yes"/>
      <point x="912" y="760"/>
      <point x="785" y="920"/>
      <point x="594" y="920" type="curve"/>
    </contour>
  </outline>
</glyph>
<glyph name="uni029A" format="2">
  <advance width="1106"/>
  <unicode hex="029A"/>
  <outline>
    <contour>
      <point x="508" y="1060" type="curve" smooth="yes"/>
      <point x="293" y="1060"/>
      <point x="142" y="932"/>
      <point x="142" y="774" type="curve" smooth="yes"/>
      <point x="142" y="683"/>
      <point x="182" y="600"/>
      <point x="281" y="549" type="curve"/>
      <point x="156" y="493"/>
      <point x="100" y="398"/>
      <point x="100" y="290" type="curve" smooth="yes"/>
      <point x="100" y="117"/>
      <point x="269" y="-20"/>
      <point x="508" y="-20" type="curve" smooth="yes"/>
      <point x="789" y="-20"/>
      <point x="1006" y="208"/>
      <point x="1006" y="520" type="curve" smooth="yes"/>
      <point x="1006" y="832"/>
      <point x="789" y="1060"/>
    </contour>
    <contour>
      <point x="508" y="900" type="curve" smooth="yes"/>
      <point x="699" y="900"/>
      <point x="826" y="740"/>
      <point x="826" y="520" type="curve" smooth="yes"/>
      <point x="826" y="300"/>
      <point x="699" y="140"/>
      <point x="508" y="140" type="curve" smooth="yes"/>
      <point x="364" y="140"/>
      <point x="275" y="208"/>
      <point x="275" y="303" type="curve" smooth="yes"/>
      <point x="275" y="398"/>
      <point x="364" y="471"/>
      <point x="508" y="471" type="curve"/>
      <point x="557" y="471"/>
      <point x="573" y="471"/>
      <point x="573" y="471" type="curve"/>
      <point x="573" y="618" type="line"/>
      <point x="573" y="618"/>
      <point x="556" y="618"/>
      <point x="508" y="618" type="curve"/>
      <point x="387" y="618"/>
      <point x="317" y="680"/>
      <point x="317" y="762" type="curve" smooth="yes"/>
      <point x="317" y="844"/>
      <point x="387" y="900"/>
    </contour>
  </outline>
</glyph>
<glyph name="uni029E" format="2">
  <advance width="1094"/>
  <unicode hex="029E"/>
  <outline>
    <contour>
      <point x="677" y="918" type="line"/>
      <point x="568" y="778" type="line"/>
      <point x="70" y="1480" type="line"/>
      <point x="278" y="1480" type="line"/>
    </contour>
    <contour>
      <point x="774" y="1140" type="line"/>
      <point x="774" y="1480" type="line"/>
      <point x="954" y="1480" type="line"/>
      <point x="954" y="0" type="line"/>
      <point x="774" y="0" type="line"/>
      <point x="774" y="908" type="line"/>
      <point x="306" y="440" type="line"/>
      <point x="246" y="440"/>
      <point x="134" y="440"/>
      <point x="74" y="440" type="curve"/>
    </contour>
  </outline>
</glyph>
<glyph name="uni029F" format="2">
  <advance width="979"/>
  <unicode hex="029F"/>
  <outline>
    <contour>
      <point x="320" y="1040" type="line"/>
      <point x="320" y="160" type="line"/>
      <point x="839" y="160" type="line"/>
      <point x="839" y="0" type="line"/>
      <point x="140" y="0" type="line"/>
      <point x="140" y="1040" type="line"/>
    </contour>
  </outline>
</glyph>
<glyph name="uni02A8" format="2">
  <advance width="1787"/>
  <unicode hex="02A8"/>
  <outline>
    <contour>
      <point x="1387" y="452" type="curve" smooth="yes"/>
      <point x="1517" y="452"/>
      <point x="1627" y="368"/>
      <point x="1627" y="226" type="curve" smooth="yes"/>
      <point x="1627" y="84"/>
      <point x="1517" y="0"/>
      <point x="1387" y="0" type="curve" smooth="yes"/>
      <point x="1218" y="0" type="line" smooth="yes"/>
      <point x="937" y="0"/>
      <point x="720" y="208"/>
      <point x="720" y="520" type="curve" smooth="yes"/>
      <point x="720" y="832"/>
      <point x="937" y="1060"/>
      <point x="1218" y="1060" type="curve" smooth="yes"/>
      <point x="1417" y="1060"/>
      <point x="1604" y="966"/>
      <point x="1687" y="788" type="curve"/>
      <point x="1534" y="700" type="line"/>
      <point x="1485" y="833"/>
      <point x="1359" y="900"/>
      <point x="1218" y="900" type="curve" smooth="yes"/>
      <point x="1027" y="900"/>
      <point x="900" y="740"/>
      <point x="900" y="520" type="curve" smooth="yes"/>
      <point x="900" y="300"/>
      <point x="1027" y="160"/>
      <point x="1218" y="160" type="curve" smooth="yes"/>
      <point x="1387" y="160" type="line" smooth="yes"/>
      <point x="1423" y="160"/>
      <point x="1447" y="190"/>
      <point x="1447" y="226" type="curve" smooth="yes"/>
      <point x="1447" y="262"/>
      <point x="1423" y="292"/>
      <point x="1387" y="292" type="curve" smooth="yes"/>
      <point x="1087" y="292"/>
      <point x="1030" y="-20"/>
      <point x="630" y="-20" type="curve" smooth="yes"/>
      <point x="430" y="-20"/>
      <point x="260" y="101"/>
      <point x="260" y="300" type="curve" smooth="yes"/>
      <point x="260" y="880" type="line"/>
      <point x="50" y="880" type="line"/>
      <point x="50" y="1028" type="line"/>
      <point x="122" y="1028" type="line"/>
      <point x="212" y="1028"/>
      <point x="272" y="1092"/>
      <point x="272" y="1182" type="curve"/>
      <point x="272" y="1320" type="line"/>
      <point x="440" y="1320" type="line"/>
      <point x="440" y="1040" type="line"/>
      <point x="720" y="1040" type="line"/>
      <point x="720" y="880" type="line"/>
      <point x="440" y="880" type="line"/>
      <point x="440" y="300" type="line" smooth="yes"/>
      <point x="440" y="198"/>
      <point x="528" y="140"/>
      <point x="630" y="140" type="curve" smooth="yes"/>
      <point x="930" y="140"/>
      <point x="987" y="452"/>
    </contour>
  </outline>
</glyph>
<glyph name="uni02AA" format="2">
  <advance width="1300"/>
  <unicode hex="02AA"/>
  <outline>
    <contour>
      <point x="410" y="0" type="line" smooth="yes"/>
      <point x="240" y="0"/>
      <point x="140" y="60"/>
      <point x="140" y="230" type="curve" smooth="yes"/>
      <point x="140" y="440" type="line"/>
      <point x="140" y="578" type="line"/>
      <point x="140" y="1480" type="line"/>
      <point x="320" y="1480" type="line"/>
      <point x="320" y="578" type="line"/>
      <point x="320" y="440" type="line"/>
      <point x="320" y="230" type="line" smooth="yes"/>
      <point x="320" y="170"/>
      <point x="350" y="160"/>
      <point x="410" y="160" type="curve" smooth="yes"/>
      <point x="794" y="160" type="line" smooth="yes"/>
      <point x="944" y="160"/>
      <point x="1020" y="191"/>
      <point x="1020" y="281" type="curve" smooth="yes"/>
      <point x="1020" y="371"/>
      <point x="940" y="404"/>
      <point x="794" y="438" type="curve" smooth="yes"/>
      <point x="560" y="492"/>
      <point x="420" y="585"/>
      <point x="420" y="760" type="curve" smooth="yes"/>
      <point x="420" y="935"/>
      <point x="575" y="1060"/>
      <point x="794" y="1060" type="curve" smooth="yes"/>
      <point x="1013" y="1060"/>
      <point x="1141" y="953"/>
      <point x="1180" y="808" type="curve"/>
      <point x="1023" y="720" type="line"/>
      <point x="992" y="836"/>
      <point x="926" y="900"/>
      <point x="794" y="900" type="curve" smooth="yes"/>
      <point x="662" y="900"/>
      <point x="600" y="840"/>
      <point x="600" y="760" type="curve" smooth="yes"/>
      <point x="600" y="680"/>
      <point x="648" y="642"/>
      <point x="794" y="608" type="curve" smooth="yes"/>
      <point x="1028" y="554"/>
      <point x="1200" y="477"/>
      <point x="1200" y="281" type="curve" smooth="yes"/>
      <point x="1200" y="85"/>
      <point x="991" y="0"/>
      <point x="794" y="0" type="curve"/>
    </contour>
  </outline>
</glyph>
<glyph name="uni02AC" format="2">
  <advance width="1242"/>
  <unicode hex="02AC"/>
  <note>w size x0.625</note>
  <outline>
    <contour>
      <point x="691" y="650" type="line"/>
      <point x="842" y="166" type="line"/>
      <point x="988" y="650" type="line"/>
      <point x="1142" y="650" type="line"/>
      <point x="924" y="0" type="line"/>
      <point x="759" y="0" type="line"/>
      <point x="621" y="467" type="line"/>
      <point x="483" y="0" type="line"/>
      <point x="318" y="0" type="line"/>
      <point x="100" y="650" type="line"/>
      <point x="254" y="650" type="line"/>
      <point x="400" y="166" type="line"/>
      <point x="551" y="650" type="line"/>
    </contour>
    <contour>
      <point x="691" y="1480" type="line"/>
      <point x="842" y="996" type="line"/>
      <point x="988" y="1480" type="line"/>
      <point x="1142" y="1480" type="line"/>
      <point x="924" y="830" type="line"/>
      <point x="759" y="830" type="line"/>
      <point x="621" y="1297" type="line"/>
      <point x="483" y="830" type="line"/>
      <point x="318" y="830" type="line"/>
      <point x="100" y="1480" type="line"/>
      <point x="254" y="1480" type="line"/>
      <point x="400" y="996" type="line"/>
      <point x="551" y="1480" type="line"/>
    </contour>
  </outline>
</glyph>
<glyph name="uni02B7" format="2">
  <advance width="1056"/>
  <unicode hex="02B7"/>
  <outline>
    <contour>
      <point x="523" y="1228" type="line"/>
      <point x="378" y="810" type="line"/>
      <point x="249" y="810" type="line"/>
      <point x="40" y="1413" type="line"/>
      <point x="173" y="1413" type="line"/>
      <point x="323" y="980" type="line"/>
      <point x="468" y="1413" type="line"/>
      <point x="578" y="1413" type="line"/>
      <point x="733" y="980" type="line"/>
      <point x="883" y="1413" type="line"/>
      <point x="1016" y="1413" type="line"/>
      <point x="807" y="810" type="line"/>
      <point x="678" y="810" type="line"/>
    </contour>
  </outline>
</glyph>
<glyph name="uni02BA" format="2">
  <advance width="948"/>
  <unicode hex="02BA"/>
  <outline>
    <contour>
      <point x="652" y="1224" type="line"/>
      <point x="474" y="1224" type="line"/>
      <point x="652" y="1480" type="line"/>
      <point x="878" y="1480" type="line"/>
    </contour>
    <contour>
      <point x="248" y="1224" type="line"/>
      <point x="70" y="1224" type="line"/>
      <point x="248" y="1480" type="line"/>
      <point x="474" y="1480" type="line"/>
    </contour>
  </outline>
</glyph>
<glyph name="uni02C9" format="2">
  <advance width="750"/>
  <unicode hex="02C9"/>
  <outline>
    <contour>
      <point x="70" y="1224" type="line"/>
      <point x="70" y="1364" type="line"/>
      <point x="680" y="1364" type="line"/>
      <point x="680" y="1224" type="line"/>
    </contour>
  </outline>
</glyph>
<glyph name="ogonek" format="2">
  <advance width="492"/>
  <unicode hex="02DB"/>
  <outline>
    <contour>
      <point x="397" y="0" type="line"/>
      <point x="289" y="-78"/>
      <point x="197" y="-137"/>
      <point x="197" y="-204" type="curve" smooth="yes"/>
      <point x="197" y="-240"/>
      <point x="224" y="-263"/>
      <point x="260" y="-263" type="curve" smooth="yes"/>
      <point x="296" y="-263"/>
      <point x="330" y="-250"/>
      <point x="364" y="-225" type="curve"/>
      <point x="422" y="-326" type="line"/>
      <point x="367" y="-364"/>
      <point x="324" y="-380"/>
      <point x="260" y="-380" type="curve" smooth="yes"/>
      <point x="160" y="-380"/>
      <point x="70" y="-324"/>
      <point x="70" y="-204" type="curve" smooth="yes"/>
      <point x="70" y="-132"/>
      <point x="139" y="-56"/>
      <point x="206" y="0" type="curve"/>
    </contour>
  </outline>
</glyph>
<glyph name="uni02E1" format="2">
  <advance width="338"/>
  <unicode hex="02E1"/>
  <outline>
    <contour>
      <point x="303" y="927" type="curve"/>
      <point x="333" y="816" type="line"/>
      <point x="318" y="806"/>
      <point x="286" y="798"/>
      <point x="265" y="798" type="curve" smooth="yes"/>
      <point x="152" y="798"/>
      <point x="85" y="844"/>
      <point x="85" y="943" type="curve" smooth="yes"/>
      <point x="85" y="1065" type="line"/>
      <point x="85" y="1145" type="line"/>
      <point x="85" y="1668" type="line"/>
      <point x="220" y="1668" type="line"/>
      <point x="220" y="1163" type="line"/>
      <point x="220" y="1086" type="line"/>
      <point x="220" y="968" type="line" smooth="yes"/>
      <point x="220" y="934"/>
      <point x="238" y="918"/>
      <point x="273" y="918" type="curve" smooth="yes"/>
      <point x="282" y="918"/>
      <point x="296" y="923"/>
    </contour>
  </outline>
</glyph>
<glyph name="uni02E3" format="2">
  <advance width="672"/>
  <unicode hex="02E3"/>
  <outline>
    <contour>
      <point x="245" y="1112" type="line"/>
      <point x="40" y="1413" type="line"/>
      <point x="186" y="1413" type="line"/>
      <point x="336" y="1180" type="line"/>
      <point x="485" y="1413" type="line"/>
      <point x="632" y="1413" type="line"/>
      <point x="426" y="1112" type="line"/>
      <point x="632" y="810" type="line"/>
      <point x="485" y="810" type="line"/>
      <point x="334" y="1045" type="line"/>
      <point x="187" y="810" type="line"/>
      <point x="40" y="810" type="line"/>
    </contour>
  </outline>
</glyph>
<glyph name="dotbelowcomb" format="2">
  <advance width="0"/>
  <unicode hex="0323"/>
  <anchor x="642" y="0" name="_mkmk_bottom_center"/>
  <anchor x="642" y="-336" name="mkmk_bottom_center"/>
  <anchor x="642" y="0" name="_bottom_center"/>
  <outline>
    <contour>
      <point x="514" y="-332" type="curve" smooth="yes"/>
      <point x="514" y="-260"/>
      <point x="570" y="-204"/>
      <point x="642" y="-204" type="curve" smooth="yes"/>
      <point x="714" y="-204"/>
      <point x="770" y="-260"/>
      <point x="770" y="-332" type="curve" smooth="yes"/>
      <point x="770" y="-404"/>
      <point x="714" y="-460"/>
      <point x="642" y="-460" type="curve" smooth="yes"/>
      <point x="570" y="-460"/>
      <point x="514" y="-404"/>
    </contour>
  </outline>
</glyph>
<glyph name="uni0324" format="2">
  <advance width="0"/>
  <unicode hex="0324"/>
  <anchor x="642" y="0" name="_mkmk_bottom_center"/>
  <anchor x="642" y="-336" name="mkmk_bottom_center"/>
  <anchor x="642" y="0" name="_bottom_center"/>
  <outline>
    <contour>
      <point x="738" y="-332" type="curve" smooth="yes"/>
      <point x="738" y="-260"/>
      <point x="794" y="-204"/>
      <point x="866" y="-204" type="curve" smooth="yes"/>
      <point x="938" y="-204"/>
      <point x="994" y="-260"/>
      <point x="994" y="-332" type="curve" smooth="yes"/>
      <point x="994" y="-404"/>
      <point x="938" y="-460"/>
      <point x="866" y="-460" type="curve" smooth="yes"/>
      <point x="794" y="-460"/>
      <point x="738" y="-404"/>
    </contour>
    <contour>
      <point x="290" y="-332" type="curve" smooth="yes"/>
      <point x="290" y="-260"/>
      <point x="346" y="-204"/>
      <point x="418" y="-204" type="curve" smooth="yes"/>
      <point x="490" y="-204"/>
      <point x="546" y="-260"/>
      <point x="546" y="-332" type="curve" smooth="yes"/>
      <point x="546" y="-404"/>
      <point x="490" y="-460"/>
      <point x="418" y="-460" type="curve" smooth="yes"/>
      <point x="346" y="-460"/>
      <point x="290" y="-404"/>
    </contour>
  </outline>
</glyph>
<glyph name="uni0325" format="2">
  <advance width="0"/>
  <unicode hex="0325"/>
  <anchor x="642" y="0" name="_mkmk_bottom_center"/>
  <anchor x="642" y="-394" name="mkmk_bottom_center"/>
  <anchor x="642" y="0" name="_bottom_center"/>
  <outline>
    <contour>
      <point x="434" y="-307" type="curve" smooth="yes"/>
      <point x="434" y="-197"/>
      <point x="532" y="-110"/>
      <point x="642" y="-110" type="curve" smooth="yes"/>
      <point x="752" y="-110"/>
      <point x="850" y="-197"/>
      <point x="850" y="-307" type="curve" smooth="yes"/>
      <point x="850" y="-417"/>
      <point x="752" y="-504"/>
      <point x="642" y="-504" type="curve" smooth="yes"/>
      <point x="532" y="-504"/>
      <point x="434" y="-417"/>
    </contour>
    <contour>
      <point x="562" y="-307" type="curve" smooth="yes"/>
      <point x="562" y="-353"/>
      <point x="596" y="-387"/>
      <point x="642" y="-387" type="curve" smooth="yes"/>
      <point x="688" y="-387"/>
      <point x="722" y="-353"/>
      <point x="722" y="-307" type="curve" smooth="yes"/>
      <point x="722" y="-261"/>
      <point x="688" y="-227"/>
      <point x="642" y="-227" type="curve" smooth="yes"/>
      <point x="596" y="-227"/>
      <point x="562" y="-261"/>
    </contour>
  </outline>
</glyph>
<glyph name="uni0329" format="2">
  <advance width="0"/>
  <unicode hex="0329"/>
  <anchor x="642" y="0" name="_bottom_center"/>
  <anchor x="642" y="-220" name="mkmk_bottom_center"/>
  <anchor x="642" y="0" name="_mkmk_bottom_center"/>
  <outline>
    <contour>
      <point x="731" y="-440" type="line"/>
      <point x="553" y="-440" type="line"/>
      <point x="553" y="-184" type="line"/>
      <point x="731" y="-184" type="line"/>
    </contour>
  </outline>
</glyph>
<glyph name="uni032E" format="2">
  <advance width="0"/>
  <unicode hex="032E"/>
  <anchor x="642" y="0" name="_mkmk_bottom_center"/>
  <anchor x="642" y="-336" name="mkmk_bottom_center"/>
  <anchor x="642" y="0" name="_bottom_center"/>
  <outline>
    <contour>
      <point x="643" y="-450" type="curve" smooth="yes"/>
      <point x="493" y="-450"/>
      <point x="363" y="-324"/>
      <point x="363" y="-184" type="curve"/>
      <point x="523" y="-184" type="line"/>
      <point x="523" y="-250"/>
      <point x="577" y="-310"/>
      <point x="643" y="-310" type="curve" smooth="yes"/>
      <point x="709" y="-310"/>
      <point x="763" y="-250"/>
      <point x="763" y="-184" type="curve"/>
      <point x="923" y="-184" type="line"/>
      <point x="923" y="-324"/>
      <point x="793" y="-450"/>
    </contour>
  </outline>
</glyph>
<glyph name="uni0332" format="2">
  <advance width="0"/>
  <unicode hex="0332"/>
  <anchor x="642" y="0" name="_mkmk_bottom_center"/>
  <anchor x="642" y="-220" name="mkmk_bottom_center"/>
  <anchor x="642" y="0" name="_bottom_center"/>
  <outline>
    <contour>
      <point x="184" y="-324" type="line"/>
      <point x="184" y="-184" type="line"/>
      <point x="1100" y="-184" type="line"/>
      <point x="1100" y="-324" type="line"/>
    </contour>
  </outline>
</glyph>
<glyph name="uni0337" format="2">
  <advance width="0"/>
  <unicode hex="0337"/>
  <anchor x="642" y="740" name="_middle_center"/>
  <outline>
    <contour>
      <point x="1048" y="1156" type="line"/>
      <point x="1176" y="1060" type="line"/>
      <point x="260" y="-116" type="line"/>
      <point x="132" y="-20" type="line"/>
    </contour>
  </outline>
</glyph>
<glyph name="uni0375" format="2">
  <advance width="544"/>
  <unicode hex="0375"/>
  <outline>
    <contour>
      <point x="296" y="0" type="line"/>
      <point x="474" y="0" type="line"/>
      <point x="296" y="-256" type="line"/>
      <point x="70" y="-256" type="line"/>
    </contour>
  </outline>
</glyph>
<glyph name="Xi" format="2">
  <advance width="1208"/>
  <unicode hex="039E"/>
  <anchor x="604" y="1380" name="top_center"/>
  <anchor x="604" y="0" name="bottom_center"/>
  <outline>
    <contour>
      <point x="140" y="1480" type="line"/>
      <point x="1068" y="1480" type="line"/>
      <point x="1068" y="1312" type="line"/>
      <point x="140" y="1312" type="line"/>
    </contour>
    <contour>
      <point x="235" y="824" type="line"/>
      <point x="973" y="824" type="line"/>
      <point x="973" y="656" type="line"/>
      <point x="235" y="656" type="line"/>
    </contour>
    <contour>
      <point x="140" y="168" type="line"/>
      <point x="1068" y="168" type="line"/>
      <point x="1068" y="0" type="line"/>
      <point x="140" y="0" type="line"/>
    </contour>
  </outline>
</glyph>
<glyph name="Sigma" format="2">
  <advance width="1208"/>
  <unicode hex="03A3"/>
  <anchor x="604" y="1380" name="top_center"/>
  <anchor x="604" y="0" name="bottom_center"/>
  <outline>
    <contour>
      <point x="783" y="740" type="line"/>
      <point x="352" y="168" type="line"/>
      <point x="1068" y="168" type="line"/>
      <point x="1068" y="0" type="line"/>
      <point x="140" y="0" type="line"/>
      <point x="140" y="168" type="line"/>
      <point x="571" y="740" type="line"/>
      <point x="140" y="1312" type="line"/>
      <point x="140" y="1480" type="line"/>
      <point x="1068" y="1480" type="line"/>
      <point x="1068" y="1312" type="line"/>
      <point x="352" y="1312" type="line"/>
    </contour>
  </outline>
</glyph>
<glyph name="nu" format="2">
  <advance width="1060"/>
  <unicode hex="03BD"/>
  <anchor x="530" y="1040" name="top_center"/>
  <anchor x="530" y="0" name="bottom_center"/>
  <outline>
    <contour>
      <point x="530" y="224" type="line"/>
      <point x="798" y="1040" type="line"/>
      <point x="990" y="1040" type="line"/>
      <point x="629" y="0" type="line"/>
      <point x="431" y="0" type="line"/>
      <point x="70" y="1040" type="line"/>
      <point x="262" y="1040" type="line"/>
    </contour>
  </outline>
</glyph>
<glyph name="rho" format="2">
  <advance width="1184"/>
  <unicode hex="03C1"/>
  <anchor x="606" y="1040" name="greek_t"/>
  <anchor x="606" y="1040" name="greek_k"/>
  <anchor x="606" y="1040" name="greek_kt"/>
  <anchor x="606" y="1040" name="greek_v"/>
  <anchor x="606" y="1040" name="top_center"/>
  <anchor x="230" y="-361" name="bottom_center"/>
  <outline>
    <contour>
      <point x="128" y="520" type="line" smooth="yes"/>
      <point x="128" y="832"/>
      <point x="325" y="1060"/>
      <point x="606" y="1060" type="curve" smooth="yes"/>
      <point x="887" y="1060"/>
      <point x="1084" y="832"/>
      <point x="1084" y="520" type="curve" smooth="yes"/>
      <point x="1084" y="208"/>
      <point x="887" y="-20"/>
      <point x="606" y="-20" type="curve" smooth="yes"/>
      <point x="481" y="-20"/>
      <point x="393" y="35"/>
      <point x="308" y="120" type="curve"/>
      <point x="308" y="-440" type="line"/>
      <point x="128" y="-440" type="line"/>
    </contour>
    <contour>
      <point x="308" y="520" type="curve" smooth="yes"/>
      <point x="308" y="290"/>
      <point x="426" y="140"/>
      <point x="606" y="140" type="curve" smooth="yes"/>
      <point x="786" y="140"/>
      <point x="904" y="290"/>
      <point x="904" y="520" type="curve" smooth="yes"/>
      <point x="904" y="750"/>
      <point x="786" y="900"/>
      <point x="606" y="900" type="curve" smooth="yes"/>
      <point x="426" y="900"/>
      <point x="308" y="750"/>
    </contour>
  </outline>
</glyph>
<glyph name="uni03D0" format="2">
  <advance width="1176"/>
  <unicode hex="03D0"/>
  <anchor x="557" y="1380" name="top_center"/>
  <anchor x="602" y="0" name="bottom_center"/>
  <outline>
    <contour>
      <point x="602" y="140" type="curve" smooth="yes"/>
      <point x="802" y="140"/>
      <point x="896" y="260"/>
      <point x="896" y="416" type="curve" smooth="yes"/>
      <point x="896" y="572"/>
      <point x="749" y="692"/>
      <point x="549" y="692" type="curve"/>
      <point x="549" y="832" type="line"/>
      <point x="849" y="832"/>
      <point x="1076" y="671"/>
      <point x="1076" y="416" type="curve" smooth="yes"/>
      <point x="1076" y="161"/>
      <point x="901" y="-20"/>
      <point x="602" y="-20" type="curve" smooth="yes"/>
      <point x="322" y="-20"/>
      <point x="100" y="222"/>
      <point x="100" y="772" type="curve" smooth="yes"/>
      <point x="100" y="1322"/>
      <point x="327" y="1500"/>
      <point x="557" y="1500" type="curve" smooth="yes"/>
      <point x="812" y="1500"/>
      <point x="986" y="1337"/>
      <point x="986" y="1082" type="curve" smooth="yes"/>
      <point x="986" y="827"/>
      <point x="693" y="672"/>
      <point x="398" y="672" type="curve"/>
      <point x="398" y="832" type="line"/>
      <point x="638" y="832"/>
      <point x="806" y="932"/>
      <point x="806" y="1082" type="curve" smooth="yes"/>
      <point x="806" y="1252"/>
      <point x="707" y="1340"/>
      <point x="557" y="1340" type="curve" smooth="yes"/>
      <point x="417" y="1340"/>
      <point x="280" y="1222"/>
      <point x="280" y="772" type="curve" smooth="yes"/>
      <point x="280" y="322"/>
      <point x="427" y="140"/>
    </contour>
    <contour>
      <point x="197" y="672" type="line"/>
      <point x="197" y="832" type="line"/>
      <point x="398" y="832" type="line"/>
      <point x="398" y="672" type="line"/>
    </contour>
  </outline>
</glyph>
<glyph name="omega1" format="2">
  <advance width="1670"/>
  <unicode hex="03D6"/>
  <outline>
    <contour>
      <point x="1570" y="880" type="line"/>
      <point x="100" y="880" type="line"/>
      <point x="100" y="1040" type="line"/>
      <point x="1570" y="1040" type="line"/>
    </contour>
    <contour>
      <point x="262" y="964" type="curve"/>
      <point x="478" y="963" type="line"/>
      <point x="398" y="856"/>
      <point x="325" y="731"/>
      <point x="325" y="468" type="curve" smooth="yes"/>
      <point x="325" y="288"/>
      <point x="378" y="140"/>
      <point x="538" y="140" type="curve" smooth="yes"/>
      <point x="698" y="140"/>
      <point x="751" y="290"/>
      <point x="751" y="520" type="curve"/>
      <point x="885" y="520" type="line"/>
      <point x="885" y="70"/>
      <point x="736" y="-20"/>
      <point x="506" y="-20" type="curve" smooth="yes"/>
      <point x="276" y="-20"/>
      <point x="145" y="198"/>
      <point x="145" y="468" type="curve" smooth="yes"/>
      <point x="145" y="718"/>
      <point x="202" y="867"/>
    </contour>
    <contour>
      <point x="1410" y="960" type="line"/>
      <point x="1469" y="862"/>
      <point x="1525" y="715"/>
      <point x="1525" y="468" type="curve" smooth="yes"/>
      <point x="1525" y="198"/>
      <point x="1394" y="-20"/>
      <point x="1164" y="-20" type="curve" smooth="yes"/>
      <point x="934" y="-20"/>
      <point x="785" y="70"/>
      <point x="785" y="520" type="curve"/>
      <point x="919" y="520" type="line"/>
      <point x="919" y="290"/>
      <point x="972" y="140"/>
      <point x="1132" y="140" type="curve" smooth="yes"/>
      <point x="1292" y="140"/>
      <point x="1345" y="288"/>
      <point x="1345" y="468" type="curve" smooth="yes"/>
      <point x="1345" y="729"/>
      <point x="1272" y="855"/>
      <point x="1193" y="961" type="curve"/>
    </contour>
  </outline>
</glyph>
<glyph name="uni03D8" format="2">
  <advance width="1602"/>
  <unicode hex="03D8"/>
  <outline>
    <contour>
      <point x="706" y="0" type="line"/>
      <point x="896" y="0" type="line"/>
      <point x="896" y="-300" type="line"/>
      <point x="706" y="-300" type="line"/>
    </contour>
    <contour>
      <point x="290" y="740" type="curve" smooth="yes"/>
      <point x="290" y="390"/>
      <point x="511" y="148"/>
      <point x="801" y="148" type="curve" smooth="yes"/>
      <point x="1091" y="148"/>
      <point x="1312" y="390"/>
      <point x="1312" y="740" type="curve" smooth="yes"/>
      <point x="1312" y="1090"/>
      <point x="1091" y="1332"/>
      <point x="801" y="1332" type="curve" smooth="yes"/>
      <point x="511" y="1332"/>
      <point x="290" y="1090"/>
    </contour>
    <contour>
      <point x="100" y="740" type="curve" smooth="yes"/>
      <point x="100" y="1179"/>
      <point x="406" y="1500"/>
      <point x="801" y="1500" type="curve" smooth="yes"/>
      <point x="1196" y="1500"/>
      <point x="1502" y="1179"/>
      <point x="1502" y="740" type="curve" smooth="yes"/>
      <point x="1502" y="301"/>
      <point x="1196" y="-20"/>
      <point x="801" y="-20" type="curve" smooth="yes"/>
      <point x="406" y="-20"/>
      <point x="100" y="301"/>
    </contour>
  </outline>
</glyph>
<glyph name="uni03DB" format="2">
  <advance width="1085"/>
  <unicode hex="03DB"/>
  <anchor x="598" y="1040" name="top_center"/>
  <anchor x="598" y="0" name="bottom_center"/>
  <outline>
    <contour>
      <point x="953" y="1040" type="line"/>
      <point x="953" y="880" type="line"/>
      <point x="598" y="880" type="line"/>
      <point x="407" y="880"/>
      <point x="280" y="740"/>
      <point x="280" y="520" type="curve" smooth="yes"/>
      <point x="280" y="300"/>
      <point x="407" y="160"/>
      <point x="598" y="159" type="curve"/>
      <point x="735" y="159" type="line"/>
      <point x="855" y="156"/>
      <point x="985" y="79"/>
      <point x="985" y="-91" type="curve" smooth="yes"/>
      <point x="985" y="-123"/>
      <point x="974" y="-168"/>
      <point x="961" y="-190" type="curve"/>
      <point x="789" y="-143" type="line"/>
      <point x="796" y="-131"/>
      <point x="805" y="-107"/>
      <point x="805" y="-91" type="curve" smooth="yes"/>
      <point x="805" y="-31"/>
      <point x="768" y="0"/>
      <point x="715" y="0" type="curve"/>
      <point x="598" y="0" type="line"/>
      <point x="317" y="0"/>
      <point x="100" y="208"/>
      <point x="100" y="520" type="curve" smooth="yes"/>
      <point x="100" y="832"/>
      <point x="317" y="1040"/>
      <point x="598" y="1040" type="curve"/>
    </contour>
  </outline>
</glyph>
<glyph name="uni03E0" format="2">
  <advance width="1514"/>
  <unicode hex="03E0"/>
  <outline>
    <contour>
      <point x="1233" y="1200" type="line"/>
      <point x="963" y="1200"/>
      <point x="825" y="1032"/>
      <point x="825" y="712" type="curve"/>
      <point x="825" y="440" type="line"/>
      <point x="1015" y="440" type="line"/>
      <point x="1015" y="712" type="line" smooth="yes"/>
      <point x="1015" y="931"/>
      <point x="1093" y="1032"/>
      <point x="1273" y="1032" type="curve"/>
    </contour>
    <contour>
      <point x="455" y="1357" type="line"/>
      <point x="455" y="740" type="line"/>
      <point x="645" y="740" type="line"/>
      <point x="645" y="1357" type="line"/>
    </contour>
    <contour>
      <point x="875" y="0" type="curve"/>
      <point x="1036" y="-92" type="line"/>
      <point x="1145" y="0"/>
      <point x="1414" y="301"/>
      <point x="1414" y="740" type="curve" smooth="yes"/>
      <point x="1414" y="1179"/>
      <point x="1108" y="1500"/>
      <point x="713" y="1500" type="curve" smooth="yes"/>
      <point x="445" y="1500"/>
      <point x="218" y="1352"/>
      <point x="100" y="1120" type="curve"/>
      <point x="261" y="1028" type="line"/>
      <point x="344" y="1215"/>
      <point x="512" y="1332"/>
      <point x="713" y="1332" type="curve" smooth="yes"/>
      <point x="1003" y="1332"/>
      <point x="1224" y="1090"/>
      <point x="1224" y="740" type="curve" smooth="yes"/>
      <point x="1224" y="290"/>
      <point x="953" y="66"/>
    </contour>
  </outline>
</glyph>
<glyph name="uni03EE" format="2">
  <advance width="1310"/>
  <unicode hex="03EE"/>
  <outline>
    <contour>
      <point x="750" y="1480" type="line"/>
      <point x="750" y="1040" type="line"/>
      <point x="1240" y="1040" type="line"/>
      <point x="1240" y="716" type="line"/>
      <point x="1050" y="716" type="line"/>
      <point x="1050" y="872" type="line"/>
      <point x="750" y="872" type="line"/>
      <point x="750" y="-440" type="line"/>
      <point x="560" y="-440" type="line"/>
      <point x="560" y="872" type="line"/>
      <point x="260" y="872" type="line"/>
      <point x="260" y="716" type="line"/>
      <point x="70" y="716" type="line"/>
      <point x="70" y="1040" type="line"/>
      <point x="560" y="1040" type="line"/>
      <point x="560" y="1480" type="line"/>
    </contour>
  </outline>
</glyph>
<glyph name="uni03EF" format="2">
  <advance width="1000"/>
  <unicode hex="03EF"/>
  <outline>
    <contour>
      <point x="590" y="1480" type="line"/>
      <point x="590" y="1040" type="line"/>
      <point x="930" y="1040" type="line"/>
      <point x="930" y="720" type="line"/>
      <point x="750" y="720" type="line"/>
      <point x="750" y="880" type="line"/>
      <point x="590" y="880" type="line"/>
      <point x="590" y="-440" type="line"/>
      <point x="410" y="-440" type="line"/>
      <point x="410" y="880" type="line"/>
      <point x="250" y="880" type="line"/>
      <point x="250" y="720" type="line"/>
      <point x="70" y="720" type="line"/>
      <point x="70" y="1040" type="line"/>
      <point x="410" y="1040" type="line"/>
      <point x="410" y="1480" type="line"/>
    </contour>
  </outline>
</glyph>
<glyph name="uni03F4" format="2">
  <advance width="1602"/>
  <unicode hex="03F4"/>
  <outline>
    <contour>
      <point x="290" y="740" type="curve" smooth="yes"/>
      <point x="290" y="390"/>
      <point x="511" y="148"/>
      <point x="801" y="148" type="curve" smooth="yes"/>
      <point x="1091" y="148"/>
      <point x="1312" y="390"/>
      <point x="1312" y="740" type="curve" smooth="yes"/>
      <point x="1312" y="1090"/>
      <point x="1091" y="1332"/>
      <point x="801" y="1332" type="curve" smooth="yes"/>
      <point x="511" y="1332"/>
      <point x="290" y="1090"/>
    </contour>
    <contour>
      <point x="100" y="740" type="curve" smooth="yes"/>
      <point x="100" y="1179"/>
      <point x="406" y="1500"/>
      <point x="801" y="1500" type="curve" smooth="yes"/>
      <point x="1196" y="1500"/>
      <point x="1502" y="1179"/>
      <point x="1502" y="740" type="curve" smooth="yes"/>
      <point x="1502" y="301"/>
      <point x="1196" y="-20"/>
      <point x="801" y="-20" type="curve" smooth="yes"/>
      <point x="406" y="-20"/>
      <point x="100" y="301"/>
    </contour>
    <contour>
      <point x="239" y="824" type="line"/>
      <point x="801" y="824" type="line"/>
      <point x="1343" y="824" type="line"/>
      <point x="1343" y="656" type="line"/>
      <point x="801" y="656" type="line"/>
      <point x="239" y="656" type="line"/>
    </contour>
  </outline>
</glyph>
<glyph name="uni03F5" format="2">
  <advance width="1058"/>
  <unicode hex="03F5"/>
  <outline>
    <contour>
      <point x="174" y="600" type="line"/>
      <point x="174" y="440" type="line"/>
      <point x="785" y="440" type="line"/>
      <point x="785" y="600" type="line"/>
    </contour>
    <contour>
      <point x="599" y="139" type="curve" smooth="yes"/>
      <point x="407" y="140"/>
      <point x="280" y="300"/>
      <point x="280" y="520" type="curve" smooth="yes"/>
      <point x="280" y="740"/>
      <point x="407" y="900"/>
      <point x="598" y="900" type="curve" smooth="yes"/>
      <point x="778" y="900"/>
      <point x="875" y="794"/>
      <point x="875" y="794" type="curve"/>
      <point x="957" y="935" type="line"/>
      <point x="957" y="935"/>
      <point x="842" y="1059"/>
      <point x="597" y="1059" type="curve" smooth="yes"/>
      <point x="316" y="1059"/>
      <point x="100" y="832"/>
      <point x="100" y="520" type="curve" smooth="yes"/>
      <point x="100" y="208"/>
      <point x="317" y="-20"/>
      <point x="598" y="-20" type="curve" smooth="yes"/>
      <point x="843" y="-20"/>
      <point x="958" y="104"/>
      <point x="958" y="104" type="curve"/>
      <point x="876" y="245" type="line"/>
      <point x="876" y="245"/>
      <point x="779" y="139"/>
    </contour>
  </outline>
</glyph>
<glyph name="uni03FD" format="2">
  <advance width="1514"/>
  <unicode hex="03FD"/>
  <outline>
    <contour>
      <point x="261" y="1028" type="line"/>
      <point x="344" y="1215"/>
      <point x="512" y="1332"/>
      <point x="713" y="1332" type="curve" smooth="yes"/>
      <point x="1003" y="1332"/>
      <point x="1224" y="1090"/>
      <point x="1224" y="740" type="curve" smooth="yes"/>
      <point x="1224" y="390"/>
      <point x="1003" y="148"/>
      <point x="713" y="148" type="curve" smooth="yes"/>
      <point x="512" y="148"/>
      <point x="344" y="265"/>
      <point x="261" y="452" type="curve"/>
      <point x="100" y="360" type="line"/>
      <point x="218" y="128"/>
      <point x="445" y="-20"/>
      <point x="713" y="-20" type="curve" smooth="yes"/>
      <point x="1108" y="-20"/>
      <point x="1414" y="301"/>
      <point x="1414" y="740" type="curve" smooth="yes"/>
      <point x="1414" y="1179"/>
      <point x="1108" y="1500"/>
      <point x="713" y="1500" type="curve" smooth="yes"/>
      <point x="445" y="1500"/>
      <point x="218" y="1352"/>
      <point x="100" y="1120" type="curve"/>
    </contour>
  </outline>
</glyph>
<glyph name="uni041B" format="2">
  <advance width="1328"/>
  <unicode hex="041B"/>
  <anchor x="781" y="0" name="bottom_center"/>
  <anchor x="781" y="1380" name="top_center"/>
  <outline>
    <contour>
      <point x="1188" y="1480" type="line"/>
      <point x="1188" y="0" type="line"/>
      <point x="998" y="0" type="line"/>
      <point x="998" y="1311" type="line"/>
      <point x="543" y="1311" type="line"/>
      <point x="484" y="520" type="line" smooth="yes"/>
      <point x="455" y="121"/>
      <point x="243" y="-20"/>
      <point x="70" y="-20" type="curve"/>
      <point x="70" y="148" type="line"/>
      <point x="155" y="148"/>
      <point x="269" y="221"/>
      <point x="294" y="520" type="curve" smooth="yes"/>
      <point x="373" y="1480" type="line"/>
    </contour>
  </outline>
</glyph>
<glyph name="uni0424" format="2">
  <advance width="1602"/>
  <unicode hex="0424"/>
  <anchor x="801" y="1380" name="top_center"/>
  <anchor x="801" y="0" name="bottom_center"/>
  <outline>
    <contour>
      <point x="290" y="740" type="curve" smooth="yes"/>
      <point x="290" y="430"/>
      <point x="511" y="328"/>
      <point x="801" y="328" type="curve" smooth="yes"/>
      <point x="1091" y="328"/>
      <point x="1312" y="430"/>
      <point x="1312" y="740" type="curve" smooth="yes"/>
      <point x="1312" y="1050"/>
      <point x="1091" y="1152"/>
      <point x="801" y="1152" type="curve" smooth="yes"/>
      <point x="511" y="1152"/>
      <point x="290" y="1050"/>
    </contour>
    <contour>
      <point x="100" y="740" type="curve" smooth="yes"/>
      <point x="100" y="1139"/>
      <point x="406" y="1320"/>
      <point x="801" y="1320" type="curve" smooth="yes"/>
      <point x="1196" y="1320"/>
      <point x="1502" y="1139"/>
      <point x="1502" y="740" type="curve" smooth="yes"/>
      <point x="1502" y="341"/>
      <point x="1196" y="160"/>
      <point x="801" y="160" type="curve" smooth="yes"/>
      <point x="406" y="160"/>
      <point x="100" y="341"/>
    </contour>
    <contour>
      <point x="706" y="0" type="line"/>
      <point x="706" y="1480" type="line"/>
      <point x="896" y="1480" type="line"/>
      <point x="896" y="0" type="line"/>
    </contour>
  </outline>
</glyph>
<glyph name="uni0426" format="2">
  <advance width="1448"/>
  <unicode hex="0426"/>
  <anchor x="699" y="0" name="bottom_center"/>
  <anchor x="699" y="1380" name="top_center"/>
  <outline>
    <contour>
      <point x="1168" y="167" type="line"/>
      <point x="1448" y="167" type="line"/>
      <point x="1448" y="-300" type="line"/>
      <point x="1258" y="-300" type="line"/>
      <point x="1258" y="0" type="line"/>
      <point x="1168" y="0" type="line"/>
    </contour>
    <contour>
      <point x="140" y="0" type="line"/>
      <point x="140" y="1480" type="line"/>
      <point x="330" y="1480" type="line"/>
      <point x="330" y="168" type="line"/>
      <point x="1068" y="168" type="line"/>
      <point x="1068" y="1480" type="line"/>
      <point x="1258" y="1480" type="line"/>
      <point x="1258" y="0" type="line"/>
    </contour>
  </outline>
</glyph>
<glyph name="uni0429" format="2">
  <advance width="2066"/>
  <unicode hex="0429"/>
  <anchor x="973" y="0" name="bottom_center"/>
  <anchor x="973" y="1380" name="top_center"/>
  <outline>
    <contour>
      <point x="1716" y="167" type="line"/>
      <point x="1996" y="167" type="line"/>
      <point x="1996" y="-300" type="line"/>
      <point x="1806" y="-300" type="line"/>
      <point x="1806" y="0" type="line"/>
      <point x="1716" y="0" type="line"/>
    </contour>
    <contour>
      <point x="140" y="1480" type="line"/>
      <point x="330" y="1480" type="line"/>
      <point x="330" y="168" type="line"/>
      <point x="878" y="168" type="line"/>
      <point x="878" y="0" type="line"/>
      <point x="510" y="0" type="line"/>
      <point x="140" y="0" type="line"/>
    </contour>
    <contour>
      <point x="878" y="1480" type="line"/>
      <point x="1068" y="1480" type="line"/>
      <point x="1068" y="168" type="line"/>
      <point x="1616" y="168" type="line"/>
      <point x="1616" y="1480" type="line"/>
      <point x="1806" y="1480" type="line"/>
      <point x="1806" y="0" type="line"/>
      <point x="1616" y="0" type="line"/>
      <point x="1068" y="0" type="line"/>
      <point x="878" y="0" type="line"/>
    </contour>
  </outline>
</glyph>
<glyph name="uni042A" format="2">
  <advance width="1553"/>
  <unicode hex="042A"/>
  <anchor x="853" y="0" name="bottom_center"/>
  <anchor x="460" y="1380" name="top_center"/>
  <outline>
    <contour>
      <point x="555" y="1480" type="line"/>
      <point x="555" y="856" type="line"/>
      <point x="943" y="856" type="line"/>
      <point x="1263" y="856"/>
      <point x="1453" y="671"/>
      <point x="1453" y="428" type="curve" smooth="yes"/>
      <point x="1453" y="185"/>
      <point x="1243" y="0"/>
      <point x="943" y="0" type="curve"/>
      <point x="365" y="0" type="line"/>
      <point x="365" y="1312" type="line"/>
      <point x="5" y="1312" type="line"/>
      <point x="5" y="1480" type="line"/>
    </contour>
    <contour>
      <point x="943" y="696" type="curve"/>
      <point x="555" y="696" type="line"/>
      <point x="555" y="168" type="line"/>
      <point x="943" y="168" type="line"/>
      <point x="1143" y="168"/>
      <point x="1263" y="279"/>
      <point x="1263" y="432" type="curve" smooth="yes"/>
      <point x="1263" y="585"/>
      <point x="1143" y="696"/>
    </contour>
  </outline>
</glyph>
<glyph name="uni043B" format="2">
  <advance width="1100"/>
  <unicode hex="043B"/>
  <anchor x="626" y="1040" name="top_center"/>
  <anchor x="626" y="0" name="bottom_center"/>
  <outline>
    <contour>
      <point x="960" y="1040" type="line"/>
      <point x="960" y="0" type="line"/>
      <point x="780" y="0" type="line"/>
      <point x="780" y="880" type="line"/>
      <point x="457" y="880" type="line"/>
      <point x="407" y="377" type="line"/>
      <point x="384" y="85"/>
      <point x="211" y="-20"/>
      <point x="70" y="-20" type="curve"/>
      <point x="70" y="139" type="line"/>
      <point x="130" y="139"/>
      <point x="210" y="187"/>
      <point x="227" y="377" type="curve" smooth="yes"/>
      <point x="292" y="1040" type="line"/>
    </contour>
  </outline>
</glyph>
<glyph name="uni0449" format="2">
  <advance width="1648"/>
  <unicode hex="0449"/>
  <anchor x="769" y="1040" name="top_center"/>
  <anchor x="769" y="0" name="bottom_center"/>
  <outline>
    <contour>
      <point x="1308" y="159" type="line"/>
      <point x="1578" y="159" type="line"/>
      <point x="1578" y="-300" type="line"/>
      <point x="1398" y="-300" type="line"/>
      <point x="1398" y="0" type="line"/>
      <point x="1308" y="0" type="line"/>
    </contour>
    <contour>
      <point x="320" y="1040" type="line"/>
      <point x="320" y="160" type="line"/>
      <point x="679" y="160" type="line"/>
      <point x="679" y="0" type="line"/>
      <point x="320" y="0" type="line"/>
      <point x="140" y="0" type="line"/>
      <point x="140" y="1040" type="line"/>
    </contour>
    <contour>
      <point x="1218" y="1040" type="line"/>
      <point x="1398" y="1040" type="line"/>
      <point x="1398" y="0" type="line"/>
      <point x="1218" y="0" type="line"/>
      <point x="859" y="0" type="line"/>
      <point x="679" y="0" type="line"/>
      <point x="679" y="1040" type="line"/>
      <point x="859" y="1040" type="line"/>
      <point x="859" y="160" type="line"/>
      <point x="1218" y="160" type="line"/>
    </contour>
  </outline>
</glyph>
<glyph name="uni044D" format="2">
  <advance width="1142"/>
  <unicode hex="044D"/>
  <anchor x="544" y="0" name="bottom_center"/>
  <anchor x="544" y="1040" name="top_center"/>
  <outline>
    <contour>
      <point x="968" y="600" type="line"/>
      <point x="317" y="600" type="line"/>
      <point x="317" y="440" type="line"/>
      <point x="968" y="440" type="line"/>
    </contour>
    <contour>
      <point x="862" y="520" type="curve" smooth="yes"/>
      <point x="862" y="300"/>
      <point x="735" y="140"/>
      <point x="544" y="140" type="curve" smooth="yes"/>
      <point x="403" y="140"/>
      <point x="302" y="207"/>
      <point x="253" y="340" type="curve"/>
      <point x="100" y="252" type="line"/>
      <point x="183" y="74"/>
      <point x="345" y="-20"/>
      <point x="544" y="-20" type="curve" smooth="yes"/>
      <point x="825" y="-20"/>
      <point x="1042" y="208"/>
      <point x="1042" y="520" type="curve" smooth="yes"/>
      <point x="1042" y="832"/>
      <point x="825" y="1060"/>
      <point x="544" y="1060" type="curve" smooth="yes"/>
      <point x="345" y="1060"/>
      <point x="183" y="966"/>
      <point x="100" y="788" type="curve"/>
      <point x="253" y="700" type="line"/>
      <point x="302" y="833"/>
      <point x="403" y="900"/>
      <point x="544" y="900" type="curve" smooth="yes"/>
      <point x="735" y="900"/>
      <point x="862" y="740"/>
    </contour>
  </outline>
</glyph>
<glyph name="uni044F" format="2">
  <advance width="999"/>
  <unicode hex="044F"/>
  <anchor x="480" y="0" name="bottom_center"/>
  <anchor x="480" y="1040" name="top_center"/>
  <outline>
    <contour>
      <point x="859" y="0" type="line"/>
      <point x="859" y="1040" type="line"/>
      <point x="481" y="1040" type="line" smooth="yes"/>
      <point x="277" y="1040"/>
      <point x="100" y="892"/>
      <point x="100" y="703" type="curve" smooth="yes"/>
      <point x="100" y="544"/>
      <point x="205" y="445"/>
      <point x="355" y="391" type="curve"/>
      <point x="68" y="0" type="line"/>
      <point x="270" y="0" type="line"/>
      <point x="528" y="363" type="line"/>
      <point x="679" y="363" type="line"/>
      <point x="679" y="0" type="line"/>
    </contour>
    <contour>
      <point x="679" y="880" type="line"/>
      <point x="679" y="524" type="line"/>
      <point x="481" y="524" type="line" smooth="yes"/>
      <point x="365" y="524"/>
      <point x="280" y="599"/>
      <point x="280" y="702" type="curve" smooth="yes"/>
      <point x="280" y="805"/>
      <point x="365" y="880"/>
      <point x="481" y="880" type="curve" smooth="yes"/>
    </contour>
  </outline>
</glyph>
<glyph name="uni045F" format="2">
  <advance width="1160"/>
  <unicode hex="045F"/>
  <outline>
    <contour>
      <point x="490" y="80" type="line"/>
      <point x="670" y="80" type="line"/>
      <point x="670" y="-300" type="line"/>
      <point x="490" y="-300" type="line"/>
    </contour>
    <contour>
      <point x="140" y="0" type="line"/>
      <point x="140" y="1040" type="line"/>
      <point x="320" y="1040" type="line"/>
      <point x="320" y="160" type="line"/>
      <point x="840" y="160" type="line"/>
      <point x="840" y="1040" type="line"/>
      <point x="1020" y="1040" type="line"/>
      <point x="1020" y="0" type="line"/>
      <point x="840" y="0" type="line"/>
      <point x="320" y="0" type="line"/>
    </contour>
  </outline>
</glyph>
<glyph name="uni0460" format="2">
  <advance width="2044"/>
  <unicode hex="0460"/>
  <outline>
    <contour>
      <point x="1532" y="0" type="curve"/>
      <point x="1336" y="0" type="line"/>
      <point x="1336" y="0"/>
      <point x="924" y="640"/>
      <point x="924" y="1480" type="curve"/>
      <point x="1120" y="1480" type="line"/>
      <point x="1120" y="740"/>
      <point x="1434" y="220"/>
      <point x="1434" y="220" type="curve"/>
      <point x="1434" y="220"/>
      <point x="1748" y="740"/>
      <point x="1748" y="1480" type="curve"/>
      <point x="1944" y="1480" type="line"/>
      <point x="1944" y="640"/>
      <point x="1532" y="0"/>
    </contour>
    <contour>
      <point x="708" y="0" type="line"/>
      <point x="512" y="0" type="line"/>
      <point x="512" y="0"/>
      <point x="100" y="640"/>
      <point x="100" y="1480" type="curve"/>
      <point x="296" y="1480" type="line"/>
      <point x="296" y="740"/>
      <point x="610" y="220"/>
      <point x="610" y="220" type="curve"/>
      <point x="952" y="1116" type="line"/>
      <point x="1143" y="1116" type="line"/>
    </contour>
  </outline>
</glyph>
<glyph name="uni0461" format="2">
  <advance width="1632"/>
  <unicode hex="0461"/>
  <outline>
    <contour>
      <point x="905" y="1040" type="line"/>
      <point x="905" y="520"/>
      <point x="1128" y="200"/>
      <point x="1129" y="200" type="curve"/>
      <point x="1129" y="200"/>
      <point x="1352" y="520"/>
      <point x="1352" y="1040" type="curve"/>
      <point x="1532" y="1040" type="line"/>
      <point x="1532" y="420"/>
      <point x="1211" y="0"/>
      <point x="1211" y="0" type="curve"/>
      <point x="1046" y="0" type="line"/>
      <point x="1046" y="0"/>
      <point x="725" y="420"/>
      <point x="725" y="1040" type="curve"/>
    </contour>
    <contour>
      <point x="280" y="1040" type="line"/>
      <point x="280" y="520"/>
      <point x="503" y="200"/>
      <point x="503" y="200" type="curve"/>
      <point x="747" y="810" type="line"/>
      <point x="919" y="810" type="line"/>
      <point x="595" y="0" type="line"/>
      <point x="421" y="0" type="line"/>
      <point x="421" y="0"/>
      <point x="100" y="420"/>
      <point x="100" y="1040" type="curve"/>
    </contour>
  </outline>
</glyph>
<glyph name="uni046C" format="2">
  <advance width="2040"/>
  <unicode hex="046C"/>
  <outline>
    <contour>
      <point x="330" y="824" type="line"/>
      <point x="1183" y="824" type="line"/>
      <point x="1183" y="656" type="line"/>
      <point x="330" y="656" type="line"/>
    </contour>
    <contour>
      <point x="330" y="490" type="line"/>
      <point x="330" y="0" type="line"/>
      <point x="140" y="0" type="line"/>
      <point x="140" y="1480" type="line"/>
      <point x="330" y="1480" type="line"/>
    </contour>
    <contour>
      <point x="1900" y="232" type="curve"/>
      <point x="1900" y="52"/>
      <point x="1900" y="0"/>
      <point x="1900" y="0" type="curve"/>
      <point x="1710" y="0" type="line"/>
      <point x="1710" y="0"/>
      <point x="1710" y="50"/>
      <point x="1710" y="232" type="curve"/>
      <point x="1710" y="512"/>
      <point x="1490" y="656"/>
      <point x="1210" y="656" type="curve" smooth="yes"/>
      <point x="930" y="656"/>
      <point x="710" y="512"/>
      <point x="710" y="232" type="curve"/>
      <point x="710" y="52"/>
      <point x="710" y="0"/>
      <point x="710" y="0" type="curve"/>
      <point x="520" y="0" type="line"/>
      <point x="520" y="0"/>
      <point x="520" y="50"/>
      <point x="520" y="232" type="curve"/>
      <point x="520" y="592"/>
      <point x="830" y="824"/>
      <point x="1210" y="824" type="curve" smooth="yes"/>
      <point x="1590" y="824"/>
      <point x="1900" y="592"/>
    </contour>
    <contour>
      <point x="789" y="1312" type="line"/>
      <point x="798" y="1480" type="line"/>
      <point x="1622" y="1480" type="line"/>
      <point x="1614" y="1312" type="line"/>
    </contour>
    <contour>
      <point x="1115" y="0" type="line"/>
      <point x="1115" y="740" type="line"/>
      <point x="1305" y="740" type="line"/>
      <point x="1305" y="0" type="line"/>
    </contour>
    <contour>
      <point x="1269" y="628" type="line"/>
      <point x="1135" y="666" type="line"/>
      <point x="584" y="1480" type="line"/>
      <point x="798" y="1480" type="line"/>
      <point x="1210" y="858" type="line"/>
      <point x="1622" y="1480" type="line"/>
      <point x="1836" y="1480" type="line"/>
    </contour>
  </outline>
</glyph>
<glyph name="uni046F" format="2">
  <advance width="1123"/>
  <unicode hex="046F"/>
  <outline>
    <contour>
      <point x="569" y="1028" type="line"/>
      <point x="384" y="1333" type="line"/>
      <point x="193" y="1333" type="line"/>
      <point x="389" y="1027" type="line"/>
    </contour>
    <contour>
      <point x="818" y="1353" type="curve" smooth="yes"/>
      <point x="740" y="1353"/>
      <point x="664" y="1314"/>
      <point x="605" y="1210" type="curve"/>
      <point x="499" y="1033" type="line"/>
      <point x="662" y="1027" type="line"/>
      <point x="736" y="1148" type="line"/>
      <point x="756" y="1184"/>
      <point x="788" y="1203"/>
      <point x="822" y="1203" type="curve" smooth="yes"/>
      <point x="866" y="1203"/>
      <point x="899" y="1177"/>
      <point x="899" y="1177" type="curve"/>
      <point x="953" y="1303" type="line"/>
      <point x="953" y="1303"/>
      <point x="896" y="1353"/>
    </contour>
    <contour>
      <point x="530" y="-20" type="curve" smooth="yes"/>
      <point x="769" y="-20"/>
      <point x="938" y="117"/>
      <point x="938" y="290" type="curve" smooth="yes"/>
      <point x="938" y="398"/>
      <point x="882" y="493"/>
      <point x="757" y="549" type="curve"/>
      <point x="856" y="600"/>
      <point x="896" y="683"/>
      <point x="896" y="774" type="curve" smooth="yes"/>
      <point x="896" y="932"/>
      <point x="745" y="1060"/>
      <point x="530" y="1060" type="curve" smooth="yes"/>
      <point x="315" y="1060"/>
      <point x="187" y="937"/>
      <point x="166" y="788" type="curve"/>
      <point x="338" y="741" type="line"/>
      <point x="338" y="823"/>
      <point x="409" y="900"/>
      <point x="530" y="900" type="curve" smooth="yes"/>
      <point x="651" y="900"/>
      <point x="716" y="844"/>
      <point x="716" y="762" type="curve" smooth="yes"/>
      <point x="716" y="680"/>
      <point x="651" y="618"/>
      <point x="530" y="618" type="curve"/>
      <point x="482" y="618"/>
      <point x="465" y="618"/>
      <point x="465" y="618" type="curve"/>
      <point x="465" y="471" type="line"/>
      <point x="465" y="471"/>
      <point x="481" y="471"/>
      <point x="530" y="471" type="curve"/>
      <point x="674" y="471"/>
      <point x="759" y="398"/>
      <point x="759" y="303" type="curve" smooth="yes"/>
      <point x="759" y="208"/>
      <point x="674" y="140"/>
      <point x="530" y="140" type="curve" smooth="yes"/>
      <point x="230" y="140"/>
      <point x="100" y="-4"/>
      <point x="100" y="-164" type="curve" smooth="yes"/>
      <point x="100" y="-324"/>
      <point x="230" y="-460"/>
      <point x="530" y="-460" type="curve"/>
      <point x="680" y="-460"/>
      <point x="725" y="-372"/>
      <point x="825" y="-372" type="curve" smooth="yes"/>
      <point x="943" y="-372"/>
      <point x="953" y="-401"/>
      <point x="1034" y="-460" type="curve"/>
      <point x="1073" y="-299" type="line"/>
      <point x="999" y="-254"/>
      <point x="965" y="-212"/>
      <point x="825" y="-212" type="curve" smooth="yes"/>
      <point x="675" y="-212"/>
      <point x="630" y="-300"/>
      <point x="530" y="-301" type="curve"/>
      <point x="310" y="-300"/>
      <point x="280" y="-214"/>
      <point x="280" y="-164" type="curve" smooth="yes"/>
      <point x="280" y="-114"/>
      <point x="310" y="-20"/>
    </contour>
  </outline>
</glyph>
<glyph name="uni0473" format="2">
  <advance width="1196"/>
  <unicode hex="0473"/>
  <outline>
    <contour>
      <point x="174" y="600" type="line"/>
      <point x="980" y="600" type="line"/>
      <point x="980" y="440" type="line"/>
      <point x="174" y="440" type="line"/>
    </contour>
    <contour>
      <point x="280" y="520" type="curve" smooth="yes"/>
      <point x="280" y="300"/>
      <point x="407" y="140"/>
      <point x="598" y="140" type="curve" smooth="yes"/>
      <point x="789" y="140"/>
      <point x="916" y="300"/>
      <point x="916" y="520" type="curve" smooth="yes"/>
      <point x="916" y="740"/>
      <point x="789" y="900"/>
      <point x="598" y="900" type="curve" smooth="yes"/>
      <point x="407" y="900"/>
      <point x="280" y="740"/>
    </contour>
    <contour>
      <point x="100" y="520" type="curve" smooth="yes"/>
      <point x="100" y="832"/>
      <point x="317" y="1060"/>
      <point x="598" y="1060" type="curve" smooth="yes"/>
      <point x="879" y="1060"/>
      <point x="1096" y="832"/>
      <point x="1096" y="520" type="curve" smooth="yes"/>
      <point x="1096" y="208"/>
      <point x="879" y="-20"/>
      <point x="598" y="-20" type="curve" smooth="yes"/>
      <point x="317" y="-20"/>
      <point x="100" y="208"/>
    </contour>
  </outline>
</glyph>
<glyph name="uni0474" format="2">
  <advance width="1520"/>
  <unicode hex="0474"/>
  <anchor x="723" y="1400" name="top_center"/>
  <anchor x="678" y="0" name="bottom_center"/>
  <outline>
    <contour>
      <point x="1205" y="1245" type="curve"/>
      <point x="776" y="0" type="line"/>
      <point x="580" y="0" type="line"/>
      <point x="70" y="1480" type="line"/>
      <point x="266" y="1480" type="line"/>
      <point x="678" y="250" type="line"/>
      <point x="1028" y="1295" type="line"/>
      <point x="1072" y="1425"/>
      <point x="1192" y="1500"/>
      <point x="1350" y="1500" type="curve" smooth="yes"/>
      <point x="1406" y="1500"/>
      <point x="1470" y="1486"/>
      <point x="1515" y="1468" type="curve"/>
      <point x="1468" y="1295" type="line"/>
      <point x="1442" y="1314"/>
      <point x="1393" y="1332"/>
      <point x="1350" y="1332" type="curve" smooth="yes"/>
      <point x="1273" y="1332"/>
      <point x="1226" y="1306"/>
    </contour>
  </outline>
</glyph>
<glyph name="uni0475" format="2">
  <advance width="1229"/>
  <unicode hex="0475"/>
  <anchor x="575" y="1040" name="top_center"/>
  <anchor x="530" y="0" name="bottom_center"/>
  <outline>
    <contour>
      <point x="909" y="806" type="curve"/>
      <point x="629" y="0" type="line"/>
      <point x="431" y="0" type="line"/>
      <point x="70" y="1040" type="line"/>
      <point x="262" y="1040" type="line"/>
      <point x="530" y="224" type="line"/>
      <point x="737" y="855" type="line"/>
      <point x="781" y="985"/>
      <point x="901" y="1060"/>
      <point x="1059" y="1060" type="curve" smooth="yes"/>
      <point x="1115" y="1060"/>
      <point x="1179" y="1046"/>
      <point x="1224" y="1028" type="curve"/>
      <point x="1179" y="865" type="line"/>
      <point x="1153" y="884"/>
      <point x="1102" y="900"/>
      <point x="1059" y="900" type="curve" smooth="yes"/>
      <point x="982" y="900"/>
      <point x="930" y="867"/>
    </contour>
  </outline>
</glyph>
<glyph name="uni047E" format="2">
  <advance width="2044"/>
  <unicode hex="047E"/>
  <outline>
    <contour>
      <point x="1532" y="10" type="curve"/>
      <point x="1336" y="10" type="line"/>
      <point x="1336" y="10"/>
      <point x="924" y="650"/>
      <point x="924" y="1490" type="curve"/>
      <point x="1120" y="1490" type="line"/>
      <point x="1120" y="750"/>
      <point x="1434" y="230"/>
      <point x="1434" y="230" type="curve"/>
      <point x="1434" y="230"/>
      <point x="1748" y="750"/>
      <point x="1748" y="1490" type="curve"/>
      <point x="1944" y="1490" type="line"/>
      <point x="1944" y="650"/>
      <point x="1532" y="10"/>
    </contour>
    <contour>
      <point x="708" y="10" type="line"/>
      <point x="512" y="10" type="line"/>
      <point x="512" y="10"/>
      <point x="100" y="650"/>
      <point x="100" y="1490" type="curve"/>
      <point x="296" y="1490" type="line"/>
      <point x="296" y="750"/>
      <point x="610" y="230"/>
      <point x="610" y="230" type="curve"/>
      <point x="952" y="1126" type="line"/>
      <point x="1143" y="1126" type="line"/>
    </contour>
    <contour>
      <point x="687" y="1751" type="line"/>
      <point x="717" y="1878" type="line"/>
      <point x="1327" y="1878" type="line"/>
      <point x="1357" y="1751" type="line"/>
    </contour>
    <contour>
      <point x="577" y="1626" type="line"/>
      <point x="577" y="1878" type="line"/>
      <point x="717" y="1878" type="line"/>
      <point x="717" y="1626" type="line"/>
    </contour>
    <contour>
      <point x="1327" y="1626" type="line"/>
      <point x="1327" y="1878" type="line"/>
      <point x="1467" y="1878" type="line"/>
      <point x="1467" y="1626" type="line"/>
    </contour>
    <contour>
      <point x="952" y="1626" type="line"/>
      <point x="952" y="1818" type="line"/>
      <point x="1092" y="1818" type="line"/>
      <point x="1092" y="1626" type="line"/>
    </contour>
  </outline>
</glyph>
<glyph name="uni047F" format="2">
  <advance width="1632"/>
  <unicode hex="047F"/>
  <outline>
    <contour>
      <point x="905" y="1040" type="line"/>
      <point x="905" y="520"/>
      <point x="1128" y="200"/>
      <point x="1129" y="200" type="curve"/>
      <point x="1129" y="200"/>
      <point x="1352" y="520"/>
      <point x="1352" y="1040" type="curve"/>
      <point x="1532" y="1040" type="line"/>
      <point x="1532" y="420"/>
      <point x="1211" y="0"/>
      <point x="1211" y="0" type="curve"/>
      <point x="1046" y="0" type="line"/>
      <point x="1046" y="0"/>
      <point x="725" y="420"/>
      <point x="725" y="1040" type="curve"/>
    </contour>
    <contour>
      <point x="280" y="1040" type="line"/>
      <point x="280" y="520"/>
      <point x="503" y="200"/>
      <point x="503" y="200" type="curve"/>
      <point x="747" y="810" type="line"/>
      <point x="919" y="810" type="line"/>
      <point x="595" y="0" type="line"/>
      <point x="421" y="0" type="line"/>
      <point x="421" y="0"/>
      <point x="100" y="420"/>
      <point x="100" y="1040" type="curve"/>
    </contour>
    <contour>
      <point x="480" y="1311" type="line"/>
      <point x="510" y="1438" type="line"/>
      <point x="1120" y="1438" type="line"/>
      <point x="1150" y="1311" type="line"/>
    </contour>
    <contour>
      <point x="370" y="1186" type="line"/>
      <point x="370" y="1438" type="line"/>
      <point x="510" y="1438" type="line"/>
      <point x="510" y="1186" type="line"/>
    </contour>
    <contour>
      <point x="1120" y="1186" type="line"/>
      <point x="1120" y="1438" type="line"/>
      <point x="1260" y="1438" type="line"/>
      <point x="1260" y="1186" type="line"/>
    </contour>
    <contour>
      <point x="745" y="1186" type="line"/>
      <point x="745" y="1378" type="line"/>
      <point x="885" y="1378" type="line"/>
      <point x="885" y="1186" type="line"/>
    </contour>
  </outline>
</glyph>
<glyph name="uni0487" format="2">
  <advance width="0"/>
  <unicode hex="0487"/>
  <anchor x="642" y="1040" name="_mkmk_top_center"/>
  <anchor x="642" y="1376" name="mkmk_top_center"/>
  <anchor x="642" y="1040" name="_top_center"/>
  <outline>
    <contour>
      <point x="1029" y="1224" type="line"/>
      <point x="789" y="1224"/>
      <point x="793" y="1360"/>
      <point x="623" y="1360" type="curve" smooth="yes"/>
      <point x="527" y="1360"/>
      <point x="473" y="1297"/>
      <point x="468" y="1237" type="curve"/>
      <point x="329" y="1274" type="line"/>
      <point x="345" y="1410"/>
      <point x="455" y="1500"/>
      <point x="623" y="1500" type="curve" smooth="yes"/>
      <point x="863" y="1500"/>
      <point x="859" y="1360"/>
      <point x="1029" y="1360" type="curve"/>
    </contour>
  </outline>
</glyph>
<glyph name="uni0489" format="2">
  <advance width="0"/>
  <unicode hex="0489"/>
  <anchor x="642" y="740" name="_middle_center"/>
  <outline>
    <contour>
      <point x="23" y="174" type="curve" smooth="yes"/>
      <point x="74" y="225"/>
      <point x="153" y="225"/>
      <point x="204" y="174" type="curve" smooth="yes"/>
      <point x="255" y="123"/>
      <point x="255" y="44"/>
      <point x="204" y="-7" type="curve" smooth="yes"/>
      <point x="153" y="-58"/>
      <point x="74" y="-58"/>
      <point x="23" y="-7" type="curve" smooth="yes"/>
      <point x="-28" y="44"/>
      <point x="-28" y="123"/>
    </contour>
    <contour>
      <point x="-155" y="-29" type="line"/>
      <point x="-106" y="-60"/>
      <point x="-8" y="-90"/>
      <point x="77" y="-5" type="curve" smooth="yes"/>
      <point x="97" y="15"/>
      <point x="114" y="83"/>
      <point x="114" y="83" type="curve"/>
      <point x="204" y="174" type="line"/>
      <point x="253" y="125"/>
      <point x="287" y="26"/>
      <point x="167" y="-94" type="curve" smooth="yes"/>
      <point x="40" y="-221"/>
      <point x="-146" y="-171"/>
      <point x="-215" y="-131" type="curve"/>
    </contour>
    <contour>
      <point x="1297" y="1036" type="curve" smooth="yes"/>
      <point x="1246" y="985"/>
      <point x="1167" y="985"/>
      <point x="1116" y="1036" type="curve" smooth="yes"/>
      <point x="1065" y="1087"/>
      <point x="1065" y="1166"/>
      <point x="1116" y="1217" type="curve" smooth="yes"/>
      <point x="1167" y="1268"/>
      <point x="1246" y="1268"/>
      <point x="1297" y="1217" type="curve" smooth="yes"/>
      <point x="1348" y="1166"/>
      <point x="1348" y="1087"/>
    </contour>
    <contour>
      <point x="1475" y="1239" type="line"/>
      <point x="1426" y="1270"/>
      <point x="1328" y="1300"/>
      <point x="1243" y="1215" type="curve" smooth="yes"/>
      <point x="1223" y="1195"/>
      <point x="1206" y="1127"/>
      <point x="1206" y="1127" type="curve"/>
      <point x="1116" y="1036" type="line"/>
      <point x="1067" y="1085"/>
      <point x="1033" y="1184"/>
      <point x="1153" y="1304" type="curve" smooth="yes"/>
      <point x="1280" y="1431"/>
      <point x="1466" y="1381"/>
      <point x="1535" y="1341" type="curve"/>
    </contour>
    <contour>
      <point x="229" y="1242" type="curve" smooth="yes"/>
      <point x="280" y="1191"/>
      <point x="280" y="1112"/>
      <point x="229" y="1061" type="curve" smooth="yes"/>
      <point x="178" y="1010"/>
      <point x="99" y="1010"/>
      <point x="48" y="1061" type="curve" smooth="yes"/>
      <point x="-3" y="1112"/>
      <point x="-3" y="1191"/>
      <point x="48" y="1242" type="curve" smooth="yes"/>
      <point x="99" y="1293"/>
      <point x="178" y="1293"/>
    </contour>
    <contour>
      <point x="26" y="1420" type="line"/>
      <point x="-5" y="1371"/>
      <point x="-35" y="1273"/>
      <point x="50" y="1188" type="curve" smooth="yes"/>
      <point x="70" y="1168"/>
      <point x="138" y="1151"/>
      <point x="138" y="1151" type="curve"/>
      <point x="229" y="1061" type="line"/>
      <point x="180" y="1012"/>
      <point x="81" y="978"/>
      <point x="-39" y="1098" type="curve" smooth="yes"/>
      <point x="-166" y="1225"/>
      <point x="-116" y="1411"/>
      <point x="-76" y="1480" type="curve"/>
    </contour>
    <contour>
      <point x="1091" y="-32" type="curve" smooth="yes"/>
      <point x="1040" y="19"/>
      <point x="1040" y="98"/>
      <point x="1091" y="149" type="curve" smooth="yes"/>
      <point x="1142" y="200"/>
      <point x="1221" y="200"/>
      <point x="1272" y="149" type="curve" smooth="yes"/>
      <point x="1323" y="98"/>
      <point x="1323" y="19"/>
      <point x="1272" y="-32" type="curve" smooth="yes"/>
      <point x="1221" y="-83"/>
      <point x="1142" y="-83"/>
    </contour>
    <contour>
      <point x="1294" y="-210" type="line"/>
      <point x="1325" y="-161"/>
      <point x="1355" y="-63"/>
      <point x="1270" y="22" type="curve" smooth="yes"/>
      <point x="1250" y="42"/>
      <point x="1182" y="59"/>
      <point x="1182" y="59" type="curve"/>
      <point x="1091" y="149" type="line"/>
      <point x="1140" y="198"/>
      <point x="1239" y="232"/>
      <point x="1359" y="112" type="curve" smooth="yes"/>
      <point x="1486" y="-15"/>
      <point x="1436" y="-201"/>
      <point x="1396" y="-270" type="curve"/>
    </contour>
    <contour>
      <point x="-95" y="750" type="curve" smooth="yes"/>
      <point x="-23" y="750"/>
      <point x="33" y="694"/>
      <point x="33" y="622" type="curve" smooth="yes"/>
      <point x="33" y="550"/>
      <point x="-23" y="495"/>
      <point x="-95" y="495" type="curve" smooth="yes"/>
      <point x="-167" y="495"/>
      <point x="-223" y="550"/>
      <point x="-223" y="622" type="curve" smooth="yes"/>
      <point x="-223" y="694"/>
      <point x="-167" y="750"/>
    </contour>
    <contour>
      <point x="-364" y="732" type="line"/>
      <point x="-351" y="675"/>
      <point x="-303" y="586"/>
      <point x="-183" y="586" type="curve" smooth="yes"/>
      <point x="-155" y="586"/>
      <point x="-95" y="621"/>
      <point x="-95" y="621" type="curve"/>
      <point x="33" y="622" type="line"/>
      <point x="33" y="552"/>
      <point x="-13" y="459"/>
      <point x="-183" y="459" type="curve" smooth="yes"/>
      <point x="-363" y="459"/>
      <point x="-459" y="625"/>
      <point x="-479" y="702" type="curve"/>
    </contour>
    <contour>
      <point x="1415" y="459" type="curve" smooth="yes"/>
      <point x="1343" y="459"/>
      <point x="1287" y="515"/>
      <point x="1287" y="587" type="curve" smooth="yes"/>
      <point x="1287" y="659"/>
      <point x="1343" y="714"/>
      <point x="1415" y="714" type="curve" smooth="yes"/>
      <point x="1487" y="714"/>
      <point x="1543" y="659"/>
      <point x="1543" y="587" type="curve" smooth="yes"/>
      <point x="1543" y="515"/>
      <point x="1487" y="459"/>
    </contour>
    <contour>
      <point x="1684" y="477" type="line"/>
      <point x="1671" y="534"/>
      <point x="1623" y="623"/>
      <point x="1503" y="623" type="curve" smooth="yes"/>
      <point x="1475" y="623"/>
      <point x="1415" y="588"/>
      <point x="1415" y="588" type="curve"/>
      <point x="1287" y="587" type="line"/>
      <point x="1287" y="657"/>
      <point x="1333" y="750"/>
      <point x="1503" y="750" type="curve" smooth="yes"/>
      <point x="1683" y="750"/>
      <point x="1779" y="584"/>
      <point x="1799" y="507" type="curve"/>
    </contour>
    <contour>
      <point x="806" y="1360" type="curve" smooth="yes"/>
      <point x="806" y="1288"/>
      <point x="750" y="1232"/>
      <point x="678" y="1232" type="curve" smooth="yes"/>
      <point x="606" y="1232"/>
      <point x="550" y="1288"/>
      <point x="550" y="1360" type="curve" smooth="yes"/>
      <point x="550" y="1432"/>
      <point x="606" y="1488"/>
      <point x="678" y="1488" type="curve" smooth="yes"/>
      <point x="750" y="1488"/>
      <point x="806" y="1432"/>
    </contour>
    <contour>
      <point x="788" y="1629" type="line"/>
      <point x="731" y="1616"/>
      <point x="641" y="1568"/>
      <point x="641" y="1448" type="curve" smooth="yes"/>
      <point x="641" y="1420"/>
      <point x="677" y="1360"/>
      <point x="677" y="1360" type="curve"/>
      <point x="678" y="1232" type="line"/>
      <point x="608" y="1232"/>
      <point x="514" y="1278"/>
      <point x="514" y="1448" type="curve" smooth="yes"/>
      <point x="514" y="1628"/>
      <point x="681" y="1724"/>
      <point x="758" y="1744" type="curve"/>
    </contour>
    <contour>
      <point x="514" y="-150" type="curve" smooth="yes"/>
      <point x="514" y="-78"/>
      <point x="570" y="-22"/>
      <point x="642" y="-22" type="curve" smooth="yes"/>
      <point x="714" y="-22"/>
      <point x="770" y="-78"/>
      <point x="770" y="-150" type="curve" smooth="yes"/>
      <point x="770" y="-222"/>
      <point x="714" y="-278"/>
      <point x="642" y="-278" type="curve" smooth="yes"/>
      <point x="570" y="-278"/>
      <point x="514" y="-222"/>
    </contour>
    <contour>
      <point x="532" y="-419" type="line"/>
      <point x="589" y="-406"/>
      <point x="679" y="-358"/>
      <point x="679" y="-238" type="curve" smooth="yes"/>
      <point x="679" y="-210"/>
      <point x="643" y="-150"/>
      <point x="643" y="-150" type="curve"/>
      <point x="642" y="-22" type="line"/>
      <point x="712" y="-22"/>
      <point x="806" y="-68"/>
      <point x="806" y="-238" type="curve" smooth="yes"/>
      <point x="806" y="-418"/>
      <point x="639" y="-514"/>
      <point x="562" y="-534" type="curve"/>
    </contour>
  </outline>
</glyph>
<glyph name="uni048A" format="2">
  <advance width="1520"/>
  <unicode hex="048A"/>
  <outline>
    <contour>
      <point x="1168" y="168" type="line"/>
      <point x="1168" y="0" type="line"/>
      <point x="1213" y="0" type="line"/>
      <point x="1131" y="-300" type="line"/>
      <point x="1323" y="-300" type="line"/>
      <point x="1450" y="168" type="line"/>
    </contour>
    <contour>
      <point x="699" y="1554" type="curve" smooth="yes"/>
      <point x="549" y="1554"/>
      <point x="419" y="1680"/>
      <point x="419" y="1820" type="curve"/>
      <point x="579" y="1820" type="line"/>
      <point x="579" y="1754"/>
      <point x="633" y="1694"/>
      <point x="699" y="1694" type="curve" smooth="yes"/>
      <point x="765" y="1694"/>
      <point x="819" y="1754"/>
      <point x="819" y="1820" type="curve"/>
      <point x="979" y="1820" type="line"/>
      <point x="979" y="1680"/>
      <point x="849" y="1554"/>
    </contour>
    <contour>
      <point x="1068" y="1480" type="line"/>
      <point x="330" y="320" type="line"/>
      <point x="330" y="1480" type="line"/>
      <point x="140" y="1480" type="line"/>
      <point x="140" y="0" type="line"/>
      <point x="330" y="0" type="line"/>
      <point x="1068" y="1160" type="line"/>
      <point x="1068" y="0" type="line"/>
      <point x="1258" y="0" type="line"/>
      <point x="1258" y="1480" type="line"/>
    </contour>
  </outline>
</glyph>
<glyph name="uni048C" format="2">
  <advance width="1368"/>
  <unicode hex="048C"/>
  <outline>
    <contour>
      <point x="370" y="1480" type="line"/>
      <point x="370" y="856" type="line"/>
      <point x="758" y="856" type="line"/>
      <point x="1078" y="856"/>
      <point x="1268" y="671"/>
      <point x="1268" y="428" type="curve" smooth="yes"/>
      <point x="1268" y="185"/>
      <point x="1058" y="0"/>
      <point x="758" y="0" type="curve"/>
      <point x="180" y="0" type="line"/>
      <point x="180" y="1480" type="line"/>
    </contour>
    <contour>
      <point x="758" y="696" type="curve"/>
      <point x="370" y="696" type="line"/>
      <point x="370" y="168" type="line"/>
      <point x="758" y="168" type="line"/>
      <point x="958" y="168"/>
      <point x="1078" y="279"/>
      <point x="1078" y="432" type="curve" smooth="yes"/>
      <point x="1078" y="585"/>
      <point x="958" y="696"/>
    </contour>
    <contour>
      <point x="550" y="1084" type="line"/>
      <point x="0" y="1084" type="line"/>
      <point x="0" y="1130"/>
      <point x="0" y="1206"/>
      <point x="0" y="1252" type="curve"/>
      <point x="550" y="1252" type="line"/>
    </contour>
  </outline>
</glyph>
<glyph name="uni049A" format="2">
  <advance width="1443"/>
  <unicode hex="049A"/>
  <outline>
    <contour>
      <point x="1183" y="168" type="line"/>
      <point x="1373" y="168" type="line"/>
      <point x="1373" y="-300" type="line"/>
      <point x="1183" y="-300" type="line"/>
    </contour>
    <contour>
      <point x="549" y="794" type="line"/>
      <point x="679" y="917" type="line"/>
      <point x="1296" y="0" type="line"/>
      <point x="1082" y="0" type="line"/>
    </contour>
    <contour>
      <point x="330" y="490" type="line"/>
      <point x="330" y="0" type="line"/>
      <point x="140" y="0" type="line"/>
      <point x="140" y="1480" type="line"/>
      <point x="330" y="1480" type="line"/>
      <point x="330" y="730" type="line"/>
      <point x="1056" y="1480" type="line"/>
      <point x="1116" y="1480"/>
      <point x="1236" y="1480"/>
      <point x="1296" y="1480" type="curve"/>
    </contour>
  </outline>
</glyph>
<glyph name="uni049B" format="2">
  <advance width="1119"/>
  <unicode hex="049B"/>
  <outline>
    <contour>
      <point x="904" y="160" type="line"/>
      <point x="1084" y="160" type="line"/>
      <point x="1084" y="-300" type="line"/>
      <point x="904" y="-300" type="line"/>
    </contour>
    <contour>
      <point x="417" y="562" type="line"/>
      <point x="526" y="702" type="line"/>
      <point x="1024" y="0" type="line"/>
      <point x="816" y="0" type="line"/>
    </contour>
    <contour>
      <point x="320" y="340" type="line"/>
      <point x="320" y="0" type="line"/>
      <point x="140" y="0" type="line"/>
      <point x="140" y="1040" type="line"/>
      <point x="320" y="1040" type="line"/>
      <point x="320" y="572" type="line"/>
      <point x="788" y="1040" type="line"/>
      <point x="848" y="1040"/>
      <point x="960" y="1040"/>
      <point x="1020" y="1040" type="curve"/>
    </contour>
  </outline>
</glyph>
<glyph name="uni049C" format="2">
  <advance width="1366"/>
  <unicode hex="049C"/>
  <outline>
    <contour>
      <point x="419" y="1140" type="line"/>
      <point x="554" y="1140" type="line"/>
      <point x="554" y="340" type="line"/>
      <point x="419" y="340" type="line"/>
    </contour>
    <contour>
      <point x="549" y="794" type="line"/>
      <point x="679" y="917" type="line"/>
      <point x="1296" y="0" type="line"/>
      <point x="1082" y="0" type="line"/>
    </contour>
    <contour>
      <point x="330" y="490" type="line"/>
      <point x="330" y="0" type="line"/>
      <point x="140" y="0" type="line"/>
      <point x="140" y="1480" type="line"/>
      <point x="330" y="1480" type="line"/>
      <point x="330" y="730" type="line"/>
      <point x="1056" y="1480" type="line"/>
      <point x="1116" y="1480"/>
      <point x="1236" y="1480"/>
      <point x="1296" y="1480" type="curve"/>
    </contour>
  </outline>
</glyph>
<glyph name="uni049D" format="2">
  <advance width="1031"/>
  <unicode hex="049D"/>
  <outline>
    <contour>
      <point x="375" y="820" type="line"/>
      <point x="510" y="820" type="line"/>
      <point x="510" y="220" type="line"/>
      <point x="375" y="220" type="line"/>
    </contour>
    <contour>
      <point x="417" y="562" type="line"/>
      <point x="526" y="702" type="line"/>
      <point x="1024" y="0" type="line"/>
      <point x="816" y="0" type="line"/>
    </contour>
    <contour>
      <point x="320" y="340" type="line"/>
      <point x="320" y="0" type="line"/>
      <point x="140" y="0" type="line"/>
      <point x="140" y="1040" type="line"/>
      <point x="320" y="1040" type="line"/>
      <point x="320" y="572" type="line"/>
      <point x="788" y="1040" type="line"/>
      <point x="848" y="1040"/>
      <point x="960" y="1040"/>
      <point x="1020" y="1040" type="curve"/>
    </contour>
  </outline>
</glyph>
<glyph name="uni049E" format="2">
  <advance width="1356"/>
  <unicode hex="049E"/>
  <outline>
    <contour>
      <point x="670" y="1156" type="line"/>
      <point x="0" y="1156" type="line"/>
      <point x="0" y="1202"/>
      <point x="0" y="1278"/>
      <point x="0" y="1324" type="curve"/>
      <point x="670" y="1324" type="line"/>
    </contour>
    <contour>
      <point x="619" y="794" type="line"/>
      <point x="749" y="917" type="line"/>
      <point x="1366" y="0" type="line"/>
      <point x="1152" y="0" type="line"/>
    </contour>
    <contour>
      <point x="400" y="490" type="line"/>
      <point x="400" y="0" type="line"/>
      <point x="210" y="0" type="line"/>
      <point x="210" y="1480" type="line"/>
      <point x="400" y="1480" type="line"/>
      <point x="400" y="730" type="line"/>
      <point x="1126" y="1480" type="line"/>
      <point x="1186" y="1480"/>
      <point x="1306" y="1480"/>
      <point x="1366" y="1480" type="curve"/>
    </contour>
  </outline>
</glyph>
<glyph name="uni04A3" format="2">
  <advance width="1269"/>
  <unicode hex="04A3"/>
  <outline>
    <contour>
      <point x="929" y="159" type="line"/>
      <point x="1199" y="159" type="line"/>
      <point x="1199" y="-300" type="line"/>
      <point x="1019" y="-300" type="line"/>
      <point x="1019" y="0" type="line"/>
      <point x="929" y="0" type="line"/>
    </contour>
    <contour>
      <point x="140" y="1040" type="line"/>
      <point x="320" y="1040" type="line"/>
      <point x="320" y="600" type="line"/>
      <point x="839" y="600" type="line"/>
      <point x="839" y="1040" type="line"/>
      <point x="1019" y="1040" type="line"/>
      <point x="1019" y="0" type="line"/>
      <point x="839" y="0" type="line"/>
      <point x="839" y="439" type="line"/>
      <point x="320" y="439" type="line"/>
      <point x="320" y="0" type="line"/>
      <point x="140" y="0" type="line"/>
    </contour>
  </outline>
</glyph>
<glyph name="uni04A4" format="2">
  <advance width="2066"/>
  <unicode hex="04A4"/>
  <outline>
    <contour>
      <point x="1198" y="1312" type="line"/>
      <point x="1258" y="1480" type="line"/>
      <point x="1996" y="1480" type="line"/>
      <point x="1996" y="1312" type="line"/>
    </contour>
    <contour>
      <point x="140" y="1480" type="line"/>
      <point x="330" y="1480" type="line"/>
      <point x="330" y="824" type="line"/>
      <point x="1068" y="824" type="line"/>
      <point x="1068" y="1480" type="line"/>
      <point x="1258" y="1480" type="line"/>
      <point x="1258" y="0" type="line"/>
      <point x="1068" y="0" type="line"/>
      <point x="1068" y="656" type="line"/>
      <point x="330" y="656" type="line"/>
      <point x="330" y="0" type="line"/>
      <point x="140" y="0" type="line"/>
    </contour>
  </outline>
</glyph>
<glyph name="uni04A8" format="2">
  <advance width="1766"/>
  <unicode hex="04A8"/>
  <outline>
    <contour>
      <point x="1638" y="21" type="curve"/>
      <point x="1592" y="186" type="line"/>
      <point x="1534" y="161"/>
      <point x="1469" y="148"/>
      <point x="1401" y="148" type="curve"/>
      <point x="1401" y="-20" type="line"/>
      <point x="1485" y="-20"/>
      <point x="1564" y="-6"/>
    </contour>
    <contour>
      <point x="801" y="1332" type="curve"/>
      <point x="801" y="1500" type="line"/>
      <point x="406" y="1500"/>
      <point x="100" y="1179"/>
      <point x="100" y="740" type="curve" smooth="yes"/>
      <point x="100" y="301"/>
      <point x="406" y="-20"/>
      <point x="801" y="-20" type="curve"/>
      <point x="801" y="148" type="line"/>
      <point x="511" y="148"/>
      <point x="290" y="390"/>
      <point x="290" y="740" type="curve" smooth="yes"/>
      <point x="290" y="1090"/>
      <point x="511" y="1332"/>
    </contour>
    <contour>
      <point x="831" y="740" type="curve" smooth="yes"/>
      <point x="831" y="940"/>
      <point x="901" y="1162"/>
      <point x="1101" y="1162" type="curve"/>
      <point x="1101" y="1330" type="line"/>
      <point x="801" y="1330"/>
      <point x="641" y="1060"/>
      <point x="641" y="740" type="curve" smooth="yes"/>
      <point x="641" y="241"/>
      <point x="1006" y="-20"/>
      <point x="1401" y="-20" type="curve"/>
      <point x="1401" y="148" type="line"/>
      <point x="1101" y="148"/>
      <point x="831" y="350"/>
    </contour>
    <contour>
      <point x="1371" y="740" type="curve" smooth="yes"/>
      <point x="1371" y="350"/>
      <point x="1151" y="148"/>
      <point x="801" y="148" type="curve"/>
      <point x="801" y="-20" type="line"/>
      <point x="1196" y="-20"/>
      <point x="1561" y="241"/>
      <point x="1561" y="740" type="curve" smooth="yes"/>
      <point x="1561" y="1060"/>
      <point x="1431" y="1330"/>
      <point x="1101" y="1330" type="curve"/>
      <point x="1101" y="1162" type="line"/>
      <point x="1301" y="1162"/>
      <point x="1371" y="940"/>
    </contour>
  </outline>
</glyph>
<glyph name="uni04A9" format="2">
  <advance width="1380"/>
  <unicode hex="04A9"/>
  <outline>
    <contour>
      <point x="1290" y="19" type="curve"/>
      <point x="1258" y="166" type="line"/>
      <point x="1201" y="146"/>
      <point x="1147" y="141"/>
      <point x="1085" y="141" type="curve"/>
      <point x="1085" y="-20" type="line"/>
      <point x="1158" y="-20"/>
      <point x="1226" y="-7"/>
    </contour>
    <contour>
      <point x="649" y="899" type="curve"/>
      <point x="649" y="1060" type="line"/>
      <point x="323" y="1060"/>
      <point x="70" y="841"/>
      <point x="70" y="520" type="curve" smooth="yes"/>
      <point x="70" y="199"/>
      <point x="323" y="-20"/>
      <point x="649" y="-20" type="curve"/>
      <point x="649" y="141" type="line"/>
      <point x="423" y="141"/>
      <point x="250" y="287"/>
      <point x="250" y="520" type="curve" smooth="yes"/>
      <point x="250" y="753"/>
      <point x="423" y="899"/>
    </contour>
    <contour>
      <point x="677" y="516" type="curve" smooth="yes"/>
      <point x="677" y="648"/>
      <point x="727" y="795"/>
      <point x="867" y="795" type="curve"/>
      <point x="867" y="955" type="line"/>
      <point x="626" y="955"/>
      <point x="497" y="757"/>
      <point x="497" y="522" type="curve" smooth="yes"/>
      <point x="497" y="200"/>
      <point x="780" y="-20"/>
      <point x="1085" y="-20" type="curve"/>
      <point x="1085" y="141" type="line"/>
      <point x="878" y="141"/>
      <point x="677" y="285"/>
    </contour>
    <contour>
      <point x="1056" y="516" type="curve" smooth="yes"/>
      <point x="1056" y="285"/>
      <point x="856" y="141"/>
      <point x="649" y="141" type="curve"/>
      <point x="649" y="-20" type="line"/>
      <point x="954" y="-20"/>
      <point x="1236" y="200"/>
      <point x="1236" y="522" type="curve" smooth="yes"/>
      <point x="1236" y="757"/>
      <point x="1108" y="955"/>
      <point x="867" y="955" type="curve"/>
      <point x="867" y="795" type="line"/>
      <point x="1007" y="795"/>
      <point x="1056" y="648"/>
    </contour>
  </outline>
</glyph>
<glyph name="uni04AD" format="2">
  <advance width="1112"/>
  <unicode hex="04AD"/>
  <outline>
    <contour>
      <point x="556" y="167" type="line"/>
      <point x="836" y="167" type="line"/>
      <point x="836" y="-300" type="line"/>
      <point x="646" y="-300" type="line"/>
      <point x="646" y="0" type="line"/>
      <point x="556" y="0" type="line"/>
    </contour>
    <contour>
      <point x="466" y="0" type="line"/>
      <point x="466" y="880" type="line"/>
      <point x="140" y="880" type="line"/>
      <point x="140" y="1040" type="line"/>
      <point x="972" y="1040" type="line"/>
      <point x="972" y="880" type="line"/>
      <point x="646" y="880" type="line"/>
      <point x="646" y="0" type="line"/>
    </contour>
  </outline>
</glyph>
<glyph name="uni04B1" format="2">
  <advance width="1060"/>
  <unicode hex="04B1"/>
  <outline>
    <contour>
      <point x="620" y="0" type="line"/>
      <point x="990" y="1040" type="line"/>
      <point x="798" y="1040" type="line"/>
      <point x="530" y="224" type="line"/>
      <point x="262" y="1040" type="line"/>
      <point x="70" y="1040" type="line"/>
      <point x="440" y="0" type="line"/>
      <point x="440" y="-440" type="line"/>
      <point x="620" y="-440" type="line"/>
    </contour>
    <contour>
      <point x="865" y="-280" type="line"/>
      <point x="865" y="-120" type="line"/>
      <point x="195" y="-120" type="line"/>
      <point x="195" y="-166"/>
      <point x="195" y="-234"/>
      <point x="195" y="-280" type="curve"/>
    </contour>
  </outline>
</glyph>
<glyph name="uni04B3" format="2">
  <advance width="1162"/>
  <unicode hex="04B3"/>
  <outline>
    <contour>
      <point x="912" y="160" type="line"/>
      <point x="1092" y="160" type="line"/>
      <point x="1092" y="-300" type="line"/>
      <point x="912" y="-300" type="line"/>
    </contour>
    <contour>
      <point x="407" y="520" type="line"/>
      <point x="70" y="1040" type="line"/>
      <point x="278" y="1040" type="line"/>
      <point x="546" y="613" type="line"/>
      <point x="814" y="1040" type="line"/>
      <point x="1022" y="1040" type="line"/>
      <point x="684" y="520" type="line"/>
      <point x="1022" y="0" type="line"/>
      <point x="814" y="0" type="line"/>
      <point x="544" y="430" type="line"/>
      <point x="280" y="0" type="line"/>
      <point x="70" y="0" type="line"/>
    </contour>
  </outline>
</glyph>
<glyph name="uni04B4" format="2">
  <advance width="1947"/>
  <unicode hex="04B4"/>
  <outline>
    <contour>
      <point x="1632" y="167" type="line"/>
      <point x="1912" y="167" type="line"/>
      <point x="1912" y="-300" type="line"/>
      <point x="1722" y="-300" type="line"/>
      <point x="1722" y="0" type="line"/>
      <point x="1632" y="0" type="line"/>
    </contour>
    <contour>
      <point x="140" y="1480" type="line"/>
      <point x="1258" y="1480" type="line"/>
      <point x="1258" y="1312" type="line"/>
      <point x="884" y="1312" type="line"/>
      <point x="504" y="1312" type="line"/>
      <point x="140" y="1312" type="line"/>
    </contour>
    <contour>
      <point x="604" y="0" type="line"/>
      <point x="604" y="1312" type="line"/>
      <point x="794" y="1312" type="line"/>
      <point x="794" y="168" type="line"/>
      <point x="1532" y="168" type="line"/>
      <point x="1532" y="1480" type="line"/>
      <point x="1722" y="1480" type="line"/>
      <point x="1722" y="0" type="line"/>
    </contour>
  </outline>
</glyph>
<glyph name="uni04B5" format="2">
  <advance width="1596"/>
  <unicode hex="04B5"/>
  <outline>
    <contour>
      <point x="1256" y="159" type="line"/>
      <point x="1526" y="159" type="line"/>
      <point x="1526" y="-300" type="line"/>
      <point x="1346" y="-300" type="line"/>
      <point x="1346" y="0" type="line"/>
      <point x="1256" y="0" type="line"/>
    </contour>
    <contour>
      <point x="646" y="880" type="line"/>
      <point x="646" y="160" type="line"/>
      <point x="1166" y="160" type="line"/>
      <point x="1166" y="1040" type="line"/>
      <point x="1346" y="1040" type="line"/>
      <point x="1346" y="0" type="line"/>
      <point x="1166" y="0" type="line"/>
      <point x="646" y="0" type="line"/>
      <point x="466" y="0" type="line"/>
      <point x="466" y="880" type="line"/>
      <point x="140" y="880" type="line"/>
      <point x="140" y="1040" type="line"/>
      <point x="972" y="1040" type="line"/>
      <point x="972" y="880" type="line"/>
    </contour>
  </outline>
</glyph>
<glyph name="uni04BF" format="2">
  <advance width="1426"/>
  <unicode hex="04BF"/>
  <outline>
    <contour>
      <point x="738" y="100" type="line"/>
      <point x="918" y="100" type="line"/>
      <point x="918" y="-300" type="line"/>
      <point x="738" y="-300" type="line"/>
    </contour>
    <contour>
      <point x="186" y="810" type="line"/>
      <point x="181" y="795"/>
      <point x="180" y="778"/>
      <point x="180" y="760" type="curve" smooth="yes"/>
      <point x="180" y="670"/>
      <point x="240" y="600"/>
      <point x="330" y="600" type="curve"/>
      <point x="330" y="440" type="line"/>
      <point x="152" y="440"/>
      <point x="0" y="582"/>
      <point x="0" y="760" type="curve" smooth="yes"/>
      <point x="0" y="777"/>
      <point x="1" y="794"/>
      <point x="4" y="810" type="curve"/>
    </contour>
    <contour>
      <point x="1210" y="600" type="line"/>
      <point x="1140" y="440" type="line"/>
      <point x="330" y="440" type="line"/>
      <point x="330" y="600" type="line"/>
    </contour>
    <contour>
      <point x="1140" y="340" type="curve"/>
      <point x="1293" y="252" type="line"/>
      <point x="1210" y="74"/>
      <point x="1027" y="-20"/>
      <point x="828" y="-20" type="curve" smooth="yes"/>
      <point x="547" y="-20"/>
      <point x="330" y="208"/>
      <point x="330" y="520" type="curve" smooth="yes"/>
      <point x="330" y="832"/>
      <point x="547" y="1060"/>
      <point x="828" y="1060" type="curve" smooth="yes"/>
      <point x="1109" y="1060"/>
      <point x="1326" y="832"/>
      <point x="1326" y="520" type="curve" smooth="yes"/>
      <point x="1326" y="493"/>
      <point x="1324" y="466"/>
      <point x="1321" y="440" type="curve"/>
      <point x="1140" y="440" type="line"/>
      <point x="1144" y="466"/>
      <point x="1146" y="492"/>
      <point x="1146" y="520" type="curve" smooth="yes"/>
      <point x="1146" y="740"/>
      <point x="1019" y="900"/>
      <point x="828" y="900" type="curve" smooth="yes"/>
      <point x="637" y="900"/>
      <point x="510" y="740"/>
      <point x="510" y="520" type="curve" smooth="yes"/>
      <point x="510" y="300"/>
      <point x="637" y="140"/>
      <point x="828" y="140" type="curve" smooth="yes"/>
      <point x="969" y="140"/>
      <point x="1091" y="207"/>
    </contour>
  </outline>
</glyph>
<glyph name="uni04C5" format="2">
  <advance width="1450"/>
  <unicode hex="04C5"/>
  <outline>
    <contour>
      <point x="1098" y="168" type="line"/>
      <point x="1380" y="168" type="line"/>
      <point x="1253" y="-300" type="line"/>
      <point x="1061" y="-300" type="line"/>
      <point x="1143" y="0" type="line"/>
      <point x="1098" y="0" type="line"/>
    </contour>
    <contour>
      <point x="1188" y="1480" type="line"/>
      <point x="1188" y="0" type="line"/>
      <point x="998" y="0" type="line"/>
      <point x="998" y="1311" type="line"/>
      <point x="543" y="1311" type="line"/>
      <point x="484" y="520" type="line" smooth="yes"/>
      <point x="455" y="121"/>
      <point x="243" y="-20"/>
      <point x="70" y="-20" type="curve"/>
      <point x="70" y="148" type="line"/>
      <point x="155" y="148"/>
      <point x="269" y="221"/>
      <point x="294" y="520" type="curve" smooth="yes"/>
      <point x="373" y="1480" type="line"/>
    </contour>
  </outline>
</glyph>
<glyph name="uni04C6" format="2">
  <advance width="1212"/>
  <unicode hex="04C6"/>
  <outline>
    <contour>
      <point x="870" y="0" type="line"/>
      <point x="870" y="160" type="line"/>
      <point x="1142" y="160" type="line"/>
      <point x="1015" y="-300" type="line"/>
      <point x="833" y="-300" type="line"/>
      <point x="916" y="0" type="line"/>
    </contour>
    <contour>
      <point x="960" y="1040" type="line"/>
      <point x="960" y="0" type="line"/>
      <point x="780" y="0" type="line"/>
      <point x="780" y="880" type="line"/>
      <point x="457" y="880" type="line"/>
      <point x="407" y="377" type="line"/>
      <point x="384" y="85"/>
      <point x="211" y="-19"/>
      <point x="70" y="-19" type="curve"/>
      <point x="70" y="140" type="line"/>
      <point x="130" y="140"/>
      <point x="210" y="187"/>
      <point x="227" y="377" type="curve" smooth="yes"/>
      <point x="292" y="1040" type="line"/>
    </contour>
  </outline>
</glyph>
<glyph name="uni04C9" format="2">
  <advance width="1520"/>
  <unicode hex="04C9"/>
  <outline>
    <contour>
      <point x="1168" y="168" type="line"/>
      <point x="1450" y="168" type="line"/>
      <point x="1323" y="-300" type="line"/>
      <point x="1131" y="-300" type="line"/>
      <point x="1213" y="0" type="line"/>
      <point x="1168" y="0" type="line"/>
    </contour>
    <contour>
      <point x="140" y="1480" type="line"/>
      <point x="330" y="1480" type="line"/>
      <point x="330" y="824" type="line"/>
      <point x="1068" y="824" type="line"/>
      <point x="1068" y="1480" type="line"/>
      <point x="1258" y="1480" type="line"/>
      <point x="1258" y="0" type="line"/>
      <point x="1068" y="0" type="line"/>
      <point x="1068" y="656" type="line"/>
      <point x="330" y="656" type="line"/>
      <point x="330" y="0" type="line"/>
      <point x="140" y="0" type="line"/>
    </contour>
  </outline>
</glyph>
<glyph name="uni04CA" format="2">
  <advance width="1271"/>
  <unicode hex="04CA"/>
  <outline>
    <contour>
      <point x="929" y="0" type="line"/>
      <point x="929" y="160" type="line"/>
      <point x="1201" y="160" type="line"/>
      <point x="1074" y="-300" type="line"/>
      <point x="892" y="-300" type="line"/>
      <point x="975" y="0" type="line"/>
    </contour>
    <contour>
      <point x="140" y="1040" type="line"/>
      <point x="320" y="1040" type="line"/>
      <point x="320" y="600" type="line"/>
      <point x="839" y="600" type="line"/>
      <point x="839" y="1040" type="line"/>
      <point x="1019" y="1040" type="line"/>
      <point x="1019" y="0" type="line"/>
      <point x="839" y="0" type="line"/>
      <point x="839" y="439" type="line"/>
      <point x="320" y="439" type="line"/>
      <point x="320" y="0" type="line"/>
      <point x="140" y="0" type="line"/>
    </contour>
  </outline>
</glyph>
<glyph name="uni04CE" format="2">
  <advance width="1404"/>
  <unicode hex="04CE"/>
  <outline>
    <contour>
      <point x="1062" y="0" type="line"/>
      <point x="1108" y="0" type="line"/>
      <point x="1025" y="-300" type="line"/>
      <point x="1207" y="-300" type="line"/>
      <point x="1334" y="160" type="line"/>
      <point x="1062" y="160" type="line"/>
    </contour>
    <contour>
      <point x="642" y="368" type="line"/>
      <point x="320" y="1040" type="line"/>
      <point x="215" y="877" type="line"/>
      <point x="590" y="112" type="line"/>
      <point x="694" y="112" type="line"/>
      <point x="1072" y="877" type="line"/>
      <point x="972" y="1040" type="line"/>
    </contour>
    <contour>
      <point x="1152" y="1040" type="line"/>
      <point x="972" y="1040" type="line"/>
      <point x="972" y="0" type="line"/>
      <point x="1152" y="0" type="line"/>
    </contour>
    <contour>
      <point x="140" y="1040" type="line"/>
      <point x="140" y="0" type="line"/>
      <point x="320" y="0" type="line"/>
      <point x="320" y="1040" type="line"/>
    </contour>
  </outline>
</glyph>
<glyph name="uni04FE" format="2">
  <advance width="1392"/>
  <unicode hex="04FE"/>
  <outline>
    <contour>
      <point x="1232" y="656" type="line"/>
      <point x="160" y="656" type="line"/>
      <point x="160" y="702"/>
      <point x="160" y="778"/>
      <point x="160" y="824" type="curve"/>
      <point x="1232" y="824" type="line"/>
    </contour>
    <contour>
      <point x="694" y="617" type="line"/>
      <point x="284" y="0" type="line"/>
      <point x="70" y="0" type="line"/>
      <point x="568" y="740" type="line"/>
      <point x="70" y="1480" type="line"/>
      <point x="284" y="1480" type="line"/>
      <point x="696" y="858" type="line"/>
      <point x="1108" y="1480" type="line"/>
      <point x="1322" y="1480" type="line"/>
      <point x="824" y="740" type="line"/>
      <point x="1322" y="0" type="line"/>
      <point x="1108" y="0" type="line"/>
    </contour>
  </outline>
</glyph>
<glyph name="uni0501" format="2">
  <advance width="1090"/>
  <unicode hex="0501"/>
  <outline>
    <contour>
      <point x="490" y="630" type="line" smooth="yes"/>
      <point x="245" y="630"/>
      <point x="100" y="505"/>
      <point x="100" y="315" type="curve" smooth="yes"/>
      <point x="100" y="125"/>
      <point x="245" y="0"/>
      <point x="490" y="0" type="curve" smooth="yes"/>
      <point x="950" y="0" type="line"/>
      <point x="950" y="1040" type="line"/>
      <point x="770" y="1040" type="line"/>
      <point x="770" y="630" type="line"/>
    </contour>
    <contour>
      <point x="490" y="470" type="curve" smooth="yes"/>
      <point x="770" y="470" type="line"/>
      <point x="770" y="160" type="line"/>
      <point x="490" y="160" type="line" smooth="yes"/>
      <point x="346" y="160"/>
      <point x="280" y="230"/>
      <point x="280" y="315" type="curve" smooth="yes"/>
      <point x="280" y="400"/>
      <point x="346" y="470"/>
    </contour>
  </outline>
</glyph>
<glyph name="uni0503" format="2">
  <advance width="1729"/>
  <unicode hex="0503"/>
  <outline>
    <contour>
      <point x="876" y="520" type="curve" smooth="yes"/>
      <point x="876" y="750"/>
      <point x="758" y="900"/>
      <point x="578" y="900" type="curve" smooth="yes"/>
      <point x="398" y="900"/>
      <point x="280" y="750"/>
      <point x="280" y="520" type="curve" smooth="yes"/>
      <point x="280" y="290"/>
      <point x="398" y="140"/>
      <point x="578" y="140" type="curve" smooth="yes"/>
      <point x="758" y="140"/>
      <point x="876" y="290"/>
    </contour>
    <contour>
      <point x="900" y="142" type="curve"/>
      <point x="845" y="57"/>
      <point x="703" y="-20"/>
      <point x="578" y="-20" type="curve" smooth="yes"/>
      <point x="297" y="-20"/>
      <point x="100" y="208"/>
      <point x="100" y="520" type="curve" smooth="yes"/>
      <point x="100" y="832"/>
      <point x="297" y="1060"/>
      <point x="578" y="1060" type="curve" smooth="yes"/>
      <point x="703" y="1060"/>
      <point x="779" y="1005"/>
      <point x="864" y="920" type="curve"/>
      <point x="864" y="1480" type="line"/>
      <point x="1044" y="1480" type="line"/>
      <point x="1044" y="334" type="line"/>
      <point x="1044" y="188"/>
      <point x="1098" y="141"/>
      <point x="1226" y="141" type="curve" smooth="yes"/>
      <point x="1354" y="141"/>
      <point x="1409" y="208"/>
      <point x="1409" y="354" type="curve" smooth="yes"/>
      <point x="1409" y="740" type="line"/>
      <point x="1589" y="740" type="line"/>
      <point x="1589" y="354" type="line"/>
      <point x="1589" y="86"/>
      <point x="1445" y="-20"/>
      <point x="1226" y="-20" type="curve" smooth="yes"/>
      <point x="1069" y="-20"/>
      <point x="954" y="19"/>
    </contour>
  </outline>
</glyph>
<glyph name="uni0505" format="2">
  <advance width="1602"/>
  <unicode hex="0505"/>
  <outline>
    <contour>
      <point x="404" y="607" type="line"/>
      <point x="404" y="439" type="line"/>
      <point x="472" y="439" type="line"/>
      <point x="472" y="607" type="line"/>
    </contour>
    <contour>
      <point x="737" y="318" type="curve"/>
      <point x="737" y="80"/>
      <point x="880" y="-20"/>
      <point x="1099" y="-20" type="curve" smooth="yes"/>
      <point x="1318" y="-20"/>
      <point x="1462" y="86"/>
      <point x="1462" y="354" type="curve"/>
      <point x="1462" y="740" type="line"/>
      <point x="1282" y="740" type="line"/>
      <point x="1282" y="354" type="line" smooth="yes"/>
      <point x="1282" y="208"/>
      <point x="1227" y="141"/>
      <point x="1099" y="141" type="curve" smooth="yes"/>
      <point x="971" y="141"/>
      <point x="917" y="212"/>
      <point x="917" y="318" type="curve"/>
      <point x="917" y="488"/>
      <point x="771" y="607"/>
      <point x="472" y="607" type="curve"/>
      <point x="472" y="439" type="line"/>
      <point x="625" y="439"/>
      <point x="737" y="409"/>
    </contour>
    <contour>
      <point x="100" y="780" type="curve"/>
      <point x="277" y="747" type="line"/>
      <point x="277" y="840"/>
      <point x="360" y="914"/>
      <point x="465" y="914" type="curve" smooth="yes"/>
      <point x="570" y="914"/>
      <point x="652" y="847"/>
      <point x="652" y="747" type="curve" smooth="yes"/>
      <point x="652" y="647"/>
      <point x="577" y="607"/>
      <point x="472" y="607" type="curve"/>
      <point x="472" y="515" type="line"/>
      <point x="678" y="515"/>
      <point x="832" y="584"/>
      <point x="832" y="770" type="curve" smooth="yes"/>
      <point x="832" y="956"/>
      <point x="670" y="1075"/>
      <point x="465" y="1075" type="curve" smooth="yes"/>
      <point x="274" y="1075"/>
      <point x="120" y="961"/>
    </contour>
  </outline>
</glyph>
<glyph name="uni0506" format="2">
  <advance width="1290"/>
  <unicode hex="0506"/>
  <outline>
    <contour>
      <point x="1010" y="167" type="line"/>
      <point x="1290" y="167" type="line"/>
      <point x="1290" y="-300" type="line"/>
      <point x="1100" y="-300" type="line"/>
      <point x="1100" y="0" type="line"/>
      <point x="1010" y="0" type="line"/>
    </contour>
    <contour>
      <point x="911" y="468" type="line"/>
      <point x="911" y="604"/>
      <point x="764" y="688"/>
      <point x="564" y="688" type="curve"/>
      <point x="564" y="856" type="line"/>
      <point x="864" y="856"/>
      <point x="1100" y="723"/>
      <point x="1100" y="468" type="curve"/>
      <point x="1100" y="0" type="line"/>
      <point x="911" y="0" type="line"/>
    </contour>
    <contour>
      <point x="469" y="856" type="line"/>
      <point x="564" y="856" type="line"/>
      <point x="564" y="688" type="line"/>
      <point x="469" y="688" type="line"/>
    </contour>
    <contour>
      <point x="100" y="1131" type="line"/>
      <point x="125" y="1358"/>
      <point x="316" y="1500"/>
      <point x="554" y="1500" type="curve" smooth="yes"/>
      <point x="809" y="1500"/>
      <point x="1011" y="1337"/>
      <point x="1011" y="1082" type="curve" smooth="yes"/>
      <point x="1011" y="827"/>
      <point x="819" y="733"/>
      <point x="564" y="733" type="curve"/>
      <point x="564" y="856" type="line"/>
      <point x="714" y="856"/>
      <point x="821" y="932"/>
      <point x="821" y="1082" type="curve" smooth="yes"/>
      <point x="821" y="1232"/>
      <point x="704" y="1332"/>
      <point x="554" y="1332" type="curve" smooth="yes"/>
      <point x="404" y="1332"/>
      <point x="287" y="1222"/>
      <point x="287" y="1082" type="curve"/>
    </contour>
  </outline>
</glyph>
<glyph name="uni0509" format="2">
  <advance width="1580"/>
  <unicode hex="0509"/>
  <outline>
    <contour>
      <point x="895" y="334" type="curve" smooth="yes"/>
      <point x="895" y="1040" type="line"/>
      <point x="227" y="1040" type="line"/>
      <point x="162" y="377" type="line" smooth="yes"/>
      <point x="145" y="187"/>
      <point x="65" y="140"/>
      <point x="5" y="140" type="curve"/>
      <point x="5" y="-19" type="line"/>
      <point x="146" y="-19"/>
      <point x="319" y="85"/>
      <point x="342" y="377" type="curve"/>
      <point x="392" y="880" type="line"/>
      <point x="715" y="880" type="line"/>
      <point x="715" y="334" type="line"/>
      <point x="715" y="66"/>
      <point x="858" y="-20"/>
      <point x="1077" y="-20" type="curve" smooth="yes"/>
      <point x="1296" y="-20"/>
      <point x="1440" y="86"/>
      <point x="1440" y="354" type="curve"/>
      <point x="1440" y="740" type="line"/>
      <point x="1260" y="740" type="line"/>
      <point x="1260" y="354" type="line" smooth="yes"/>
      <point x="1260" y="208"/>
      <point x="1205" y="141"/>
      <point x="1077" y="141" type="curve" smooth="yes"/>
      <point x="949" y="141"/>
      <point x="895" y="188"/>
    </contour>
  </outline>
</glyph>
<glyph name="uni050B" format="2">
  <advance width="1704"/>
  <unicode hex="050B"/>
  <outline>
    <contour>
      <point x="1019" y="334" type="curve"/>
      <point x="1019" y="1040" type="line"/>
      <point x="839" y="1040" type="line"/>
      <point x="839" y="600" type="line"/>
      <point x="320" y="600" type="line"/>
      <point x="320" y="1040" type="line"/>
      <point x="140" y="1040" type="line"/>
      <point x="140" y="0" type="line"/>
      <point x="320" y="0" type="line"/>
      <point x="320" y="439" type="line"/>
      <point x="839" y="439" type="line"/>
      <point x="839" y="334" type="line"/>
      <point x="839" y="66"/>
      <point x="982" y="-20"/>
      <point x="1201" y="-20" type="curve" smooth="yes"/>
      <point x="1420" y="-20"/>
      <point x="1564" y="86"/>
      <point x="1564" y="354" type="curve"/>
      <point x="1564" y="740" type="line"/>
      <point x="1384" y="740" type="line"/>
      <point x="1384" y="354" type="line" smooth="yes"/>
      <point x="1384" y="208"/>
      <point x="1329" y="141"/>
      <point x="1201" y="141" type="curve" smooth="yes"/>
      <point x="1073" y="141"/>
      <point x="1019" y="188"/>
    </contour>
  </outline>
</glyph>
<glyph name="uni050D" format="2">
  <advance width="1196"/>
  <unicode hex="050D"/>
  <outline>
    <contour>
      <point x="598" y="900" type="curve" smooth="yes"/>
      <point x="748" y="900"/>
      <point x="848" y="789"/>
      <point x="894" y="689" type="curve"/>
      <point x="1043" y="775" type="line"/>
      <point x="956" y="960"/>
      <point x="796" y="1061"/>
      <point x="598" y="1061" type="curve" smooth="yes"/>
      <point x="317" y="1060"/>
      <point x="100" y="833"/>
      <point x="100" y="521" type="curve" smooth="yes"/>
      <point x="100" y="209"/>
      <point x="317" y="-20"/>
      <point x="598" y="-20" type="curve" smooth="yes"/>
      <point x="879" y="-20"/>
      <point x="1096" y="208"/>
      <point x="1096" y="520" type="curve" smooth="yes"/>
      <point x="1096" y="547"/>
      <point x="1094" y="574"/>
      <point x="1091" y="600" type="curve"/>
      <point x="910" y="600" type="line"/>
      <point x="914" y="574"/>
      <point x="916" y="548"/>
      <point x="916" y="520" type="curve" smooth="yes"/>
      <point x="916" y="300"/>
      <point x="789" y="140"/>
      <point x="598" y="140" type="curve" smooth="yes"/>
      <point x="407" y="140"/>
      <point x="280" y="300"/>
      <point x="280" y="520" type="curve" smooth="yes"/>
      <point x="280" y="740"/>
      <point x="407" y="900"/>
    </contour>
    <contour>
      <point x="604" y="440" type="line"/>
      <point x="980" y="440" type="line"/>
      <point x="910" y="600" type="line"/>
      <point x="604" y="600" type="line"/>
    </contour>
  </outline>
</glyph>
<glyph name="uni050F" format="2">
  <advance width="1331"/>
  <unicode hex="050F"/>
  <outline>
    <contour>
      <point x="646" y="334" type="curve" smooth="yes"/>
      <point x="646" y="880" type="line"/>
      <point x="972" y="880" type="line"/>
      <point x="972" y="1040" type="line"/>
      <point x="140" y="1040" type="line"/>
      <point x="140" y="880" type="line"/>
      <point x="466" y="880" type="line"/>
      <point x="466" y="334" type="line"/>
      <point x="466" y="66"/>
      <point x="609" y="-20"/>
      <point x="828" y="-20" type="curve" smooth="yes"/>
      <point x="1047" y="-20"/>
      <point x="1191" y="86"/>
      <point x="1191" y="354" type="curve"/>
      <point x="1191" y="735" type="line"/>
      <point x="1011" y="735" type="line"/>
      <point x="1011" y="354" type="line" smooth="yes"/>
      <point x="1011" y="208"/>
      <point x="956" y="141"/>
      <point x="828" y="141" type="curve" smooth="yes"/>
      <point x="700" y="141"/>
      <point x="646" y="188"/>
    </contour>
  </outline>
</glyph>
<glyph name="uni0511" format="2">
  <advance width="1013"/>
  <unicode hex="0511"/>
  <outline>
    <contour>
      <point x="508" y="618" type="curve"/>
      <point x="387" y="618"/>
      <point x="322" y="680"/>
      <point x="322" y="762" type="curve" smooth="yes"/>
      <point x="322" y="844"/>
      <point x="387" y="900"/>
      <point x="508" y="900" type="curve" smooth="yes"/>
      <point x="629" y="900"/>
      <point x="700" y="823"/>
      <point x="700" y="741" type="curve"/>
      <point x="872" y="788" type="line"/>
      <point x="851" y="937"/>
      <point x="723" y="1060"/>
      <point x="508" y="1060" type="curve" smooth="yes"/>
      <point x="293" y="1060"/>
      <point x="142" y="932"/>
      <point x="142" y="774" type="curve" smooth="yes"/>
      <point x="142" y="683"/>
      <point x="182" y="600"/>
      <point x="281" y="549" type="curve"/>
      <point x="156" y="493"/>
      <point x="100" y="398"/>
      <point x="100" y="290" type="curve" smooth="yes"/>
      <point x="100" y="117"/>
      <point x="269" y="-20"/>
      <point x="508" y="-20" type="curve" smooth="yes"/>
      <point x="732" y="-20"/>
      <point x="885" y="78"/>
      <point x="913" y="252" type="curve"/>
      <point x="741" y="299" type="line"/>
      <point x="729" y="204"/>
      <point x="652" y="140"/>
      <point x="508" y="140" type="curve" smooth="yes"/>
      <point x="364" y="140"/>
      <point x="279" y="208"/>
      <point x="279" y="303" type="curve" smooth="yes"/>
      <point x="279" y="398"/>
      <point x="364" y="471"/>
      <point x="508" y="471" type="curve"/>
      <point x="557" y="471"/>
      <point x="573" y="471"/>
      <point x="573" y="471" type="curve"/>
      <point x="573" y="618" type="line"/>
      <point x="573" y="618"/>
      <point x="556" y="618"/>
    </contour>
  </outline>
</glyph>
<glyph name="uni0512" format="2">
  <advance width="1328"/>
  <unicode hex="0512"/>
  <outline>
    <contour>
      <point x="373" y="1480" type="line"/>
      <point x="294" y="520" type="line" smooth="yes"/>
      <point x="269" y="221"/>
      <point x="155" y="148"/>
      <point x="70" y="148" type="curve"/>
      <point x="70" y="-20" type="line"/>
      <point x="243" y="-20"/>
      <point x="455" y="121"/>
      <point x="484" y="520" type="curve" smooth="yes"/>
      <point x="543" y="1311" type="line"/>
      <point x="998" y="1311" type="line"/>
      <point x="998" y="0" type="line" smooth="yes"/>
      <point x="998" y="-90"/>
      <point x="948" y="-152"/>
      <point x="858" y="-152" type="curve" smooth="yes"/>
      <point x="842" y="-152"/>
      <point x="827" y="-150"/>
      <point x="814" y="-146" type="curve"/>
      <point x="814" y="-317" type="line"/>
      <point x="828" y="-319"/>
      <point x="843" y="-320"/>
      <point x="858" y="-320" type="curve" smooth="yes"/>
      <point x="1036" y="-320"/>
      <point x="1188" y="-178"/>
      <point x="1188" y="0" type="curve" smooth="yes"/>
      <point x="1188" y="1480" type="line"/>
    </contour>
  </outline>
</glyph>
<glyph name="uni0513" format="2">
  <advance width="1100"/>
  <unicode hex="0513"/>
  <outline>
    <contour>
      <point x="292" y="1040" type="line"/>
      <point x="227" y="377" type="line" smooth="yes"/>
      <point x="210" y="187"/>
      <point x="130" y="140"/>
      <point x="70" y="140" type="curve"/>
      <point x="70" y="-19" type="line"/>
      <point x="211" y="-19"/>
      <point x="384" y="85"/>
      <point x="407" y="377" type="curve"/>
      <point x="457" y="880" type="line"/>
      <point x="780" y="880" type="line"/>
      <point x="780" y="0" type="line"/>
      <point x="780" y="-93"/>
      <point x="724" y="-163"/>
      <point x="634" y="-163" type="curve" smooth="yes"/>
      <point x="618" y="-163"/>
      <point x="603" y="-161"/>
      <point x="590" y="-157" type="curve"/>
      <point x="590" y="-320" type="line"/>
      <point x="604" y="-322"/>
      <point x="619" y="-323"/>
      <point x="634" y="-323" type="curve" smooth="yes"/>
      <point x="812" y="-323"/>
      <point x="960" y="-181"/>
      <point x="960" y="0" type="curve"/>
      <point x="960" y="1040" type="line"/>
    </contour>
  </outline>
</glyph>
<glyph name="uni0514" format="2">
  <advance width="2300"/>
  <unicode hex="0514"/>
  <outline>
    <contour>
      <point x="1148" y="1311" type="line"/>
      <point x="543" y="1311" type="line"/>
      <point x="484" y="520" type="line" smooth="yes"/>
      <point x="455" y="121"/>
      <point x="243" y="-20"/>
      <point x="70" y="-20" type="curve"/>
      <point x="70" y="148" type="line"/>
      <point x="155" y="148"/>
      <point x="269" y="221"/>
      <point x="294" y="520" type="curve" smooth="yes"/>
      <point x="373" y="1480" type="line"/>
      <point x="567" y="1480" type="line"/>
      <point x="708" y="1480" type="line"/>
      <point x="1192" y="1480" type="line"/>
    </contour>
    <contour>
      <point x="1602" y="617" type="line"/>
      <point x="1192" y="0" type="line"/>
      <point x="978" y="0" type="line"/>
      <point x="1476" y="740" type="line"/>
      <point x="1049" y="1375" type="line"/>
      <point x="1192" y="1480" type="line"/>
      <point x="1604" y="858" type="line"/>
      <point x="2016" y="1480" type="line"/>
      <point x="2230" y="1480" type="line"/>
      <point x="1732" y="740" type="line"/>
      <point x="2230" y="0" type="line"/>
      <point x="2016" y="0" type="line"/>
    </contour>
  </outline>
</glyph>
<glyph name="uni0515" format="2">
  <advance width="1774"/>
  <unicode hex="0515"/>
  <outline>
    <contour>
      <point x="1089" y="520" type="line"/>
      <point x="825" y="928" type="line"/>
      <point x="960" y="1040" type="line"/>
      <point x="1228" y="613" type="line"/>
      <point x="1496" y="1040" type="line"/>
      <point x="1704" y="1040" type="line"/>
      <point x="1366" y="520" type="line"/>
      <point x="1704" y="0" type="line"/>
      <point x="1496" y="0" type="line"/>
      <point x="1226" y="430" type="line"/>
      <point x="962" y="0" type="line"/>
      <point x="752" y="0" type="line"/>
    </contour>
    <contour>
      <point x="920" y="880" type="line"/>
      <point x="457" y="880" type="line"/>
      <point x="407" y="377" type="line"/>
      <point x="384" y="85"/>
      <point x="211" y="-19"/>
      <point x="70" y="-19" type="curve"/>
      <point x="70" y="140" type="line"/>
      <point x="130" y="140"/>
      <point x="210" y="187"/>
      <point x="227" y="377" type="curve" smooth="yes"/>
      <point x="292" y="1040" type="line"/>
      <point x="960" y="1040" type="line"/>
    </contour>
  </outline>
</glyph>
<glyph name="uni0517" format="2">
  <advance width="1508"/>
  <unicode hex="0517"/>
  <outline>
    <contour>
      <point x="1230" y="0" type="line"/>
      <point x="904" y="520" type="line"/>
      <point x="1230" y="1040" type="line"/>
      <point x="1438" y="1040" type="line"/>
      <point x="1100" y="520" type="line"/>
      <point x="1438" y="0" type="line"/>
    </contour>
    <contour>
      <point x="308" y="520" type="curve" smooth="yes"/>
      <point x="308" y="290"/>
      <point x="426" y="140"/>
      <point x="606" y="140" type="curve" smooth="yes"/>
      <point x="786" y="140"/>
      <point x="904" y="290"/>
      <point x="904" y="520" type="curve" smooth="yes"/>
      <point x="904" y="750"/>
      <point x="786" y="900"/>
      <point x="606" y="900" type="curve" smooth="yes"/>
      <point x="426" y="900"/>
      <point x="308" y="750"/>
    </contour>
    <contour>
      <point x="140" y="872" type="line"/>
      <point x="140" y="974"/>
      <point x="140" y="1040"/>
      <point x="140" y="1040" type="curve"/>
      <point x="312" y="1040" type="line"/>
      <point x="312" y="920" type="line"/>
      <point x="397" y="1005"/>
      <point x="481" y="1060"/>
      <point x="606" y="1060" type="curve" smooth="yes"/>
      <point x="887" y="1060"/>
      <point x="1084" y="832"/>
      <point x="1084" y="520" type="curve" smooth="yes"/>
      <point x="1084" y="208"/>
      <point x="887" y="-20"/>
      <point x="606" y="-20" type="curve" smooth="yes"/>
      <point x="481" y="-20"/>
      <point x="405" y="35"/>
      <point x="320" y="120" type="curve"/>
      <point x="320" y="-440" type="line"/>
      <point x="140" y="-440" type="line"/>
    </contour>
  </outline>
</glyph>
<glyph name="uni0524" format="2">
  <advance width="1483"/>
  <unicode hex="0524"/>
  <outline>
    <contour>
      <point x="1168" y="167" type="line"/>
      <point x="1448" y="167" type="line"/>
      <point x="1448" y="-300" type="line"/>
      <point x="1258" y="-300" type="line"/>
      <point x="1258" y="0" type="line"/>
      <point x="1168" y="0" type="line"/>
    </contour>
    <contour>
      <point x="1258" y="1480" type="line"/>
      <point x="1258" y="0" type="line"/>
      <point x="1068" y="0" type="line"/>
      <point x="1068" y="1311" type="line"/>
      <point x="330" y="1311" type="line"/>
      <point x="330" y="0" type="line"/>
      <point x="140" y="0" type="line"/>
      <point x="140" y="1480" type="line"/>
    </contour>
  </outline>
</glyph>
<glyph name="uni0526" format="2">
  <advance width="1404"/>
  <unicode hex="0526"/>
  <outline>
    <contour>
      <point x="1054" y="167" type="line"/>
      <point x="1334" y="167" type="line"/>
      <point x="1334" y="-300" type="line"/>
      <point x="1144" y="-300" type="line"/>
      <point x="1144" y="0" type="line"/>
      <point x="1054" y="0" type="line"/>
    </contour>
    <contour>
      <point x="646" y="900" type="curve" smooth="yes"/>
      <point x="945" y="900"/>
      <point x="1144" y="732"/>
      <point x="1144" y="412" type="curve"/>
      <point x="1144" y="0" type="line"/>
      <point x="954" y="0" type="line"/>
      <point x="954" y="412" type="line" smooth="yes"/>
      <point x="954" y="631"/>
      <point x="826" y="732"/>
      <point x="646" y="732" type="curve" smooth="yes"/>
      <point x="446" y="732"/>
      <point x="309" y="604"/>
      <point x="309" y="604" type="curve"/>
      <point x="227" y="755" type="line"/>
      <point x="227" y="755"/>
      <point x="347" y="900"/>
    </contour>
    <contour>
      <point x="330" y="1480" type="line"/>
      <point x="330" y="0" type="line"/>
      <point x="140" y="0" type="line"/>
      <point x="140" y="1480" type="line"/>
    </contour>
  </outline>
</glyph>
<glyph name="uni0527" format="2">
  <advance width="1266"/>
  <unicode hex="0527"/>
  <outline>
    <contour>
      <point x="926" y="159" type="line"/>
      <point x="1196" y="159" type="line"/>
      <point x="1196" y="-300" type="line"/>
      <point x="1016" y="-300" type="line"/>
      <point x="1016" y="0" type="line"/>
      <point x="926" y="0" type="line"/>
    </contour>
    <contour>
      <point x="836" y="0" type="line"/>
      <point x="836" y="572" type="line" smooth="yes"/>
      <point x="836" y="791"/>
      <point x="758" y="900"/>
      <point x="578" y="900" type="curve" smooth="yes"/>
      <point x="398" y="900"/>
      <point x="320" y="791"/>
      <point x="320" y="572" type="curve" smooth="yes"/>
      <point x="320" y="0" type="line"/>
      <point x="140" y="0" type="line"/>
      <point x="140" y="1480" type="line"/>
      <point x="312" y="1480" type="line"/>
      <point x="312" y="920" type="line"/>
      <point x="397" y="1005"/>
      <point x="493" y="1060"/>
      <point x="618" y="1060" type="curve" smooth="yes"/>
      <point x="888" y="1060"/>
      <point x="1016" y="892"/>
      <point x="1016" y="572" type="curve"/>
      <point x="1016" y="0" type="line"/>
    </contour>
  </outline>
</glyph>
<glyph name="uni052A" format="2">
  <advance width="2814"/>
  <unicode hex="052A"/>
  <outline>
    <contour>
      <point x="70" y="-300" type="line"/>
      <point x="70" y="168" type="line"/>
      <point x="260" y="168" type="line"/>
      <point x="260" y="-300" type="line"/>
    </contour>
    <contour>
      <point x="1228" y="-300" type="line"/>
      <point x="1228" y="168" type="line"/>
      <point x="1418" y="168" type="line"/>
      <point x="1418" y="-300" type="line"/>
    </contour>
    <contour>
      <point x="190" y="168" type="line"/>
      <point x="1338" y="168" type="line"/>
      <point x="1338" y="0" type="line"/>
      <point x="190" y="0" type="line"/>
    </contour>
    <contour>
      <point x="1228" y="1480" type="line"/>
      <point x="1228" y="0" type="line"/>
      <point x="1038" y="0" type="line"/>
      <point x="1038" y="1311" type="line"/>
      <point x="583" y="1311" type="line"/>
      <point x="524" y="520" type="line" smooth="yes"/>
      <point x="495" y="121"/>
      <point x="283" y="0"/>
      <point x="110" y="0" type="curve"/>
      <point x="110" y="168" type="line"/>
      <point x="195" y="168"/>
      <point x="309" y="221"/>
      <point x="334" y="520" type="curve" smooth="yes"/>
      <point x="413" y="1480" type="line"/>
    </contour>
    <contour>
      <point x="1200" y="824" type="line"/>
      <point x="1633" y="824" type="line"/>
      <point x="1633" y="656" type="line"/>
      <point x="1200" y="656" type="line"/>
    </contour>
    <contour>
      <point x="2017" y="794" type="line"/>
      <point x="2147" y="917" type="line"/>
      <point x="2764" y="0" type="line"/>
      <point x="2550" y="0" type="line"/>
    </contour>
    <contour>
      <point x="1798" y="490" type="line"/>
      <point x="1798" y="0" type="line"/>
      <point x="1608" y="0" type="line"/>
      <point x="1608" y="1480" type="line"/>
      <point x="1798" y="1480" type="line"/>
      <point x="1798" y="730" type="line"/>
      <point x="2524" y="1480" type="line"/>
      <point x="2584" y="1480"/>
      <point x="2704" y="1480"/>
      <point x="2764" y="1480" type="curve"/>
    </contour>
  </outline>
</glyph>
<glyph name="uni052D" format="2">
  <advance width="1270"/>
  <unicode hex="052D"/>
  <outline>
    <contour>
      <point x="70" y="-300" type="line"/>
      <point x="70" y="160" type="line"/>
      <point x="250" y="160" type="line"/>
      <point x="250" y="-300" type="line"/>
    </contour>
    <contour>
      <point x="230" y="160" type="line"/>
      <point x="1020" y="160" type="line"/>
      <point x="1020" y="0" type="line"/>
      <point x="230" y="0" type="line"/>
    </contour>
    <contour>
      <point x="1020" y="-300" type="line"/>
      <point x="1020" y="160" type="line"/>
      <point x="1200" y="160" type="line"/>
      <point x="1200" y="-300" type="line"/>
    </contour>
    <contour>
      <point x="1020" y="1040" type="line"/>
      <point x="1020" y="0" type="line"/>
      <point x="840" y="0" type="line"/>
      <point x="840" y="880" type="line"/>
      <point x="667" y="880" type="line"/>
      <point x="617" y="377" type="line" smooth="yes"/>
      <point x="588" y="86"/>
      <point x="421" y="0"/>
      <point x="280" y="0" type="curve"/>
      <point x="280" y="160" type="line"/>
      <point x="340" y="160"/>
      <point x="420" y="187"/>
      <point x="437" y="377" type="curve" smooth="yes"/>
      <point x="502" y="1040" type="line"/>
    </contour>
    <contour>
      <point x="612" y="387" type="curve" smooth="yes"/>
      <point x="379" y="387"/>
      <point x="223" y="516"/>
      <point x="223" y="760" type="curve"/>
      <point x="223" y="1040" type="line"/>
      <point x="403" y="1040" type="line"/>
      <point x="403" y="763" type="line" smooth="yes"/>
      <point x="403" y="616"/>
      <point x="494" y="547"/>
      <point x="622" y="547" type="curve" smooth="yes"/>
      <point x="764" y="547"/>
      <point x="861" y="632"/>
      <point x="861" y="632" type="curve"/>
      <point x="939" y="525" type="line"/>
      <point x="939" y="525"/>
      <point x="845" y="387"/>
    </contour>
  </outline>
</glyph>
